%TF.GenerationSoftware,KiCad,Pcbnew,10.0.4*%
%TF.CreationDate,2026-10-07T09:28:45+02:00*%
%TF.ProjectId,CE006_Config feu recompense,43453030-365f-4436-9f6e-666967206665,rev?*%
%TF.SameCoordinates,Original*%
%TF.FileFunction,Legend,Bot*%
%TF.FilePolarity,Positive*%
%FSLAX46Y46*%
G04 Gerber Fmt 4.6, Leading zero omitted, Abs format (unit mm)*
G04 Created by KiCad (PCBNEW 10.0.4) date 2026-10-07 09:28:45*
%MOMM*%
%LPD*%
G01*
G04 APERTURE LIST*
%ADD10C,1.250000*%
%ADD11C,0.150000*%
%ADD12C,0.000000*%
%ADD13C,0.120000*%
G04 APERTURE END LIST*
D10*
G36*
X145833469Y-132450000D02*
G01*
X145833469Y-128601343D01*
X147703148Y-129797522D01*
X148410537Y-128785746D01*
X146260589Y-127389288D01*
X144404649Y-127389288D01*
X144404649Y-132450000D01*
X145833469Y-132450000D01*
G37*
G36*
X140509358Y-127340120D02*
G01*
X140999598Y-127363032D01*
X141413794Y-127419875D01*
X141705460Y-127509577D01*
X141869833Y-127601887D01*
X141993825Y-127718728D01*
X142083121Y-127862203D01*
X142161273Y-128127511D01*
X142192419Y-128536924D01*
X142192419Y-128822993D01*
X142161122Y-129148031D01*
X142076625Y-129390818D01*
X141946345Y-129570987D01*
X141769909Y-129713594D01*
X141562292Y-129817489D01*
X141317419Y-129882702D01*
X141317419Y-129900104D01*
X141628879Y-129966638D01*
X141848953Y-130061304D01*
X142022030Y-130197814D01*
X142134106Y-130366303D01*
X142196411Y-130568955D01*
X142219591Y-130839218D01*
X142219591Y-131281603D01*
X142199314Y-131553829D01*
X142142685Y-131778963D01*
X142053811Y-131965483D01*
X141926951Y-132126723D01*
X141759531Y-132261819D01*
X141544565Y-132371536D01*
X141311334Y-132443451D01*
X141017547Y-132491133D01*
X140650942Y-132508618D01*
X137725218Y-132508618D01*
X137261013Y-132477861D01*
X136910057Y-132395655D01*
X136703011Y-132301683D01*
X136538739Y-132179619D01*
X136410886Y-132028681D01*
X136320700Y-131851767D01*
X136262720Y-131632282D01*
X136241748Y-131360066D01*
X136241748Y-130952180D01*
X136246428Y-130901195D01*
X137711479Y-130901195D01*
X137723781Y-131087583D01*
X137754221Y-131205887D01*
X137816522Y-131296076D01*
X137927023Y-131363119D01*
X138073082Y-131399444D01*
X138312927Y-131414410D01*
X140148412Y-131414410D01*
X140385336Y-131399498D01*
X140531263Y-131363119D01*
X140641614Y-131295567D01*
X140705591Y-131202529D01*
X140737325Y-131081987D01*
X140749860Y-130901195D01*
X140736698Y-130700723D01*
X140705591Y-130586427D01*
X140639795Y-130504270D01*
X140514166Y-130442934D01*
X140347346Y-130411553D01*
X140062927Y-130398360D01*
X138398412Y-130398360D01*
X138114031Y-130411558D01*
X137947479Y-130442934D01*
X137821656Y-130504302D01*
X137756053Y-130586427D01*
X137724728Y-130700741D01*
X137711479Y-130901195D01*
X136246428Y-130901195D01*
X136271037Y-130633129D01*
X136349522Y-130397644D01*
X136469199Y-130225558D01*
X136633449Y-130087628D01*
X136850042Y-129968029D01*
X137130181Y-129868963D01*
X137130181Y-129855225D01*
X136803024Y-129785550D01*
X136587815Y-129682015D01*
X136453628Y-129552058D01*
X136364134Y-129382011D01*
X136304755Y-129155521D01*
X136284533Y-128882222D01*
X137752390Y-128882222D01*
X137769026Y-129026488D01*
X137815148Y-129138432D01*
X137889166Y-129225689D01*
X137988064Y-129285736D01*
X138134999Y-129327192D01*
X138347121Y-129343230D01*
X140124598Y-129343230D01*
X140339070Y-129327136D01*
X140486958Y-129285631D01*
X140585912Y-129225689D01*
X140659929Y-129138432D01*
X140706051Y-129026488D01*
X140722688Y-128882222D01*
X140690647Y-128676137D01*
X140604847Y-128540910D01*
X140463643Y-128456790D01*
X140244277Y-128424877D01*
X138227442Y-128424877D01*
X138009909Y-128456689D01*
X137869676Y-128540644D01*
X137784309Y-128675853D01*
X137752390Y-128882222D01*
X136284533Y-128882222D01*
X136282658Y-128856882D01*
X136282658Y-128529902D01*
X136307564Y-128221794D01*
X136375323Y-127983202D01*
X136479274Y-127799310D01*
X136626669Y-127648365D01*
X136824003Y-127526415D01*
X137082554Y-127434778D01*
X137523072Y-127360062D01*
X138166076Y-127330669D01*
X139707554Y-127330669D01*
X140509358Y-127340120D01*
G37*
G36*
X133589995Y-127354297D02*
G01*
X134023718Y-127417023D01*
X134345507Y-127508356D01*
X134569769Y-127615294D01*
X134755218Y-127750850D01*
X134906814Y-127915854D01*
X135027250Y-128113468D01*
X135135094Y-128406603D01*
X135208308Y-128799197D01*
X135235772Y-129316364D01*
X135235772Y-130731446D01*
X135205264Y-131199910D01*
X135123115Y-131560345D01*
X135032487Y-131777776D01*
X134919523Y-131958950D01*
X134784534Y-132108670D01*
X134535246Y-132286389D01*
X134219112Y-132413058D01*
X133863438Y-132483128D01*
X133424406Y-132508618D01*
X131213093Y-132508618D01*
X130736060Y-132494775D01*
X130392742Y-132458853D01*
X130088529Y-132383477D01*
X129845943Y-132265901D01*
X129710306Y-132156939D01*
X129598361Y-132017208D01*
X129509193Y-131841835D01*
X129429010Y-131537107D01*
X129398063Y-131102695D01*
X129398063Y-130850819D01*
X130826578Y-130850819D01*
X130845623Y-131059581D01*
X130893440Y-131192149D01*
X130980163Y-131290525D01*
X131120586Y-131361898D01*
X131299782Y-131399136D01*
X131588921Y-131414410D01*
X133003698Y-131414410D01*
X133292838Y-131399136D01*
X133472034Y-131361898D01*
X133612520Y-131290539D01*
X133699485Y-131192149D01*
X133747078Y-131059607D01*
X133766041Y-130850819D01*
X133744598Y-130644664D01*
X133688953Y-130506203D01*
X133605451Y-130416067D01*
X133489668Y-130359910D01*
X133291951Y-130317822D01*
X132976526Y-130300662D01*
X131616093Y-130300662D01*
X131298240Y-130317899D01*
X131100389Y-130360048D01*
X130985642Y-130416067D01*
X130903021Y-130506061D01*
X130847857Y-130644496D01*
X130826578Y-130850819D01*
X129398063Y-130850819D01*
X129398063Y-130661531D01*
X129415315Y-130331675D01*
X129462252Y-130069544D01*
X129533007Y-129863162D01*
X129645944Y-129683243D01*
X129815536Y-129530315D01*
X130054160Y-129403070D01*
X130317553Y-129322388D01*
X130678463Y-129266651D01*
X131161802Y-129245533D01*
X132610772Y-129245533D01*
X132903141Y-129257803D01*
X133125209Y-129290413D01*
X133325320Y-129346378D01*
X133483941Y-129417419D01*
X133626956Y-129511333D01*
X133766041Y-129633879D01*
X133766041Y-129034569D01*
X133743896Y-128838233D01*
X133683172Y-128689409D01*
X133586828Y-128576613D01*
X133457652Y-128498395D01*
X133271945Y-128445203D01*
X133010720Y-128424877D01*
X131646929Y-128424877D01*
X131261878Y-128454646D01*
X131052198Y-128524101D01*
X130955693Y-128604213D01*
X130896278Y-128717059D01*
X130874511Y-128874284D01*
X129531175Y-128874284D01*
X129531175Y-128477390D01*
X129550620Y-128254067D01*
X129606839Y-128056088D01*
X129698787Y-127878689D01*
X129828052Y-127728780D01*
X130016692Y-127594347D01*
X130279780Y-127476605D01*
X130559830Y-127401057D01*
X130927128Y-127349787D01*
X131400854Y-127330669D01*
X133017437Y-127330669D01*
X133589995Y-127354297D01*
G37*
G36*
X128204021Y-130420647D02*
G01*
X128204021Y-127389288D01*
X122684132Y-127389288D01*
X122684132Y-128483496D01*
X126860990Y-128483496D01*
X126860990Y-129346894D01*
X126742245Y-129240316D01*
X126633845Y-129166460D01*
X126512246Y-129112022D01*
X126341669Y-129066625D01*
X126150151Y-129040463D01*
X125897147Y-129030600D01*
X124140125Y-129030600D01*
X123764590Y-129047844D01*
X123455885Y-129095397D01*
X123203759Y-129167986D01*
X122972603Y-129282186D01*
X122784763Y-129436244D01*
X122634673Y-129633269D01*
X122530667Y-129860438D01*
X122462823Y-130147033D01*
X122438058Y-130507048D01*
X122438058Y-130829754D01*
X122457206Y-131214362D01*
X122508706Y-131512869D01*
X122585214Y-131741390D01*
X122701738Y-131948816D01*
X122848002Y-132113525D01*
X123026072Y-132240867D01*
X123227762Y-132334299D01*
X123469833Y-132407303D01*
X123759106Y-132457021D01*
X124228197Y-132494308D01*
X124874991Y-132508618D01*
X126091931Y-132508618D01*
X126890273Y-132482124D01*
X127412979Y-132416111D01*
X127717283Y-132327500D01*
X127952708Y-132199445D01*
X128132274Y-132034176D01*
X128259258Y-131826964D01*
X128343465Y-131544037D01*
X128374991Y-131162229D01*
X128374991Y-130867611D01*
X126946170Y-130867611D01*
X126924723Y-131080182D01*
X126869884Y-131218622D01*
X126788939Y-131305111D01*
X126674558Y-131357113D01*
X126464437Y-131397540D01*
X126112081Y-131414410D01*
X124656088Y-131414410D01*
X124327721Y-131394618D01*
X124136767Y-131347548D01*
X123995399Y-131259744D01*
X123917864Y-131141468D01*
X123881611Y-130984803D01*
X123866573Y-130724424D01*
X123889156Y-130457238D01*
X123943510Y-130302189D01*
X124043428Y-130193506D01*
X124201796Y-130126945D01*
X124408471Y-130098016D01*
X124769050Y-130085729D01*
X126406393Y-130085729D01*
X126588801Y-130109259D01*
X126717346Y-130172601D01*
X126806506Y-130273397D01*
X126860990Y-130420647D01*
X128204021Y-130420647D01*
G37*
G36*
X119977730Y-127354297D02*
G01*
X120411454Y-127417023D01*
X120733243Y-127508356D01*
X120957505Y-127615294D01*
X121142953Y-127750850D01*
X121294550Y-127915854D01*
X121414986Y-128113468D01*
X121522829Y-128406603D01*
X121596043Y-128799197D01*
X121623508Y-129316364D01*
X121623508Y-130731446D01*
X121592999Y-131199910D01*
X121510851Y-131560345D01*
X121420222Y-131777776D01*
X121307259Y-131958950D01*
X121172269Y-132108670D01*
X120922720Y-132286291D01*
X120605015Y-132413058D01*
X120247728Y-132483162D01*
X119808478Y-132508618D01*
X117176762Y-132508618D01*
X116768240Y-132487029D01*
X116433313Y-132427445D01*
X116160101Y-132336121D01*
X115914099Y-132195943D01*
X115716525Y-132009674D01*
X115562011Y-131772226D01*
X115458710Y-131503743D01*
X115390461Y-131162277D01*
X115365396Y-130731446D01*
X115365396Y-129377119D01*
X116876038Y-129377119D01*
X116876038Y-130458810D01*
X116897117Y-130724205D01*
X116951448Y-130906385D01*
X117053629Y-131049408D01*
X117219809Y-131155512D01*
X117434796Y-131214736D01*
X117771493Y-131238555D01*
X119214052Y-131238555D01*
X119550789Y-131214744D01*
X119766041Y-131155512D01*
X119932033Y-131049442D01*
X120034403Y-130906385D01*
X120088509Y-130724226D01*
X120109508Y-130458810D01*
X120109508Y-129377119D01*
X120088417Y-129112137D01*
X120034403Y-128932903D01*
X119932369Y-128792280D01*
X119766041Y-128685607D01*
X119550670Y-128625049D01*
X119214052Y-128600732D01*
X117771493Y-128600732D01*
X117434915Y-128625057D01*
X117219809Y-128685607D01*
X117053292Y-128792314D01*
X116951448Y-128932903D01*
X116897210Y-129112159D01*
X116876038Y-129377119D01*
X115365396Y-129377119D01*
X115365396Y-129316364D01*
X115392860Y-128799197D01*
X115466074Y-128406603D01*
X115573918Y-128113468D01*
X115694359Y-127915873D01*
X115846001Y-127750872D01*
X116031545Y-127615308D01*
X116255966Y-127508356D01*
X116577559Y-127417031D01*
X117011166Y-127354301D01*
X117583731Y-127330669D01*
X119405172Y-127330669D01*
X119977730Y-127354297D01*
G37*
D11*
X133980714Y-139871009D02*
X133837857Y-139918628D01*
X133837857Y-139918628D02*
X133790238Y-139966247D01*
X133790238Y-139966247D02*
X133742619Y-140061485D01*
X133742619Y-140061485D02*
X133742619Y-140204342D01*
X133742619Y-140204342D02*
X133790238Y-140299580D01*
X133790238Y-140299580D02*
X133837857Y-140347200D01*
X133837857Y-140347200D02*
X133933095Y-140394819D01*
X133933095Y-140394819D02*
X134314047Y-140394819D01*
X134314047Y-140394819D02*
X134314047Y-139394819D01*
X134314047Y-139394819D02*
X133980714Y-139394819D01*
X133980714Y-139394819D02*
X133885476Y-139442438D01*
X133885476Y-139442438D02*
X133837857Y-139490057D01*
X133837857Y-139490057D02*
X133790238Y-139585295D01*
X133790238Y-139585295D02*
X133790238Y-139680533D01*
X133790238Y-139680533D02*
X133837857Y-139775771D01*
X133837857Y-139775771D02*
X133885476Y-139823390D01*
X133885476Y-139823390D02*
X133980714Y-139871009D01*
X133980714Y-139871009D02*
X134314047Y-139871009D01*
X133456904Y-139394819D02*
X132885476Y-139394819D01*
X133171190Y-140394819D02*
X133171190Y-139394819D01*
X132028333Y-140394819D02*
X132599761Y-140394819D01*
X132314047Y-140394819D02*
X132314047Y-139394819D01*
X132314047Y-139394819D02*
X132409285Y-139537676D01*
X132409285Y-139537676D02*
X132504523Y-139632914D01*
X132504523Y-139632914D02*
X132599761Y-139680533D01*
X93587857Y-128187200D02*
X91302143Y-128187200D01*
X92445000Y-129330057D02*
X92445000Y-127044342D01*
D12*
%TO.C,G\u002A\u002A\u002A*%
G36*
X130913130Y-120521375D02*
G01*
X131532380Y-120521375D01*
X131673782Y-120521376D01*
X132389524Y-120521437D01*
X133017882Y-120521688D01*
X133564804Y-120522256D01*
X134036239Y-120523267D01*
X134438135Y-120524851D01*
X134776439Y-120527133D01*
X135057099Y-120530241D01*
X135286063Y-120534303D01*
X135469280Y-120539446D01*
X135612697Y-120545797D01*
X135722263Y-120553484D01*
X135803925Y-120562633D01*
X135863631Y-120573374D01*
X135907329Y-120585832D01*
X135940968Y-120600135D01*
X135970495Y-120616411D01*
X136015075Y-120647239D01*
X136140070Y-120770956D01*
X136241963Y-120918911D01*
X136243064Y-120920994D01*
X136270051Y-120973662D01*
X136292150Y-121026041D01*
X136309850Y-121087603D01*
X136323639Y-121167818D01*
X136334006Y-121276158D01*
X136341439Y-121422094D01*
X136346425Y-121615098D01*
X136349453Y-121864640D01*
X136351012Y-122180192D01*
X136351589Y-122571226D01*
X136351673Y-123047211D01*
X136351673Y-123066493D01*
X136351579Y-123539159D01*
X136350974Y-123927224D01*
X136349370Y-124240158D01*
X136346278Y-124487434D01*
X136341210Y-124678523D01*
X136333677Y-124822896D01*
X136323192Y-124930023D01*
X136309266Y-125009377D01*
X136291412Y-125070429D01*
X136269140Y-125122650D01*
X136241963Y-125175512D01*
X136208895Y-125231207D01*
X136093408Y-125375463D01*
X135970495Y-125478012D01*
X135965111Y-125481154D01*
X135935275Y-125497058D01*
X135900234Y-125511013D01*
X135854042Y-125523146D01*
X135790750Y-125533585D01*
X135704410Y-125542457D01*
X135589074Y-125549889D01*
X135438794Y-125556008D01*
X135247622Y-125560943D01*
X135009610Y-125564820D01*
X134718811Y-125567767D01*
X134369275Y-125569912D01*
X133955056Y-125571380D01*
X133470204Y-125572301D01*
X132908773Y-125572801D01*
X132264814Y-125573007D01*
X131532380Y-125573048D01*
X127256023Y-125573048D01*
X127089302Y-125445880D01*
X127054603Y-125418577D01*
X126934614Y-125301555D01*
X126852183Y-125167033D01*
X126801053Y-124995986D01*
X126774963Y-124769395D01*
X126767658Y-124468236D01*
X126767658Y-123944237D01*
X126507992Y-123944237D01*
X126478978Y-123944156D01*
X126330349Y-123937406D01*
X126221657Y-123910935D01*
X126146680Y-123852299D01*
X126099197Y-123749053D01*
X126072983Y-123588753D01*
X126061818Y-123358954D01*
X126059479Y-123047211D01*
X126059520Y-122989182D01*
X126062895Y-122691924D01*
X126075757Y-122480669D01*
X126389963Y-122480669D01*
X126389963Y-123047211D01*
X126389963Y-123613754D01*
X126578810Y-123613754D01*
X126767658Y-123613754D01*
X126767658Y-123189351D01*
X127098043Y-123189351D01*
X127099556Y-123565590D01*
X127102803Y-123924251D01*
X127107785Y-124252530D01*
X127114501Y-124537620D01*
X127122951Y-124766718D01*
X127133135Y-124927018D01*
X127145053Y-125005715D01*
X127159682Y-125044295D01*
X127177959Y-125084091D01*
X127203178Y-125118821D01*
X127241170Y-125148830D01*
X127297769Y-125174462D01*
X127378805Y-125196063D01*
X127490111Y-125213976D01*
X127637520Y-125228547D01*
X127826863Y-125240121D01*
X128063973Y-125249042D01*
X128354681Y-125255655D01*
X128704820Y-125260304D01*
X129120222Y-125263335D01*
X129606720Y-125265093D01*
X130170144Y-125265921D01*
X130816328Y-125266166D01*
X131551104Y-125266170D01*
X131865018Y-125266107D01*
X132616600Y-125265339D01*
X133278350Y-125263665D01*
X133853581Y-125261043D01*
X134345606Y-125257430D01*
X134757737Y-125252784D01*
X135093289Y-125247062D01*
X135355573Y-125240222D01*
X135547903Y-125232222D01*
X135673591Y-125223018D01*
X135735951Y-125212570D01*
X135849973Y-125149625D01*
X135955450Y-125001633D01*
X135958118Y-124994918D01*
X135975217Y-124930764D01*
X135989059Y-124832138D01*
X135999925Y-124690476D01*
X136008092Y-124497216D01*
X136013839Y-124243794D01*
X136017443Y-123921647D01*
X136019185Y-123522212D01*
X136019341Y-123036925D01*
X136019267Y-122967393D01*
X136018283Y-122484519D01*
X136015759Y-122086281D01*
X136010558Y-121764018D01*
X136001540Y-121509071D01*
X135987564Y-121312779D01*
X135967493Y-121166482D01*
X135940186Y-121061519D01*
X135904505Y-120989230D01*
X135859309Y-120940956D01*
X135803460Y-120908035D01*
X135735819Y-120881807D01*
X135719780Y-120877770D01*
X135634015Y-120867793D01*
X135483448Y-120859045D01*
X135264787Y-120851484D01*
X134974741Y-120845068D01*
X134610019Y-120839754D01*
X134167332Y-120835501D01*
X133643387Y-120832267D01*
X133034895Y-120830008D01*
X132338564Y-120828684D01*
X131551104Y-120828252D01*
X130913130Y-120828250D01*
X130254968Y-120828440D01*
X129680377Y-120829167D01*
X129183525Y-120830774D01*
X128758580Y-120833608D01*
X128399709Y-120838011D01*
X128101081Y-120844330D01*
X127856862Y-120852910D01*
X127661222Y-120864094D01*
X127508328Y-120878227D01*
X127392347Y-120895655D01*
X127307448Y-120916721D01*
X127247799Y-120941772D01*
X127207567Y-120971151D01*
X127180920Y-121005204D01*
X127162026Y-121044274D01*
X127145053Y-121088708D01*
X127136004Y-121139122D01*
X127125378Y-121279865D01*
X127116487Y-121492665D01*
X127109330Y-121764718D01*
X127103907Y-122083218D01*
X127100218Y-122435360D01*
X127098263Y-122808339D01*
X127098043Y-123189351D01*
X126767658Y-123189351D01*
X126767658Y-123047211D01*
X126767658Y-122480669D01*
X126578810Y-122480669D01*
X126389963Y-122480669D01*
X126075757Y-122480669D01*
X126076130Y-122474541D01*
X126105448Y-122324588D01*
X126157071Y-122229620D01*
X126237221Y-122177193D01*
X126352121Y-122154863D01*
X126507992Y-122150185D01*
X126578810Y-122150185D01*
X126767658Y-122150185D01*
X126767658Y-121626187D01*
X126768025Y-121546905D01*
X126779225Y-121265176D01*
X126810694Y-121053498D01*
X126868691Y-120892848D01*
X126959475Y-120764203D01*
X127089302Y-120648543D01*
X127256023Y-120521375D01*
X130913130Y-120521375D01*
G37*
G36*
X131809279Y-122345852D02*
G01*
X131815187Y-122488020D01*
X131829606Y-122676648D01*
X131848468Y-122816680D01*
X131869226Y-122885203D01*
X131891478Y-122904677D01*
X131963868Y-122914151D01*
X132091730Y-122878461D01*
X132223132Y-122831770D01*
X132595784Y-122700042D01*
X132889100Y-122597658D01*
X133110215Y-122522212D01*
X133266262Y-122471300D01*
X133364375Y-122442517D01*
X133411688Y-122433457D01*
X133434223Y-122436084D01*
X133470287Y-122468866D01*
X133469296Y-122476170D01*
X133460528Y-122492433D01*
X133435478Y-122518220D01*
X133385567Y-122560109D01*
X133302213Y-122624679D01*
X133176838Y-122718507D01*
X133000862Y-122848171D01*
X132765706Y-123020250D01*
X132462789Y-123241321D01*
X132387068Y-123296584D01*
X132137775Y-123478858D01*
X131889180Y-123661058D01*
X131666498Y-123824688D01*
X131494946Y-123951251D01*
X131402652Y-124018024D01*
X131257283Y-124116180D01*
X131150077Y-124179397D01*
X131099349Y-124196327D01*
X131087360Y-124158356D01*
X131075235Y-124042465D01*
X131066985Y-123869011D01*
X131063940Y-123658180D01*
X131063939Y-123651235D01*
X131060755Y-123411252D01*
X131050600Y-123253895D01*
X131032160Y-123167808D01*
X131004119Y-123141635D01*
X130992047Y-123143235D01*
X130902363Y-123166498D01*
X130747194Y-123213166D01*
X130544490Y-123277712D01*
X130312201Y-123354612D01*
X130228184Y-123382621D01*
X130009561Y-123452493D01*
X129829960Y-123505549D01*
X129706091Y-123537023D01*
X129654664Y-123542148D01*
X129650596Y-123536631D01*
X129652461Y-123513152D01*
X129680788Y-123474598D01*
X129742683Y-123415154D01*
X129845247Y-123329005D01*
X129995585Y-123210337D01*
X130200800Y-123053333D01*
X130467996Y-122852180D01*
X130804275Y-122601063D01*
X131795725Y-121862399D01*
X131809279Y-122345852D01*
G37*
%TO.C,BT1*%
D13*
X94105000Y-116900000D02*
X94105000Y-139100000D01*
X94105000Y-139100000D02*
X172285000Y-139100000D01*
X172285000Y-116900000D02*
X94105000Y-116900000D01*
X172285000Y-139100000D02*
X172285000Y-116900000D01*
%TD*%
M02*
