%TF.GenerationSoftware,KiCad,Pcbnew,10.0.4*%
%TF.CreationDate,2026-10-07T09:28:45+02:00*%
%TF.ProjectId,CE006_Config feu recompense,43453030-365f-4436-9f6e-666967206665,rev?*%
%TF.SameCoordinates,Original*%
%TF.FileFunction,Paste,Top*%
%TF.FilePolarity,Positive*%
%FSLAX46Y46*%
G04 Gerber Fmt 4.6, Leading zero omitted, Abs format (unit mm)*
G04 Created by KiCad (PCBNEW 10.0.4) date 2026-10-07 09:28:45*
%MOMM*%
%LPD*%
G01*
G04 APERTURE LIST*
G04 Aperture macros list*
%AMRoundRect*
0 Rectangle with rounded corners*
0 $1 Rounding radius*
0 $2 $3 $4 $5 $6 $7 $8 $9 X,Y pos of 4 corners*
0 Add a 4 corners polygon primitive as box body*
4,1,4,$2,$3,$4,$5,$6,$7,$8,$9,$2,$3,0*
0 Add four circle primitives for the rounded corners*
1,1,$1+$1,$2,$3*
1,1,$1+$1,$4,$5*
1,1,$1+$1,$6,$7*
1,1,$1+$1,$8,$9*
0 Add four rect primitives between the rounded corners*
20,1,$1+$1,$2,$3,$4,$5,0*
20,1,$1+$1,$4,$5,$6,$7,0*
20,1,$1+$1,$6,$7,$8,$9,0*
20,1,$1+$1,$8,$9,$2,$3,0*%
G04 Aperture macros list end*
%ADD10C,0.010000*%
%ADD11RoundRect,0.225000X0.225000X0.250000X-0.225000X0.250000X-0.225000X-0.250000X0.225000X-0.250000X0*%
%ADD12RoundRect,0.250000X0.325000X1.100000X-0.325000X1.100000X-0.325000X-1.100000X0.325000X-1.100000X0*%
%ADD13RoundRect,0.250000X0.262500X0.450000X-0.262500X0.450000X-0.262500X-0.450000X0.262500X-0.450000X0*%
%ADD14RoundRect,0.250000X-0.450000X0.262500X-0.450000X-0.262500X0.450000X-0.262500X0.450000X0.262500X0*%
%ADD15RoundRect,0.250000X-0.262500X-0.450000X0.262500X-0.450000X0.262500X0.450000X-0.262500X0.450000X0*%
%ADD16RoundRect,0.250000X-0.475000X0.337500X-0.475000X-0.337500X0.475000X-0.337500X0.475000X0.337500X0*%
%ADD17RoundRect,0.250000X0.450000X-0.262500X0.450000X0.262500X-0.450000X0.262500X-0.450000X-0.262500X0*%
%ADD18RoundRect,0.250000X0.475000X-0.250000X0.475000X0.250000X-0.475000X0.250000X-0.475000X-0.250000X0*%
%ADD19RoundRect,0.250000X0.475000X-0.337500X0.475000X0.337500X-0.475000X0.337500X-0.475000X-0.337500X0*%
%ADD20RoundRect,0.250000X-0.250000X-0.475000X0.250000X-0.475000X0.250000X0.475000X-0.250000X0.475000X0*%
%ADD21RoundRect,0.250000X0.250000X0.475000X-0.250000X0.475000X-0.250000X-0.475000X0.250000X-0.475000X0*%
%ADD22RoundRect,0.250000X-0.375000X-0.625000X0.375000X-0.625000X0.375000X0.625000X-0.375000X0.625000X0*%
%ADD23RoundRect,0.250000X0.325000X0.650000X-0.325000X0.650000X-0.325000X-0.650000X0.325000X-0.650000X0*%
%ADD24RoundRect,0.031250X0.268750X0.093750X-0.268750X0.093750X-0.268750X-0.093750X0.268750X-0.093750X0*%
%ADD25RoundRect,0.031250X0.093750X0.268750X-0.093750X0.268750X-0.093750X-0.268750X0.093750X-0.268750X0*%
%ADD26R,3.400000X0.980000*%
%ADD27RoundRect,0.250001X0.949999X-1.412499X0.949999X1.412499X-0.949999X1.412499X-0.949999X-1.412499X0*%
%ADD28RoundRect,0.150000X-0.825000X-0.150000X0.825000X-0.150000X0.825000X0.150000X-0.825000X0.150000X0*%
%ADD29RoundRect,0.250000X-0.325000X-1.100000X0.325000X-1.100000X0.325000X1.100000X-0.325000X1.100000X0*%
%ADD30RoundRect,0.250000X-0.475000X0.250000X-0.475000X-0.250000X0.475000X-0.250000X0.475000X0.250000X0*%
%ADD31RoundRect,0.250000X0.337500X0.475000X-0.337500X0.475000X-0.337500X-0.475000X0.337500X-0.475000X0*%
%ADD32RoundRect,0.250000X0.650000X-0.325000X0.650000X0.325000X-0.650000X0.325000X-0.650000X-0.325000X0*%
%ADD33RoundRect,0.147500X0.457500X0.147500X-0.457500X0.147500X-0.457500X-0.147500X0.457500X-0.147500X0*%
%ADD34RoundRect,0.162500X-0.750000X-0.162500X0.750000X-0.162500X0.750000X0.162500X-0.750000X0.162500X0*%
%ADD35RoundRect,0.150000X0.425000X-0.150000X0.425000X0.150000X-0.425000X0.150000X-0.425000X-0.150000X0*%
%ADD36RoundRect,0.075000X0.500000X-0.075000X0.500000X0.075000X-0.500000X0.075000X-0.500000X-0.075000X0*%
%ADD37O,2.100000X1.000000*%
%ADD38O,1.800000X1.000000*%
%ADD39RoundRect,0.093750X0.156250X0.093750X-0.156250X0.093750X-0.156250X-0.093750X0.156250X-0.093750X0*%
%ADD40RoundRect,0.075000X0.250000X0.075000X-0.250000X0.075000X-0.250000X-0.075000X0.250000X-0.075000X0*%
%ADD41RoundRect,0.075000X-0.662500X-0.075000X0.662500X-0.075000X0.662500X0.075000X-0.662500X0.075000X0*%
%ADD42RoundRect,0.075000X-0.075000X-0.662500X0.075000X-0.662500X0.075000X0.662500X-0.075000X0.662500X0*%
%ADD43RoundRect,0.150000X0.512500X0.150000X-0.512500X0.150000X-0.512500X-0.150000X0.512500X-0.150000X0*%
%ADD44RoundRect,0.225000X-0.250000X0.225000X-0.250000X-0.225000X0.250000X-0.225000X0.250000X0.225000X0*%
%ADD45RoundRect,0.160000X-0.160000X0.160000X-0.160000X-0.160000X0.160000X-0.160000X0.160000X0.160000X0*%
%ADD46RoundRect,0.062500X-0.062500X0.375000X-0.062500X-0.375000X0.062500X-0.375000X0.062500X0.375000X0*%
%ADD47RoundRect,0.062500X-0.375000X0.062500X-0.375000X-0.062500X0.375000X-0.062500X0.375000X0.062500X0*%
G04 APERTURE END LIST*
D10*
%TO.C,U4*%
X144587500Y-109325000D02*
X144587500Y-109175000D01*
X144587500Y-109172000D01*
X144587500Y-109170000D01*
X144586500Y-109167000D01*
X144586500Y-109165000D01*
X144585500Y-109162000D01*
X144585500Y-109160000D01*
X144584500Y-109157000D01*
X144583500Y-109155000D01*
X144582500Y-109152000D01*
X144580500Y-109150000D01*
X144579500Y-109148000D01*
X144577500Y-109146000D01*
X144576500Y-109144000D01*
X144574500Y-109142000D01*
X144572500Y-109140000D01*
X144570500Y-109138000D01*
X144568500Y-109136000D01*
X144566500Y-109135000D01*
X144564500Y-109133000D01*
X144562500Y-109132000D01*
X144560500Y-109130000D01*
X144557500Y-109129000D01*
X144555500Y-109128000D01*
X144552500Y-109127000D01*
X144550500Y-109127000D01*
X144547500Y-109126000D01*
X144545500Y-109126000D01*
X144542500Y-109125000D01*
X144540500Y-109125000D01*
X144537500Y-109125000D01*
X143917500Y-109125000D01*
X143914500Y-109125000D01*
X143912500Y-109125000D01*
X143909500Y-109126000D01*
X143907500Y-109126000D01*
X143904500Y-109127000D01*
X143902500Y-109127000D01*
X143899500Y-109128000D01*
X143897500Y-109129000D01*
X143894500Y-109130000D01*
X143892500Y-109132000D01*
X143890500Y-109133000D01*
X143888500Y-109135000D01*
X143886500Y-109136000D01*
X143884500Y-109138000D01*
X143882500Y-109140000D01*
X143880500Y-109142000D01*
X143878500Y-109144000D01*
X143877500Y-109146000D01*
X143875500Y-109148000D01*
X143874500Y-109150000D01*
X143872500Y-109152000D01*
X143871500Y-109155000D01*
X143870500Y-109157000D01*
X143869500Y-109160000D01*
X143869500Y-109162000D01*
X143868500Y-109165000D01*
X143868500Y-109167000D01*
X143867500Y-109170000D01*
X143867500Y-109172000D01*
X143867500Y-109175000D01*
X143867500Y-109325000D01*
X143867500Y-109328000D01*
X143867500Y-109330000D01*
X143868500Y-109333000D01*
X143868500Y-109335000D01*
X143869500Y-109338000D01*
X143869500Y-109340000D01*
X143870500Y-109343000D01*
X143871500Y-109345000D01*
X143872500Y-109348000D01*
X143874500Y-109350000D01*
X143875500Y-109352000D01*
X143877500Y-109354000D01*
X143878500Y-109356000D01*
X143880500Y-109358000D01*
X143882500Y-109360000D01*
X143884500Y-109362000D01*
X143886500Y-109364000D01*
X143888500Y-109365000D01*
X143890500Y-109367000D01*
X143892500Y-109368000D01*
X143894500Y-109370000D01*
X143897500Y-109371000D01*
X143899500Y-109372000D01*
X143902500Y-109373000D01*
X143904500Y-109373000D01*
X143907500Y-109374000D01*
X143909500Y-109374000D01*
X143912500Y-109375000D01*
X143914500Y-109375000D01*
X143917500Y-109375000D01*
X144537500Y-109375000D01*
X144540500Y-109375000D01*
X144542500Y-109375000D01*
X144545500Y-109374000D01*
X144547500Y-109374000D01*
X144550500Y-109373000D01*
X144552500Y-109373000D01*
X144555500Y-109372000D01*
X144557500Y-109371000D01*
X144560500Y-109370000D01*
X144562500Y-109368000D01*
X144564500Y-109367000D01*
X144566500Y-109365000D01*
X144568500Y-109364000D01*
X144570500Y-109362000D01*
X144572500Y-109360000D01*
X144574500Y-109358000D01*
X144576500Y-109356000D01*
X144577500Y-109354000D01*
X144579500Y-109352000D01*
X144580500Y-109350000D01*
X144582500Y-109348000D01*
X144583500Y-109345000D01*
X144584500Y-109343000D01*
X144585500Y-109340000D01*
X144585500Y-109338000D01*
X144586500Y-109335000D01*
X144586500Y-109333000D01*
X144587500Y-109330000D01*
X144587500Y-109328000D01*
X144587500Y-109325000D01*
G36*
X144545500Y-109126000D02*
G01*
X144547500Y-109126000D01*
X144550500Y-109127000D01*
X144552500Y-109127000D01*
X144555500Y-109128000D01*
X144557500Y-109129000D01*
X144560500Y-109130000D01*
X144562500Y-109132000D01*
X144564500Y-109133000D01*
X144566500Y-109135000D01*
X144568500Y-109136000D01*
X144570500Y-109138000D01*
X144572500Y-109140000D01*
X144574500Y-109142000D01*
X144576500Y-109144000D01*
X144577500Y-109146000D01*
X144579500Y-109148000D01*
X144580500Y-109150000D01*
X144582500Y-109152000D01*
X144583500Y-109155000D01*
X144584500Y-109157000D01*
X144585500Y-109160000D01*
X144585500Y-109162000D01*
X144586500Y-109165000D01*
X144586500Y-109167000D01*
X144587500Y-109170000D01*
X144587500Y-109172000D01*
X144587500Y-109175000D01*
X144587500Y-109325000D01*
X144587500Y-109328000D01*
X144587500Y-109330000D01*
X144586500Y-109333000D01*
X144586500Y-109335000D01*
X144585500Y-109338000D01*
X144585500Y-109340000D01*
X144584500Y-109343000D01*
X144583500Y-109345000D01*
X144582500Y-109348000D01*
X144580500Y-109350000D01*
X144579500Y-109352000D01*
X144577500Y-109354000D01*
X144576500Y-109356000D01*
X144574500Y-109358000D01*
X144572500Y-109360000D01*
X144570500Y-109362000D01*
X144568500Y-109364000D01*
X144566500Y-109365000D01*
X144564500Y-109367000D01*
X144562500Y-109368000D01*
X144560500Y-109370000D01*
X144557500Y-109371000D01*
X144555500Y-109372000D01*
X144552500Y-109373000D01*
X144550500Y-109373000D01*
X144547500Y-109374000D01*
X144545500Y-109374000D01*
X144542500Y-109375000D01*
X144540500Y-109375000D01*
X144537500Y-109375000D01*
X143917500Y-109375000D01*
X143914500Y-109375000D01*
X143912500Y-109375000D01*
X143909500Y-109374000D01*
X143907500Y-109374000D01*
X143904500Y-109373000D01*
X143902500Y-109373000D01*
X143899500Y-109372000D01*
X143897500Y-109371000D01*
X143894500Y-109370000D01*
X143892500Y-109368000D01*
X143890500Y-109367000D01*
X143888500Y-109365000D01*
X143886500Y-109364000D01*
X143884500Y-109362000D01*
X143882500Y-109360000D01*
X143880500Y-109358000D01*
X143878500Y-109356000D01*
X143877500Y-109354000D01*
X143875500Y-109352000D01*
X143874500Y-109350000D01*
X143872500Y-109348000D01*
X143871500Y-109345000D01*
X143870500Y-109343000D01*
X143869500Y-109340000D01*
X143869500Y-109338000D01*
X143868500Y-109335000D01*
X143868500Y-109333000D01*
X143867500Y-109330000D01*
X143867500Y-109328000D01*
X143867500Y-109325000D01*
X143867500Y-109175000D01*
X143867500Y-109172000D01*
X143867500Y-109170000D01*
X143868500Y-109167000D01*
X143868500Y-109165000D01*
X143869500Y-109162000D01*
X143869500Y-109160000D01*
X143870500Y-109157000D01*
X143871500Y-109155000D01*
X143872500Y-109152000D01*
X143874500Y-109150000D01*
X143875500Y-109148000D01*
X143877500Y-109146000D01*
X143878500Y-109144000D01*
X143880500Y-109142000D01*
X143882500Y-109140000D01*
X143884500Y-109138000D01*
X143886500Y-109136000D01*
X143888500Y-109135000D01*
X143890500Y-109133000D01*
X143892500Y-109132000D01*
X143894500Y-109130000D01*
X143897500Y-109129000D01*
X143899500Y-109128000D01*
X143902500Y-109127000D01*
X143904500Y-109127000D01*
X143907500Y-109126000D01*
X143909500Y-109126000D01*
X143912500Y-109125000D01*
X143914500Y-109125000D01*
X143917500Y-109125000D01*
X144537500Y-109125000D01*
X144540500Y-109125000D01*
X144542500Y-109125000D01*
X144545500Y-109126000D01*
G37*
X145507500Y-109325000D02*
X145507500Y-109175000D01*
X145507500Y-109172000D01*
X145507500Y-109170000D01*
X145506500Y-109167000D01*
X145506500Y-109165000D01*
X145505500Y-109162000D01*
X145505500Y-109160000D01*
X145504500Y-109157000D01*
X145503500Y-109155000D01*
X145502500Y-109152000D01*
X145500500Y-109150000D01*
X145499500Y-109148000D01*
X145497500Y-109146000D01*
X145496500Y-109144000D01*
X145494500Y-109142000D01*
X145492500Y-109140000D01*
X145490500Y-109138000D01*
X145488500Y-109136000D01*
X145486500Y-109135000D01*
X145484500Y-109133000D01*
X145482500Y-109132000D01*
X145480500Y-109130000D01*
X145477500Y-109129000D01*
X145475500Y-109128000D01*
X145472500Y-109127000D01*
X145470500Y-109127000D01*
X145467500Y-109126000D01*
X145465500Y-109126000D01*
X145462500Y-109125000D01*
X145460500Y-109125000D01*
X145457500Y-109125000D01*
X144837500Y-109125000D01*
X144834500Y-109125000D01*
X144832500Y-109125000D01*
X144829500Y-109126000D01*
X144827500Y-109126000D01*
X144824500Y-109127000D01*
X144822500Y-109127000D01*
X144819500Y-109128000D01*
X144817500Y-109129000D01*
X144814500Y-109130000D01*
X144812500Y-109132000D01*
X144810500Y-109133000D01*
X144808500Y-109135000D01*
X144806500Y-109136000D01*
X144804500Y-109138000D01*
X144802500Y-109140000D01*
X144800500Y-109142000D01*
X144798500Y-109144000D01*
X144797500Y-109146000D01*
X144795500Y-109148000D01*
X144794500Y-109150000D01*
X144792500Y-109152000D01*
X144791500Y-109155000D01*
X144790500Y-109157000D01*
X144789500Y-109160000D01*
X144789500Y-109162000D01*
X144788500Y-109165000D01*
X144788500Y-109167000D01*
X144787500Y-109170000D01*
X144787500Y-109172000D01*
X144787500Y-109175000D01*
X144787500Y-109325000D01*
X144787500Y-109328000D01*
X144787500Y-109330000D01*
X144788500Y-109333000D01*
X144788500Y-109335000D01*
X144789500Y-109338000D01*
X144789500Y-109340000D01*
X144790500Y-109343000D01*
X144791500Y-109345000D01*
X144792500Y-109348000D01*
X144794500Y-109350000D01*
X144795500Y-109352000D01*
X144797500Y-109354000D01*
X144798500Y-109356000D01*
X144800500Y-109358000D01*
X144802500Y-109360000D01*
X144804500Y-109362000D01*
X144806500Y-109364000D01*
X144808500Y-109365000D01*
X144810500Y-109367000D01*
X144812500Y-109368000D01*
X144814500Y-109370000D01*
X144817500Y-109371000D01*
X144819500Y-109372000D01*
X144822500Y-109373000D01*
X144824500Y-109373000D01*
X144827500Y-109374000D01*
X144829500Y-109374000D01*
X144832500Y-109375000D01*
X144834500Y-109375000D01*
X144837500Y-109375000D01*
X145457500Y-109375000D01*
X145460500Y-109375000D01*
X145462500Y-109375000D01*
X145465500Y-109374000D01*
X145467500Y-109374000D01*
X145470500Y-109373000D01*
X145472500Y-109373000D01*
X145475500Y-109372000D01*
X145477500Y-109371000D01*
X145480500Y-109370000D01*
X145482500Y-109368000D01*
X145484500Y-109367000D01*
X145486500Y-109365000D01*
X145488500Y-109364000D01*
X145490500Y-109362000D01*
X145492500Y-109360000D01*
X145494500Y-109358000D01*
X145496500Y-109356000D01*
X145497500Y-109354000D01*
X145499500Y-109352000D01*
X145500500Y-109350000D01*
X145502500Y-109348000D01*
X145503500Y-109345000D01*
X145504500Y-109343000D01*
X145505500Y-109340000D01*
X145505500Y-109338000D01*
X145506500Y-109335000D01*
X145506500Y-109333000D01*
X145507500Y-109330000D01*
X145507500Y-109328000D01*
X145507500Y-109325000D01*
G36*
X145465500Y-109126000D02*
G01*
X145467500Y-109126000D01*
X145470500Y-109127000D01*
X145472500Y-109127000D01*
X145475500Y-109128000D01*
X145477500Y-109129000D01*
X145480500Y-109130000D01*
X145482500Y-109132000D01*
X145484500Y-109133000D01*
X145486500Y-109135000D01*
X145488500Y-109136000D01*
X145490500Y-109138000D01*
X145492500Y-109140000D01*
X145494500Y-109142000D01*
X145496500Y-109144000D01*
X145497500Y-109146000D01*
X145499500Y-109148000D01*
X145500500Y-109150000D01*
X145502500Y-109152000D01*
X145503500Y-109155000D01*
X145504500Y-109157000D01*
X145505500Y-109160000D01*
X145505500Y-109162000D01*
X145506500Y-109165000D01*
X145506500Y-109167000D01*
X145507500Y-109170000D01*
X145507500Y-109172000D01*
X145507500Y-109175000D01*
X145507500Y-109325000D01*
X145507500Y-109328000D01*
X145507500Y-109330000D01*
X145506500Y-109333000D01*
X145506500Y-109335000D01*
X145505500Y-109338000D01*
X145505500Y-109340000D01*
X145504500Y-109343000D01*
X145503500Y-109345000D01*
X145502500Y-109348000D01*
X145500500Y-109350000D01*
X145499500Y-109352000D01*
X145497500Y-109354000D01*
X145496500Y-109356000D01*
X145494500Y-109358000D01*
X145492500Y-109360000D01*
X145490500Y-109362000D01*
X145488500Y-109364000D01*
X145486500Y-109365000D01*
X145484500Y-109367000D01*
X145482500Y-109368000D01*
X145480500Y-109370000D01*
X145477500Y-109371000D01*
X145475500Y-109372000D01*
X145472500Y-109373000D01*
X145470500Y-109373000D01*
X145467500Y-109374000D01*
X145465500Y-109374000D01*
X145462500Y-109375000D01*
X145460500Y-109375000D01*
X145457500Y-109375000D01*
X144837500Y-109375000D01*
X144834500Y-109375000D01*
X144832500Y-109375000D01*
X144829500Y-109374000D01*
X144827500Y-109374000D01*
X144824500Y-109373000D01*
X144822500Y-109373000D01*
X144819500Y-109372000D01*
X144817500Y-109371000D01*
X144814500Y-109370000D01*
X144812500Y-109368000D01*
X144810500Y-109367000D01*
X144808500Y-109365000D01*
X144806500Y-109364000D01*
X144804500Y-109362000D01*
X144802500Y-109360000D01*
X144800500Y-109358000D01*
X144798500Y-109356000D01*
X144797500Y-109354000D01*
X144795500Y-109352000D01*
X144794500Y-109350000D01*
X144792500Y-109348000D01*
X144791500Y-109345000D01*
X144790500Y-109343000D01*
X144789500Y-109340000D01*
X144789500Y-109338000D01*
X144788500Y-109335000D01*
X144788500Y-109333000D01*
X144787500Y-109330000D01*
X144787500Y-109328000D01*
X144787500Y-109325000D01*
X144787500Y-109175000D01*
X144787500Y-109172000D01*
X144787500Y-109170000D01*
X144788500Y-109167000D01*
X144788500Y-109165000D01*
X144789500Y-109162000D01*
X144789500Y-109160000D01*
X144790500Y-109157000D01*
X144791500Y-109155000D01*
X144792500Y-109152000D01*
X144794500Y-109150000D01*
X144795500Y-109148000D01*
X144797500Y-109146000D01*
X144798500Y-109144000D01*
X144800500Y-109142000D01*
X144802500Y-109140000D01*
X144804500Y-109138000D01*
X144806500Y-109136000D01*
X144808500Y-109135000D01*
X144810500Y-109133000D01*
X144812500Y-109132000D01*
X144814500Y-109130000D01*
X144817500Y-109129000D01*
X144819500Y-109128000D01*
X144822500Y-109127000D01*
X144824500Y-109127000D01*
X144827500Y-109126000D01*
X144829500Y-109126000D01*
X144832500Y-109125000D01*
X144834500Y-109125000D01*
X144837500Y-109125000D01*
X145457500Y-109125000D01*
X145460500Y-109125000D01*
X145462500Y-109125000D01*
X145465500Y-109126000D01*
G37*
X144412000Y-108825000D02*
X144412500Y-108675000D01*
X144411500Y-108672000D01*
X144411500Y-108670000D01*
X144411500Y-108667000D01*
X144410500Y-108665000D01*
X144410500Y-108662000D01*
X144409500Y-108660000D01*
X144408500Y-108657000D01*
X144407500Y-108655000D01*
X144406500Y-108652000D01*
X144405500Y-108650000D01*
X144403500Y-108648000D01*
X144402500Y-108646000D01*
X144400500Y-108644000D01*
X144399500Y-108642000D01*
X144397500Y-108640000D01*
X144395500Y-108638000D01*
X144393500Y-108636000D01*
X144391500Y-108635000D01*
X144389500Y-108633000D01*
X144387500Y-108632000D01*
X144384500Y-108630000D01*
X144382500Y-108629000D01*
X144379500Y-108628000D01*
X144377500Y-108627000D01*
X144374500Y-108627000D01*
X144372500Y-108626000D01*
X144369500Y-108626000D01*
X144367500Y-108625000D01*
X144364500Y-108625000D01*
X144362500Y-108625000D01*
X143886500Y-108625000D01*
X143884500Y-108625000D01*
X143881500Y-108625000D01*
X143879500Y-108626000D01*
X143876500Y-108626000D01*
X143874500Y-108627000D01*
X143871500Y-108627000D01*
X143869500Y-108628000D01*
X143866500Y-108629000D01*
X143864500Y-108630000D01*
X143862500Y-108632000D01*
X143859500Y-108633000D01*
X143857500Y-108635000D01*
X143855500Y-108636000D01*
X143853500Y-108638000D01*
X143851500Y-108640000D01*
X143849500Y-108642000D01*
X143848500Y-108644000D01*
X143846500Y-108646000D01*
X143845500Y-108648000D01*
X143843500Y-108650000D01*
X143842500Y-108652000D01*
X143841500Y-108655000D01*
X143840500Y-108657000D01*
X143839500Y-108660000D01*
X143838500Y-108662000D01*
X143838500Y-108665000D01*
X143837500Y-108667000D01*
X143837500Y-108670000D01*
X143837500Y-108672000D01*
X143837500Y-108675000D01*
X143837500Y-108825000D01*
X143837500Y-108828000D01*
X143837500Y-108830000D01*
X143837500Y-108833000D01*
X143838500Y-108835000D01*
X143838500Y-108838000D01*
X143839500Y-108840000D01*
X143840500Y-108843000D01*
X143841500Y-108845000D01*
X143842500Y-108848000D01*
X143843500Y-108850000D01*
X143845500Y-108852000D01*
X143846500Y-108854000D01*
X143848500Y-108856000D01*
X143849500Y-108858000D01*
X143851500Y-108860000D01*
X143853500Y-108862000D01*
X143855500Y-108864000D01*
X143857500Y-108865000D01*
X143859500Y-108867000D01*
X143862500Y-108868000D01*
X143864500Y-108870000D01*
X143866500Y-108871000D01*
X143869500Y-108872000D01*
X143871500Y-108873000D01*
X143874500Y-108873000D01*
X143876500Y-108874000D01*
X143879500Y-108874000D01*
X143881500Y-108875000D01*
X143884500Y-108875000D01*
X143886500Y-108875000D01*
X144362500Y-108875000D01*
X144364500Y-108875000D01*
X144367500Y-108875000D01*
X144369500Y-108874000D01*
X144372500Y-108874000D01*
X144374500Y-108873000D01*
X144377500Y-108873000D01*
X144379500Y-108872000D01*
X144382500Y-108871000D01*
X144384500Y-108870000D01*
X144387500Y-108868000D01*
X144389500Y-108867000D01*
X144391500Y-108865000D01*
X144393500Y-108864000D01*
X144395500Y-108862000D01*
X144397500Y-108860000D01*
X144399500Y-108858000D01*
X144400500Y-108856000D01*
X144402500Y-108854000D01*
X144403500Y-108852000D01*
X144405500Y-108850000D01*
X144406500Y-108848000D01*
X144407500Y-108845000D01*
X144408500Y-108843000D01*
X144409500Y-108840000D01*
X144410500Y-108838000D01*
X144410500Y-108835000D01*
X144411500Y-108833000D01*
X144411500Y-108830000D01*
X144411500Y-108828000D01*
X144412500Y-108825000D01*
X144412000Y-108825000D01*
G36*
X144369500Y-108626000D02*
G01*
X144372500Y-108626000D01*
X144374500Y-108627000D01*
X144377500Y-108627000D01*
X144379500Y-108628000D01*
X144382500Y-108629000D01*
X144384500Y-108630000D01*
X144387500Y-108632000D01*
X144389500Y-108633000D01*
X144391500Y-108635000D01*
X144393500Y-108636000D01*
X144395500Y-108638000D01*
X144397500Y-108640000D01*
X144399500Y-108642000D01*
X144400500Y-108644000D01*
X144402500Y-108646000D01*
X144403500Y-108648000D01*
X144405500Y-108650000D01*
X144406500Y-108652000D01*
X144407500Y-108655000D01*
X144408500Y-108657000D01*
X144409500Y-108660000D01*
X144410500Y-108662000D01*
X144410500Y-108665000D01*
X144411500Y-108667000D01*
X144411500Y-108670000D01*
X144411500Y-108672000D01*
X144412500Y-108675000D01*
X144412000Y-108825000D01*
X144412500Y-108825000D01*
X144411500Y-108828000D01*
X144411500Y-108830000D01*
X144411500Y-108833000D01*
X144410500Y-108835000D01*
X144410500Y-108838000D01*
X144409500Y-108840000D01*
X144408500Y-108843000D01*
X144407500Y-108845000D01*
X144406500Y-108848000D01*
X144405500Y-108850000D01*
X144403500Y-108852000D01*
X144402500Y-108854000D01*
X144400500Y-108856000D01*
X144399500Y-108858000D01*
X144397500Y-108860000D01*
X144395500Y-108862000D01*
X144393500Y-108864000D01*
X144391500Y-108865000D01*
X144389500Y-108867000D01*
X144387500Y-108868000D01*
X144384500Y-108870000D01*
X144382500Y-108871000D01*
X144379500Y-108872000D01*
X144377500Y-108873000D01*
X144374500Y-108873000D01*
X144372500Y-108874000D01*
X144369500Y-108874000D01*
X144367500Y-108875000D01*
X144364500Y-108875000D01*
X144362500Y-108875000D01*
X143886500Y-108875000D01*
X143884500Y-108875000D01*
X143881500Y-108875000D01*
X143879500Y-108874000D01*
X143876500Y-108874000D01*
X143874500Y-108873000D01*
X143871500Y-108873000D01*
X143869500Y-108872000D01*
X143866500Y-108871000D01*
X143864500Y-108870000D01*
X143862500Y-108868000D01*
X143859500Y-108867000D01*
X143857500Y-108865000D01*
X143855500Y-108864000D01*
X143853500Y-108862000D01*
X143851500Y-108860000D01*
X143849500Y-108858000D01*
X143848500Y-108856000D01*
X143846500Y-108854000D01*
X143845500Y-108852000D01*
X143843500Y-108850000D01*
X143842500Y-108848000D01*
X143841500Y-108845000D01*
X143840500Y-108843000D01*
X143839500Y-108840000D01*
X143838500Y-108838000D01*
X143838500Y-108835000D01*
X143837500Y-108833000D01*
X143837500Y-108830000D01*
X143837500Y-108828000D01*
X143837500Y-108825000D01*
X143837500Y-108675000D01*
X143837500Y-108672000D01*
X143837500Y-108670000D01*
X143837500Y-108667000D01*
X143838500Y-108665000D01*
X143838500Y-108662000D01*
X143839500Y-108660000D01*
X143840500Y-108657000D01*
X143841500Y-108655000D01*
X143842500Y-108652000D01*
X143843500Y-108650000D01*
X143845500Y-108648000D01*
X143846500Y-108646000D01*
X143848500Y-108644000D01*
X143849500Y-108642000D01*
X143851500Y-108640000D01*
X143853500Y-108638000D01*
X143855500Y-108636000D01*
X143857500Y-108635000D01*
X143859500Y-108633000D01*
X143862500Y-108632000D01*
X143864500Y-108630000D01*
X143866500Y-108629000D01*
X143869500Y-108628000D01*
X143871500Y-108627000D01*
X143874500Y-108627000D01*
X143876500Y-108626000D01*
X143879500Y-108626000D01*
X143881500Y-108625000D01*
X143884500Y-108625000D01*
X143886500Y-108625000D01*
X144362500Y-108625000D01*
X144364500Y-108625000D01*
X144367500Y-108625000D01*
X144369500Y-108626000D01*
G37*
X144412000Y-109825000D02*
X144412500Y-109675000D01*
X144411500Y-109672000D01*
X144411500Y-109670000D01*
X144411500Y-109667000D01*
X144410500Y-109665000D01*
X144410500Y-109662000D01*
X144409500Y-109660000D01*
X144408500Y-109657000D01*
X144407500Y-109655000D01*
X144406500Y-109652000D01*
X144405500Y-109650000D01*
X144403500Y-109648000D01*
X144402500Y-109646000D01*
X144400500Y-109644000D01*
X144399500Y-109642000D01*
X144397500Y-109640000D01*
X144395500Y-109638000D01*
X144393500Y-109636000D01*
X144391500Y-109635000D01*
X144389500Y-109633000D01*
X144387500Y-109632000D01*
X144384500Y-109630000D01*
X144382500Y-109629000D01*
X144379500Y-109628000D01*
X144377500Y-109627000D01*
X144374500Y-109627000D01*
X144372500Y-109626000D01*
X144369500Y-109626000D01*
X144367500Y-109625000D01*
X144364500Y-109625000D01*
X144362500Y-109625000D01*
X143886500Y-109625000D01*
X143884500Y-109625000D01*
X143881500Y-109625000D01*
X143879500Y-109626000D01*
X143876500Y-109626000D01*
X143874500Y-109627000D01*
X143871500Y-109627000D01*
X143869500Y-109628000D01*
X143866500Y-109629000D01*
X143864500Y-109630000D01*
X143862500Y-109632000D01*
X143859500Y-109633000D01*
X143857500Y-109635000D01*
X143855500Y-109636000D01*
X143853500Y-109638000D01*
X143851500Y-109640000D01*
X143849500Y-109642000D01*
X143848500Y-109644000D01*
X143846500Y-109646000D01*
X143845500Y-109648000D01*
X143843500Y-109650000D01*
X143842500Y-109652000D01*
X143841500Y-109655000D01*
X143840500Y-109657000D01*
X143839500Y-109660000D01*
X143838500Y-109662000D01*
X143838500Y-109665000D01*
X143837500Y-109667000D01*
X143837500Y-109670000D01*
X143837500Y-109672000D01*
X143837500Y-109675000D01*
X143837500Y-109825000D01*
X143837500Y-109828000D01*
X143837500Y-109830000D01*
X143837500Y-109833000D01*
X143838500Y-109835000D01*
X143838500Y-109838000D01*
X143839500Y-109840000D01*
X143840500Y-109843000D01*
X143841500Y-109845000D01*
X143842500Y-109848000D01*
X143843500Y-109850000D01*
X143845500Y-109852000D01*
X143846500Y-109854000D01*
X143848500Y-109856000D01*
X143849500Y-109858000D01*
X143851500Y-109860000D01*
X143853500Y-109862000D01*
X143855500Y-109864000D01*
X143857500Y-109865000D01*
X143859500Y-109867000D01*
X143862500Y-109868000D01*
X143864500Y-109870000D01*
X143866500Y-109871000D01*
X143869500Y-109872000D01*
X143871500Y-109873000D01*
X143874500Y-109873000D01*
X143876500Y-109874000D01*
X143879500Y-109874000D01*
X143881500Y-109875000D01*
X143884500Y-109875000D01*
X143886500Y-109875000D01*
X144362500Y-109875000D01*
X144364500Y-109875000D01*
X144367500Y-109875000D01*
X144369500Y-109874000D01*
X144372500Y-109874000D01*
X144374500Y-109873000D01*
X144377500Y-109873000D01*
X144379500Y-109872000D01*
X144382500Y-109871000D01*
X144384500Y-109870000D01*
X144387500Y-109868000D01*
X144389500Y-109867000D01*
X144391500Y-109865000D01*
X144393500Y-109864000D01*
X144395500Y-109862000D01*
X144397500Y-109860000D01*
X144399500Y-109858000D01*
X144400500Y-109856000D01*
X144402500Y-109854000D01*
X144403500Y-109852000D01*
X144405500Y-109850000D01*
X144406500Y-109848000D01*
X144407500Y-109845000D01*
X144408500Y-109843000D01*
X144409500Y-109840000D01*
X144410500Y-109838000D01*
X144410500Y-109835000D01*
X144411500Y-109833000D01*
X144411500Y-109830000D01*
X144411500Y-109828000D01*
X144412500Y-109825000D01*
X144412000Y-109825000D01*
G36*
X144369500Y-109626000D02*
G01*
X144372500Y-109626000D01*
X144374500Y-109627000D01*
X144377500Y-109627000D01*
X144379500Y-109628000D01*
X144382500Y-109629000D01*
X144384500Y-109630000D01*
X144387500Y-109632000D01*
X144389500Y-109633000D01*
X144391500Y-109635000D01*
X144393500Y-109636000D01*
X144395500Y-109638000D01*
X144397500Y-109640000D01*
X144399500Y-109642000D01*
X144400500Y-109644000D01*
X144402500Y-109646000D01*
X144403500Y-109648000D01*
X144405500Y-109650000D01*
X144406500Y-109652000D01*
X144407500Y-109655000D01*
X144408500Y-109657000D01*
X144409500Y-109660000D01*
X144410500Y-109662000D01*
X144410500Y-109665000D01*
X144411500Y-109667000D01*
X144411500Y-109670000D01*
X144411500Y-109672000D01*
X144412500Y-109675000D01*
X144412000Y-109825000D01*
X144412500Y-109825000D01*
X144411500Y-109828000D01*
X144411500Y-109830000D01*
X144411500Y-109833000D01*
X144410500Y-109835000D01*
X144410500Y-109838000D01*
X144409500Y-109840000D01*
X144408500Y-109843000D01*
X144407500Y-109845000D01*
X144406500Y-109848000D01*
X144405500Y-109850000D01*
X144403500Y-109852000D01*
X144402500Y-109854000D01*
X144400500Y-109856000D01*
X144399500Y-109858000D01*
X144397500Y-109860000D01*
X144395500Y-109862000D01*
X144393500Y-109864000D01*
X144391500Y-109865000D01*
X144389500Y-109867000D01*
X144387500Y-109868000D01*
X144384500Y-109870000D01*
X144382500Y-109871000D01*
X144379500Y-109872000D01*
X144377500Y-109873000D01*
X144374500Y-109873000D01*
X144372500Y-109874000D01*
X144369500Y-109874000D01*
X144367500Y-109875000D01*
X144364500Y-109875000D01*
X144362500Y-109875000D01*
X143886500Y-109875000D01*
X143884500Y-109875000D01*
X143881500Y-109875000D01*
X143879500Y-109874000D01*
X143876500Y-109874000D01*
X143874500Y-109873000D01*
X143871500Y-109873000D01*
X143869500Y-109872000D01*
X143866500Y-109871000D01*
X143864500Y-109870000D01*
X143862500Y-109868000D01*
X143859500Y-109867000D01*
X143857500Y-109865000D01*
X143855500Y-109864000D01*
X143853500Y-109862000D01*
X143851500Y-109860000D01*
X143849500Y-109858000D01*
X143848500Y-109856000D01*
X143846500Y-109854000D01*
X143845500Y-109852000D01*
X143843500Y-109850000D01*
X143842500Y-109848000D01*
X143841500Y-109845000D01*
X143840500Y-109843000D01*
X143839500Y-109840000D01*
X143838500Y-109838000D01*
X143838500Y-109835000D01*
X143837500Y-109833000D01*
X143837500Y-109830000D01*
X143837500Y-109828000D01*
X143837500Y-109825000D01*
X143837500Y-109675000D01*
X143837500Y-109672000D01*
X143837500Y-109670000D01*
X143837500Y-109667000D01*
X143838500Y-109665000D01*
X143838500Y-109662000D01*
X143839500Y-109660000D01*
X143840500Y-109657000D01*
X143841500Y-109655000D01*
X143842500Y-109652000D01*
X143843500Y-109650000D01*
X143845500Y-109648000D01*
X143846500Y-109646000D01*
X143848500Y-109644000D01*
X143849500Y-109642000D01*
X143851500Y-109640000D01*
X143853500Y-109638000D01*
X143855500Y-109636000D01*
X143857500Y-109635000D01*
X143859500Y-109633000D01*
X143862500Y-109632000D01*
X143864500Y-109630000D01*
X143866500Y-109629000D01*
X143869500Y-109628000D01*
X143871500Y-109627000D01*
X143874500Y-109627000D01*
X143876500Y-109626000D01*
X143879500Y-109626000D01*
X143881500Y-109625000D01*
X143884500Y-109625000D01*
X143886500Y-109625000D01*
X144362500Y-109625000D01*
X144364500Y-109625000D01*
X144367500Y-109625000D01*
X144369500Y-109626000D01*
G37*
X145187000Y-108825000D02*
X145186500Y-108675000D01*
X145186500Y-108672000D01*
X145186500Y-108670000D01*
X145186500Y-108667000D01*
X145185500Y-108665000D01*
X145185500Y-108662000D01*
X145184500Y-108660000D01*
X145183500Y-108657000D01*
X145182500Y-108655000D01*
X145181500Y-108652000D01*
X145180500Y-108650000D01*
X145178500Y-108648000D01*
X145177500Y-108646000D01*
X145175500Y-108644000D01*
X145174500Y-108642000D01*
X145172500Y-108640000D01*
X145170500Y-108638000D01*
X145168500Y-108636000D01*
X145166500Y-108635000D01*
X145164500Y-108633000D01*
X145161500Y-108632000D01*
X145159500Y-108630000D01*
X145157500Y-108629000D01*
X145154500Y-108628000D01*
X145152500Y-108627000D01*
X145149500Y-108627000D01*
X145147500Y-108626000D01*
X145144500Y-108626000D01*
X145142500Y-108625000D01*
X145139500Y-108625000D01*
X145137500Y-108625000D01*
X144662500Y-108625000D01*
X144659500Y-108625000D01*
X144656500Y-108625000D01*
X144654500Y-108626000D01*
X144651500Y-108626000D01*
X144649500Y-108627000D01*
X144646500Y-108627000D01*
X144644500Y-108628000D01*
X144641500Y-108629000D01*
X144639500Y-108630000D01*
X144637500Y-108632000D01*
X144634500Y-108633000D01*
X144632500Y-108635000D01*
X144630500Y-108636000D01*
X144628500Y-108638000D01*
X144626500Y-108640000D01*
X144624500Y-108642000D01*
X144623500Y-108644000D01*
X144621500Y-108646000D01*
X144620500Y-108648000D01*
X144618500Y-108650000D01*
X144617500Y-108652000D01*
X144616500Y-108655000D01*
X144615500Y-108657000D01*
X144614500Y-108660000D01*
X144613500Y-108662000D01*
X144613500Y-108665000D01*
X144612500Y-108667000D01*
X144612500Y-108670000D01*
X144612500Y-108672000D01*
X144612500Y-108675000D01*
X144612500Y-108825000D01*
X144612500Y-108828000D01*
X144612500Y-108830000D01*
X144612500Y-108833000D01*
X144613500Y-108835000D01*
X144613500Y-108838000D01*
X144614500Y-108840000D01*
X144615500Y-108843000D01*
X144616500Y-108845000D01*
X144617500Y-108848000D01*
X144618500Y-108850000D01*
X144620500Y-108852000D01*
X144621500Y-108854000D01*
X144623500Y-108856000D01*
X144624500Y-108858000D01*
X144626500Y-108860000D01*
X144628500Y-108862000D01*
X144630500Y-108864000D01*
X144632500Y-108865000D01*
X144634500Y-108867000D01*
X144637500Y-108868000D01*
X144639500Y-108870000D01*
X144641500Y-108871000D01*
X144644500Y-108872000D01*
X144646500Y-108873000D01*
X144649500Y-108873000D01*
X144651500Y-108874000D01*
X144654500Y-108874000D01*
X144656500Y-108875000D01*
X144659500Y-108875000D01*
X144662500Y-108875000D01*
X145137500Y-108875000D01*
X145139500Y-108875000D01*
X145142500Y-108875000D01*
X145144500Y-108874000D01*
X145147500Y-108874000D01*
X145149500Y-108873000D01*
X145152500Y-108873000D01*
X145154500Y-108872000D01*
X145157500Y-108871000D01*
X145159500Y-108870000D01*
X145161500Y-108868000D01*
X145164500Y-108867000D01*
X145166500Y-108865000D01*
X145168500Y-108864000D01*
X145170500Y-108862000D01*
X145172500Y-108860000D01*
X145174500Y-108858000D01*
X145175500Y-108856000D01*
X145177500Y-108854000D01*
X145178500Y-108852000D01*
X145180500Y-108850000D01*
X145181500Y-108848000D01*
X145182500Y-108845000D01*
X145183500Y-108843000D01*
X145184500Y-108840000D01*
X145185500Y-108838000D01*
X145185500Y-108835000D01*
X145186500Y-108833000D01*
X145186500Y-108830000D01*
X145186500Y-108828000D01*
X145186500Y-108825000D01*
X145187000Y-108825000D01*
G36*
X145144500Y-108626000D02*
G01*
X145147500Y-108626000D01*
X145149500Y-108627000D01*
X145152500Y-108627000D01*
X145154500Y-108628000D01*
X145157500Y-108629000D01*
X145159500Y-108630000D01*
X145161500Y-108632000D01*
X145164500Y-108633000D01*
X145166500Y-108635000D01*
X145168500Y-108636000D01*
X145170500Y-108638000D01*
X145172500Y-108640000D01*
X145174500Y-108642000D01*
X145175500Y-108644000D01*
X145177500Y-108646000D01*
X145178500Y-108648000D01*
X145180500Y-108650000D01*
X145181500Y-108652000D01*
X145182500Y-108655000D01*
X145183500Y-108657000D01*
X145184500Y-108660000D01*
X145185500Y-108662000D01*
X145185500Y-108665000D01*
X145186500Y-108667000D01*
X145186500Y-108670000D01*
X145186500Y-108672000D01*
X145186500Y-108675000D01*
X145187000Y-108825000D01*
X145186500Y-108825000D01*
X145186500Y-108828000D01*
X145186500Y-108830000D01*
X145186500Y-108833000D01*
X145185500Y-108835000D01*
X145185500Y-108838000D01*
X145184500Y-108840000D01*
X145183500Y-108843000D01*
X145182500Y-108845000D01*
X145181500Y-108848000D01*
X145180500Y-108850000D01*
X145178500Y-108852000D01*
X145177500Y-108854000D01*
X145175500Y-108856000D01*
X145174500Y-108858000D01*
X145172500Y-108860000D01*
X145170500Y-108862000D01*
X145168500Y-108864000D01*
X145166500Y-108865000D01*
X145164500Y-108867000D01*
X145161500Y-108868000D01*
X145159500Y-108870000D01*
X145157500Y-108871000D01*
X145154500Y-108872000D01*
X145152500Y-108873000D01*
X145149500Y-108873000D01*
X145147500Y-108874000D01*
X145144500Y-108874000D01*
X145142500Y-108875000D01*
X145139500Y-108875000D01*
X145137500Y-108875000D01*
X144662500Y-108875000D01*
X144659500Y-108875000D01*
X144656500Y-108875000D01*
X144654500Y-108874000D01*
X144651500Y-108874000D01*
X144649500Y-108873000D01*
X144646500Y-108873000D01*
X144644500Y-108872000D01*
X144641500Y-108871000D01*
X144639500Y-108870000D01*
X144637500Y-108868000D01*
X144634500Y-108867000D01*
X144632500Y-108865000D01*
X144630500Y-108864000D01*
X144628500Y-108862000D01*
X144626500Y-108860000D01*
X144624500Y-108858000D01*
X144623500Y-108856000D01*
X144621500Y-108854000D01*
X144620500Y-108852000D01*
X144618500Y-108850000D01*
X144617500Y-108848000D01*
X144616500Y-108845000D01*
X144615500Y-108843000D01*
X144614500Y-108840000D01*
X144613500Y-108838000D01*
X144613500Y-108835000D01*
X144612500Y-108833000D01*
X144612500Y-108830000D01*
X144612500Y-108828000D01*
X144612500Y-108825000D01*
X144612500Y-108675000D01*
X144612500Y-108672000D01*
X144612500Y-108670000D01*
X144612500Y-108667000D01*
X144613500Y-108665000D01*
X144613500Y-108662000D01*
X144614500Y-108660000D01*
X144615500Y-108657000D01*
X144616500Y-108655000D01*
X144617500Y-108652000D01*
X144618500Y-108650000D01*
X144620500Y-108648000D01*
X144621500Y-108646000D01*
X144623500Y-108644000D01*
X144624500Y-108642000D01*
X144626500Y-108640000D01*
X144628500Y-108638000D01*
X144630500Y-108636000D01*
X144632500Y-108635000D01*
X144634500Y-108633000D01*
X144637500Y-108632000D01*
X144639500Y-108630000D01*
X144641500Y-108629000D01*
X144644500Y-108628000D01*
X144646500Y-108627000D01*
X144649500Y-108627000D01*
X144651500Y-108626000D01*
X144654500Y-108626000D01*
X144656500Y-108625000D01*
X144659500Y-108625000D01*
X144662500Y-108625000D01*
X145137500Y-108625000D01*
X145139500Y-108625000D01*
X145142500Y-108625000D01*
X145144500Y-108626000D01*
G37*
X145187000Y-109825000D02*
X145186500Y-109675000D01*
X145186500Y-109672000D01*
X145186500Y-109670000D01*
X145186500Y-109667000D01*
X145185500Y-109665000D01*
X145185500Y-109662000D01*
X145184500Y-109660000D01*
X145183500Y-109657000D01*
X145182500Y-109655000D01*
X145181500Y-109652000D01*
X145180500Y-109650000D01*
X145178500Y-109648000D01*
X145177500Y-109646000D01*
X145175500Y-109644000D01*
X145174500Y-109642000D01*
X145172500Y-109640000D01*
X145170500Y-109638000D01*
X145168500Y-109636000D01*
X145166500Y-109635000D01*
X145164500Y-109633000D01*
X145161500Y-109632000D01*
X145159500Y-109630000D01*
X145157500Y-109629000D01*
X145154500Y-109628000D01*
X145152500Y-109627000D01*
X145149500Y-109627000D01*
X145147500Y-109626000D01*
X145144500Y-109626000D01*
X145142500Y-109625000D01*
X145139500Y-109625000D01*
X145137500Y-109625000D01*
X144662500Y-109625000D01*
X144659500Y-109625000D01*
X144656500Y-109625000D01*
X144654500Y-109626000D01*
X144651500Y-109626000D01*
X144649500Y-109627000D01*
X144646500Y-109627000D01*
X144644500Y-109628000D01*
X144641500Y-109629000D01*
X144639500Y-109630000D01*
X144637500Y-109632000D01*
X144634500Y-109633000D01*
X144632500Y-109635000D01*
X144630500Y-109636000D01*
X144628500Y-109638000D01*
X144626500Y-109640000D01*
X144624500Y-109642000D01*
X144623500Y-109644000D01*
X144621500Y-109646000D01*
X144620500Y-109648000D01*
X144618500Y-109650000D01*
X144617500Y-109652000D01*
X144616500Y-109655000D01*
X144615500Y-109657000D01*
X144614500Y-109660000D01*
X144613500Y-109662000D01*
X144613500Y-109665000D01*
X144612500Y-109667000D01*
X144612500Y-109670000D01*
X144612500Y-109672000D01*
X144612500Y-109675000D01*
X144612500Y-109825000D01*
X144612500Y-109828000D01*
X144612500Y-109830000D01*
X144612500Y-109833000D01*
X144613500Y-109835000D01*
X144613500Y-109838000D01*
X144614500Y-109840000D01*
X144615500Y-109843000D01*
X144616500Y-109845000D01*
X144617500Y-109848000D01*
X144618500Y-109850000D01*
X144620500Y-109852000D01*
X144621500Y-109854000D01*
X144623500Y-109856000D01*
X144624500Y-109858000D01*
X144626500Y-109860000D01*
X144628500Y-109862000D01*
X144630500Y-109864000D01*
X144632500Y-109865000D01*
X144634500Y-109867000D01*
X144637500Y-109868000D01*
X144639500Y-109870000D01*
X144641500Y-109871000D01*
X144644500Y-109872000D01*
X144646500Y-109873000D01*
X144649500Y-109873000D01*
X144651500Y-109874000D01*
X144654500Y-109874000D01*
X144656500Y-109875000D01*
X144659500Y-109875000D01*
X144662500Y-109875000D01*
X145137500Y-109875000D01*
X145139500Y-109875000D01*
X145142500Y-109875000D01*
X145144500Y-109874000D01*
X145147500Y-109874000D01*
X145149500Y-109873000D01*
X145152500Y-109873000D01*
X145154500Y-109872000D01*
X145157500Y-109871000D01*
X145159500Y-109870000D01*
X145161500Y-109868000D01*
X145164500Y-109867000D01*
X145166500Y-109865000D01*
X145168500Y-109864000D01*
X145170500Y-109862000D01*
X145172500Y-109860000D01*
X145174500Y-109858000D01*
X145175500Y-109856000D01*
X145177500Y-109854000D01*
X145178500Y-109852000D01*
X145180500Y-109850000D01*
X145181500Y-109848000D01*
X145182500Y-109845000D01*
X145183500Y-109843000D01*
X145184500Y-109840000D01*
X145185500Y-109838000D01*
X145185500Y-109835000D01*
X145186500Y-109833000D01*
X145186500Y-109830000D01*
X145186500Y-109828000D01*
X145186500Y-109825000D01*
X145187000Y-109825000D01*
G36*
X145144500Y-109626000D02*
G01*
X145147500Y-109626000D01*
X145149500Y-109627000D01*
X145152500Y-109627000D01*
X145154500Y-109628000D01*
X145157500Y-109629000D01*
X145159500Y-109630000D01*
X145161500Y-109632000D01*
X145164500Y-109633000D01*
X145166500Y-109635000D01*
X145168500Y-109636000D01*
X145170500Y-109638000D01*
X145172500Y-109640000D01*
X145174500Y-109642000D01*
X145175500Y-109644000D01*
X145177500Y-109646000D01*
X145178500Y-109648000D01*
X145180500Y-109650000D01*
X145181500Y-109652000D01*
X145182500Y-109655000D01*
X145183500Y-109657000D01*
X145184500Y-109660000D01*
X145185500Y-109662000D01*
X145185500Y-109665000D01*
X145186500Y-109667000D01*
X145186500Y-109670000D01*
X145186500Y-109672000D01*
X145186500Y-109675000D01*
X145187000Y-109825000D01*
X145186500Y-109825000D01*
X145186500Y-109828000D01*
X145186500Y-109830000D01*
X145186500Y-109833000D01*
X145185500Y-109835000D01*
X145185500Y-109838000D01*
X145184500Y-109840000D01*
X145183500Y-109843000D01*
X145182500Y-109845000D01*
X145181500Y-109848000D01*
X145180500Y-109850000D01*
X145178500Y-109852000D01*
X145177500Y-109854000D01*
X145175500Y-109856000D01*
X145174500Y-109858000D01*
X145172500Y-109860000D01*
X145170500Y-109862000D01*
X145168500Y-109864000D01*
X145166500Y-109865000D01*
X145164500Y-109867000D01*
X145161500Y-109868000D01*
X145159500Y-109870000D01*
X145157500Y-109871000D01*
X145154500Y-109872000D01*
X145152500Y-109873000D01*
X145149500Y-109873000D01*
X145147500Y-109874000D01*
X145144500Y-109874000D01*
X145142500Y-109875000D01*
X145139500Y-109875000D01*
X145137500Y-109875000D01*
X144662500Y-109875000D01*
X144659500Y-109875000D01*
X144656500Y-109875000D01*
X144654500Y-109874000D01*
X144651500Y-109874000D01*
X144649500Y-109873000D01*
X144646500Y-109873000D01*
X144644500Y-109872000D01*
X144641500Y-109871000D01*
X144639500Y-109870000D01*
X144637500Y-109868000D01*
X144634500Y-109867000D01*
X144632500Y-109865000D01*
X144630500Y-109864000D01*
X144628500Y-109862000D01*
X144626500Y-109860000D01*
X144624500Y-109858000D01*
X144623500Y-109856000D01*
X144621500Y-109854000D01*
X144620500Y-109852000D01*
X144618500Y-109850000D01*
X144617500Y-109848000D01*
X144616500Y-109845000D01*
X144615500Y-109843000D01*
X144614500Y-109840000D01*
X144613500Y-109838000D01*
X144613500Y-109835000D01*
X144612500Y-109833000D01*
X144612500Y-109830000D01*
X144612500Y-109828000D01*
X144612500Y-109825000D01*
X144612500Y-109675000D01*
X144612500Y-109672000D01*
X144612500Y-109670000D01*
X144612500Y-109667000D01*
X144613500Y-109665000D01*
X144613500Y-109662000D01*
X144614500Y-109660000D01*
X144615500Y-109657000D01*
X144616500Y-109655000D01*
X144617500Y-109652000D01*
X144618500Y-109650000D01*
X144620500Y-109648000D01*
X144621500Y-109646000D01*
X144623500Y-109644000D01*
X144624500Y-109642000D01*
X144626500Y-109640000D01*
X144628500Y-109638000D01*
X144630500Y-109636000D01*
X144632500Y-109635000D01*
X144634500Y-109633000D01*
X144637500Y-109632000D01*
X144639500Y-109630000D01*
X144641500Y-109629000D01*
X144644500Y-109628000D01*
X144646500Y-109627000D01*
X144649500Y-109627000D01*
X144651500Y-109626000D01*
X144654500Y-109626000D01*
X144656500Y-109625000D01*
X144659500Y-109625000D01*
X144662500Y-109625000D01*
X145137500Y-109625000D01*
X145139500Y-109625000D01*
X145142500Y-109625000D01*
X145144500Y-109626000D01*
G37*
X144437500Y-107550000D02*
X144587500Y-107550000D01*
X144590500Y-107550000D01*
X144592500Y-107550000D01*
X144595500Y-107551000D01*
X144597500Y-107551000D01*
X144600500Y-107552000D01*
X144602500Y-107552000D01*
X144605500Y-107553000D01*
X144607500Y-107554000D01*
X144610500Y-107555000D01*
X144612500Y-107557000D01*
X144614500Y-107558000D01*
X144616500Y-107560000D01*
X144618500Y-107561000D01*
X144620500Y-107563000D01*
X144622500Y-107565000D01*
X144624500Y-107567000D01*
X144626500Y-107569000D01*
X144627500Y-107571000D01*
X144629500Y-107573000D01*
X144630500Y-107575000D01*
X144632500Y-107577000D01*
X144633500Y-107580000D01*
X144634500Y-107582000D01*
X144635500Y-107585000D01*
X144635500Y-107587000D01*
X144636500Y-107590000D01*
X144636500Y-107592000D01*
X144637500Y-107595000D01*
X144637500Y-107597000D01*
X144637500Y-107600000D01*
X144637500Y-107900000D01*
X144887500Y-107900000D01*
X144887500Y-107600000D01*
X144887500Y-107597000D01*
X144887500Y-107595000D01*
X144888500Y-107592000D01*
X144888500Y-107590000D01*
X144889500Y-107587000D01*
X144889500Y-107585000D01*
X144890500Y-107582000D01*
X144891500Y-107580000D01*
X144892500Y-107577000D01*
X144894500Y-107575000D01*
X144895500Y-107573000D01*
X144897500Y-107571000D01*
X144898500Y-107569000D01*
X144900500Y-107567000D01*
X144902500Y-107565000D01*
X144904500Y-107563000D01*
X144906500Y-107561000D01*
X144908500Y-107560000D01*
X144910500Y-107558000D01*
X144912500Y-107557000D01*
X144914500Y-107555000D01*
X144917500Y-107554000D01*
X144919500Y-107553000D01*
X144922500Y-107552000D01*
X144924500Y-107552000D01*
X144927500Y-107551000D01*
X144929500Y-107551000D01*
X144932500Y-107550000D01*
X144934500Y-107550000D01*
X144937500Y-107550000D01*
X145087500Y-107550000D01*
X145090500Y-107550000D01*
X145092500Y-107550000D01*
X145095500Y-107551000D01*
X145097500Y-107551000D01*
X145100500Y-107552000D01*
X145102500Y-107552000D01*
X145105500Y-107553000D01*
X145107500Y-107554000D01*
X145110500Y-107555000D01*
X145112500Y-107557000D01*
X145114500Y-107558000D01*
X145116500Y-107560000D01*
X145118500Y-107561000D01*
X145120500Y-107563000D01*
X145122500Y-107565000D01*
X145124500Y-107567000D01*
X145126500Y-107569000D01*
X145127500Y-107571000D01*
X145129500Y-107573000D01*
X145130500Y-107575000D01*
X145132500Y-107577000D01*
X145133500Y-107580000D01*
X145134500Y-107582000D01*
X145135500Y-107585000D01*
X145135500Y-107587000D01*
X145136500Y-107590000D01*
X145136500Y-107592000D01*
X145137500Y-107595000D01*
X145137500Y-107597000D01*
X145137500Y-107600000D01*
X145137500Y-108100000D01*
X145137500Y-108103000D01*
X145137500Y-108105000D01*
X145136500Y-108108000D01*
X145136500Y-108110000D01*
X145135500Y-108113000D01*
X145135500Y-108115000D01*
X145134500Y-108118000D01*
X145133500Y-108120000D01*
X145132500Y-108123000D01*
X145130500Y-108125000D01*
X145129500Y-108127000D01*
X145127500Y-108129000D01*
X145126500Y-108131000D01*
X145124500Y-108133000D01*
X145122500Y-108135000D01*
X145120500Y-108137000D01*
X145118500Y-108139000D01*
X145116500Y-108140000D01*
X145114500Y-108142000D01*
X145112500Y-108143000D01*
X145110500Y-108145000D01*
X145107500Y-108146000D01*
X145105500Y-108147000D01*
X145102500Y-108148000D01*
X145100500Y-108148000D01*
X145097500Y-108149000D01*
X145095500Y-108149000D01*
X145092500Y-108150000D01*
X145090500Y-108150000D01*
X145087500Y-108150000D01*
X144437500Y-108150000D01*
X144434500Y-108150000D01*
X144432500Y-108150000D01*
X144429500Y-108149000D01*
X144427500Y-108149000D01*
X144424500Y-108148000D01*
X144422500Y-108148000D01*
X144419500Y-108147000D01*
X144417500Y-108146000D01*
X144414500Y-108145000D01*
X144412500Y-108143000D01*
X144410500Y-108142000D01*
X144408500Y-108140000D01*
X144406500Y-108139000D01*
X144404500Y-108137000D01*
X144402500Y-108135000D01*
X144400500Y-108133000D01*
X144398500Y-108131000D01*
X144397500Y-108129000D01*
X144395500Y-108127000D01*
X144394500Y-108125000D01*
X144392500Y-108123000D01*
X144391500Y-108120000D01*
X144390500Y-108118000D01*
X144389500Y-108115000D01*
X144389500Y-108113000D01*
X144388500Y-108110000D01*
X144388500Y-108108000D01*
X144387500Y-108105000D01*
X144387500Y-108103000D01*
X144387500Y-108100000D01*
X144387500Y-107600000D01*
X144387500Y-107597000D01*
X144387500Y-107595000D01*
X144388500Y-107592000D01*
X144388500Y-107590000D01*
X144389500Y-107587000D01*
X144389500Y-107585000D01*
X144390500Y-107582000D01*
X144391500Y-107580000D01*
X144392500Y-107577000D01*
X144394500Y-107575000D01*
X144395500Y-107573000D01*
X144397500Y-107571000D01*
X144398500Y-107569000D01*
X144400500Y-107567000D01*
X144402500Y-107565000D01*
X144404500Y-107563000D01*
X144406500Y-107561000D01*
X144408500Y-107560000D01*
X144410500Y-107558000D01*
X144412500Y-107557000D01*
X144414500Y-107555000D01*
X144417500Y-107554000D01*
X144419500Y-107553000D01*
X144422500Y-107552000D01*
X144424500Y-107552000D01*
X144427500Y-107551000D01*
X144429500Y-107551000D01*
X144432500Y-107550000D01*
X144434500Y-107550000D01*
X144437500Y-107550000D01*
G36*
X144595500Y-107551000D02*
G01*
X144597500Y-107551000D01*
X144600500Y-107552000D01*
X144602500Y-107552000D01*
X144605500Y-107553000D01*
X144607500Y-107554000D01*
X144610500Y-107555000D01*
X144612500Y-107557000D01*
X144614500Y-107558000D01*
X144616500Y-107560000D01*
X144618500Y-107561000D01*
X144620500Y-107563000D01*
X144622500Y-107565000D01*
X144624500Y-107567000D01*
X144626500Y-107569000D01*
X144627500Y-107571000D01*
X144629500Y-107573000D01*
X144630500Y-107575000D01*
X144632500Y-107577000D01*
X144633500Y-107580000D01*
X144634500Y-107582000D01*
X144635500Y-107585000D01*
X144635500Y-107587000D01*
X144636500Y-107590000D01*
X144636500Y-107592000D01*
X144637500Y-107595000D01*
X144637500Y-107597000D01*
X144637500Y-107600000D01*
X144637500Y-107900000D01*
X144887500Y-107900000D01*
X144887500Y-107600000D01*
X144887500Y-107597000D01*
X144887500Y-107595000D01*
X144888500Y-107592000D01*
X144888500Y-107590000D01*
X144889500Y-107587000D01*
X144889500Y-107585000D01*
X144890500Y-107582000D01*
X144891500Y-107580000D01*
X144892500Y-107577000D01*
X144894500Y-107575000D01*
X144895500Y-107573000D01*
X144897500Y-107571000D01*
X144898500Y-107569000D01*
X144900500Y-107567000D01*
X144902500Y-107565000D01*
X144904500Y-107563000D01*
X144906500Y-107561000D01*
X144908500Y-107560000D01*
X144910500Y-107558000D01*
X144912500Y-107557000D01*
X144914500Y-107555000D01*
X144917500Y-107554000D01*
X144919500Y-107553000D01*
X144922500Y-107552000D01*
X144924500Y-107552000D01*
X144927500Y-107551000D01*
X144929500Y-107551000D01*
X144932500Y-107550000D01*
X144934500Y-107550000D01*
X144937500Y-107550000D01*
X145087500Y-107550000D01*
X145090500Y-107550000D01*
X145092500Y-107550000D01*
X145095500Y-107551000D01*
X145097500Y-107551000D01*
X145100500Y-107552000D01*
X145102500Y-107552000D01*
X145105500Y-107553000D01*
X145107500Y-107554000D01*
X145110500Y-107555000D01*
X145112500Y-107557000D01*
X145114500Y-107558000D01*
X145116500Y-107560000D01*
X145118500Y-107561000D01*
X145120500Y-107563000D01*
X145122500Y-107565000D01*
X145124500Y-107567000D01*
X145126500Y-107569000D01*
X145127500Y-107571000D01*
X145129500Y-107573000D01*
X145130500Y-107575000D01*
X145132500Y-107577000D01*
X145133500Y-107580000D01*
X145134500Y-107582000D01*
X145135500Y-107585000D01*
X145135500Y-107587000D01*
X145136500Y-107590000D01*
X145136500Y-107592000D01*
X145137500Y-107595000D01*
X145137500Y-107597000D01*
X145137500Y-107600000D01*
X145137500Y-108100000D01*
X145137500Y-108103000D01*
X145137500Y-108105000D01*
X145136500Y-108108000D01*
X145136500Y-108110000D01*
X145135500Y-108113000D01*
X145135500Y-108115000D01*
X145134500Y-108118000D01*
X145133500Y-108120000D01*
X145132500Y-108123000D01*
X145130500Y-108125000D01*
X145129500Y-108127000D01*
X145127500Y-108129000D01*
X145126500Y-108131000D01*
X145124500Y-108133000D01*
X145122500Y-108135000D01*
X145120500Y-108137000D01*
X145118500Y-108139000D01*
X145116500Y-108140000D01*
X145114500Y-108142000D01*
X145112500Y-108143000D01*
X145110500Y-108145000D01*
X145107500Y-108146000D01*
X145105500Y-108147000D01*
X145102500Y-108148000D01*
X145100500Y-108148000D01*
X145097500Y-108149000D01*
X145095500Y-108149000D01*
X145092500Y-108150000D01*
X145090500Y-108150000D01*
X145087500Y-108150000D01*
X144437500Y-108150000D01*
X144434500Y-108150000D01*
X144432500Y-108150000D01*
X144429500Y-108149000D01*
X144427500Y-108149000D01*
X144424500Y-108148000D01*
X144422500Y-108148000D01*
X144419500Y-108147000D01*
X144417500Y-108146000D01*
X144414500Y-108145000D01*
X144412500Y-108143000D01*
X144410500Y-108142000D01*
X144408500Y-108140000D01*
X144406500Y-108139000D01*
X144404500Y-108137000D01*
X144402500Y-108135000D01*
X144400500Y-108133000D01*
X144398500Y-108131000D01*
X144397500Y-108129000D01*
X144395500Y-108127000D01*
X144394500Y-108125000D01*
X144392500Y-108123000D01*
X144391500Y-108120000D01*
X144390500Y-108118000D01*
X144389500Y-108115000D01*
X144389500Y-108113000D01*
X144388500Y-108110000D01*
X144388500Y-108108000D01*
X144387500Y-108105000D01*
X144387500Y-108103000D01*
X144387500Y-108100000D01*
X144387500Y-107600000D01*
X144387500Y-107597000D01*
X144387500Y-107595000D01*
X144388500Y-107592000D01*
X144388500Y-107590000D01*
X144389500Y-107587000D01*
X144389500Y-107585000D01*
X144390500Y-107582000D01*
X144391500Y-107580000D01*
X144392500Y-107577000D01*
X144394500Y-107575000D01*
X144395500Y-107573000D01*
X144397500Y-107571000D01*
X144398500Y-107569000D01*
X144400500Y-107567000D01*
X144402500Y-107565000D01*
X144404500Y-107563000D01*
X144406500Y-107561000D01*
X144408500Y-107560000D01*
X144410500Y-107558000D01*
X144412500Y-107557000D01*
X144414500Y-107555000D01*
X144417500Y-107554000D01*
X144419500Y-107553000D01*
X144422500Y-107552000D01*
X144424500Y-107552000D01*
X144427500Y-107551000D01*
X144429500Y-107551000D01*
X144432500Y-107550000D01*
X144434500Y-107550000D01*
X144437500Y-107550000D01*
X144587500Y-107550000D01*
X144590500Y-107550000D01*
X144592500Y-107550000D01*
X144595500Y-107551000D01*
G37*
X145087500Y-110950000D02*
X144937500Y-110950000D01*
X144934500Y-110950000D01*
X144932500Y-110950000D01*
X144929500Y-110949000D01*
X144927500Y-110949000D01*
X144924500Y-110948000D01*
X144922500Y-110948000D01*
X144919500Y-110947000D01*
X144917500Y-110946000D01*
X144914500Y-110945000D01*
X144912500Y-110943000D01*
X144910500Y-110942000D01*
X144908500Y-110940000D01*
X144906500Y-110939000D01*
X144904500Y-110937000D01*
X144902500Y-110935000D01*
X144900500Y-110933000D01*
X144898500Y-110931000D01*
X144897500Y-110929000D01*
X144895500Y-110927000D01*
X144894500Y-110925000D01*
X144892500Y-110923000D01*
X144891500Y-110920000D01*
X144890500Y-110918000D01*
X144889500Y-110915000D01*
X144889500Y-110913000D01*
X144888500Y-110910000D01*
X144888500Y-110908000D01*
X144887500Y-110905000D01*
X144887500Y-110903000D01*
X144887500Y-110900000D01*
X144887500Y-110600000D01*
X144637500Y-110600000D01*
X144637500Y-110900000D01*
X144637500Y-110903000D01*
X144637500Y-110905000D01*
X144636500Y-110908000D01*
X144636500Y-110910000D01*
X144635500Y-110913000D01*
X144635500Y-110915000D01*
X144634500Y-110918000D01*
X144633500Y-110920000D01*
X144632500Y-110923000D01*
X144630500Y-110925000D01*
X144629500Y-110927000D01*
X144627500Y-110929000D01*
X144626500Y-110931000D01*
X144624500Y-110933000D01*
X144622500Y-110935000D01*
X144620500Y-110937000D01*
X144618500Y-110939000D01*
X144616500Y-110940000D01*
X144614500Y-110942000D01*
X144612500Y-110943000D01*
X144610500Y-110945000D01*
X144607500Y-110946000D01*
X144605500Y-110947000D01*
X144602500Y-110948000D01*
X144600500Y-110948000D01*
X144597500Y-110949000D01*
X144595500Y-110949000D01*
X144592500Y-110950000D01*
X144590500Y-110950000D01*
X144587500Y-110950000D01*
X144437500Y-110950000D01*
X144434500Y-110950000D01*
X144432500Y-110950000D01*
X144429500Y-110949000D01*
X144427500Y-110949000D01*
X144424500Y-110948000D01*
X144422500Y-110948000D01*
X144419500Y-110947000D01*
X144417500Y-110946000D01*
X144414500Y-110945000D01*
X144412500Y-110943000D01*
X144410500Y-110942000D01*
X144408500Y-110940000D01*
X144406500Y-110939000D01*
X144404500Y-110937000D01*
X144402500Y-110935000D01*
X144400500Y-110933000D01*
X144398500Y-110931000D01*
X144397500Y-110929000D01*
X144395500Y-110927000D01*
X144394500Y-110925000D01*
X144392500Y-110923000D01*
X144391500Y-110920000D01*
X144390500Y-110918000D01*
X144389500Y-110915000D01*
X144389500Y-110913000D01*
X144388500Y-110910000D01*
X144388500Y-110908000D01*
X144387500Y-110905000D01*
X144387500Y-110903000D01*
X144387500Y-110900000D01*
X144387500Y-110400000D01*
X144387500Y-110397000D01*
X144387500Y-110395000D01*
X144388500Y-110392000D01*
X144388500Y-110390000D01*
X144389500Y-110387000D01*
X144389500Y-110385000D01*
X144390500Y-110382000D01*
X144391500Y-110380000D01*
X144392500Y-110377000D01*
X144394500Y-110375000D01*
X144395500Y-110373000D01*
X144397500Y-110371000D01*
X144398500Y-110369000D01*
X144400500Y-110367000D01*
X144402500Y-110365000D01*
X144404500Y-110363000D01*
X144406500Y-110361000D01*
X144408500Y-110360000D01*
X144410500Y-110358000D01*
X144412500Y-110357000D01*
X144414500Y-110355000D01*
X144417500Y-110354000D01*
X144419500Y-110353000D01*
X144422500Y-110352000D01*
X144424500Y-110352000D01*
X144427500Y-110351000D01*
X144429500Y-110351000D01*
X144432500Y-110350000D01*
X144434500Y-110350000D01*
X144437500Y-110350000D01*
X145087500Y-110350000D01*
X145090500Y-110350000D01*
X145092500Y-110350000D01*
X145095500Y-110351000D01*
X145097500Y-110351000D01*
X145100500Y-110352000D01*
X145102500Y-110352000D01*
X145105500Y-110353000D01*
X145107500Y-110354000D01*
X145110500Y-110355000D01*
X145112500Y-110357000D01*
X145114500Y-110358000D01*
X145116500Y-110360000D01*
X145118500Y-110361000D01*
X145120500Y-110363000D01*
X145122500Y-110365000D01*
X145124500Y-110367000D01*
X145126500Y-110369000D01*
X145127500Y-110371000D01*
X145129500Y-110373000D01*
X145130500Y-110375000D01*
X145132500Y-110377000D01*
X145133500Y-110380000D01*
X145134500Y-110382000D01*
X145135500Y-110385000D01*
X145135500Y-110387000D01*
X145136500Y-110390000D01*
X145136500Y-110392000D01*
X145137500Y-110395000D01*
X145137500Y-110397000D01*
X145137500Y-110400000D01*
X145137500Y-110900000D01*
X145137500Y-110903000D01*
X145137500Y-110905000D01*
X145136500Y-110908000D01*
X145136500Y-110910000D01*
X145135500Y-110913000D01*
X145135500Y-110915000D01*
X145134500Y-110918000D01*
X145133500Y-110920000D01*
X145132500Y-110923000D01*
X145130500Y-110925000D01*
X145129500Y-110927000D01*
X145127500Y-110929000D01*
X145126500Y-110931000D01*
X145124500Y-110933000D01*
X145122500Y-110935000D01*
X145120500Y-110937000D01*
X145118500Y-110939000D01*
X145116500Y-110940000D01*
X145114500Y-110942000D01*
X145112500Y-110943000D01*
X145110500Y-110945000D01*
X145107500Y-110946000D01*
X145105500Y-110947000D01*
X145102500Y-110948000D01*
X145100500Y-110948000D01*
X145097500Y-110949000D01*
X145095500Y-110949000D01*
X145092500Y-110950000D01*
X145090500Y-110950000D01*
X145087500Y-110950000D01*
G36*
X145095500Y-110351000D02*
G01*
X145097500Y-110351000D01*
X145100500Y-110352000D01*
X145102500Y-110352000D01*
X145105500Y-110353000D01*
X145107500Y-110354000D01*
X145110500Y-110355000D01*
X145112500Y-110357000D01*
X145114500Y-110358000D01*
X145116500Y-110360000D01*
X145118500Y-110361000D01*
X145120500Y-110363000D01*
X145122500Y-110365000D01*
X145124500Y-110367000D01*
X145126500Y-110369000D01*
X145127500Y-110371000D01*
X145129500Y-110373000D01*
X145130500Y-110375000D01*
X145132500Y-110377000D01*
X145133500Y-110380000D01*
X145134500Y-110382000D01*
X145135500Y-110385000D01*
X145135500Y-110387000D01*
X145136500Y-110390000D01*
X145136500Y-110392000D01*
X145137500Y-110395000D01*
X145137500Y-110397000D01*
X145137500Y-110400000D01*
X145137500Y-110900000D01*
X145137500Y-110903000D01*
X145137500Y-110905000D01*
X145136500Y-110908000D01*
X145136500Y-110910000D01*
X145135500Y-110913000D01*
X145135500Y-110915000D01*
X145134500Y-110918000D01*
X145133500Y-110920000D01*
X145132500Y-110923000D01*
X145130500Y-110925000D01*
X145129500Y-110927000D01*
X145127500Y-110929000D01*
X145126500Y-110931000D01*
X145124500Y-110933000D01*
X145122500Y-110935000D01*
X145120500Y-110937000D01*
X145118500Y-110939000D01*
X145116500Y-110940000D01*
X145114500Y-110942000D01*
X145112500Y-110943000D01*
X145110500Y-110945000D01*
X145107500Y-110946000D01*
X145105500Y-110947000D01*
X145102500Y-110948000D01*
X145100500Y-110948000D01*
X145097500Y-110949000D01*
X145095500Y-110949000D01*
X145092500Y-110950000D01*
X145090500Y-110950000D01*
X145087500Y-110950000D01*
X144937500Y-110950000D01*
X144934500Y-110950000D01*
X144932500Y-110950000D01*
X144929500Y-110949000D01*
X144927500Y-110949000D01*
X144924500Y-110948000D01*
X144922500Y-110948000D01*
X144919500Y-110947000D01*
X144917500Y-110946000D01*
X144914500Y-110945000D01*
X144912500Y-110943000D01*
X144910500Y-110942000D01*
X144908500Y-110940000D01*
X144906500Y-110939000D01*
X144904500Y-110937000D01*
X144902500Y-110935000D01*
X144900500Y-110933000D01*
X144898500Y-110931000D01*
X144897500Y-110929000D01*
X144895500Y-110927000D01*
X144894500Y-110925000D01*
X144892500Y-110923000D01*
X144891500Y-110920000D01*
X144890500Y-110918000D01*
X144889500Y-110915000D01*
X144889500Y-110913000D01*
X144888500Y-110910000D01*
X144888500Y-110908000D01*
X144887500Y-110905000D01*
X144887500Y-110903000D01*
X144887500Y-110900000D01*
X144887500Y-110600000D01*
X144637500Y-110600000D01*
X144637500Y-110900000D01*
X144637500Y-110903000D01*
X144637500Y-110905000D01*
X144636500Y-110908000D01*
X144636500Y-110910000D01*
X144635500Y-110913000D01*
X144635500Y-110915000D01*
X144634500Y-110918000D01*
X144633500Y-110920000D01*
X144632500Y-110923000D01*
X144630500Y-110925000D01*
X144629500Y-110927000D01*
X144627500Y-110929000D01*
X144626500Y-110931000D01*
X144624500Y-110933000D01*
X144622500Y-110935000D01*
X144620500Y-110937000D01*
X144618500Y-110939000D01*
X144616500Y-110940000D01*
X144614500Y-110942000D01*
X144612500Y-110943000D01*
X144610500Y-110945000D01*
X144607500Y-110946000D01*
X144605500Y-110947000D01*
X144602500Y-110948000D01*
X144600500Y-110948000D01*
X144597500Y-110949000D01*
X144595500Y-110949000D01*
X144592500Y-110950000D01*
X144590500Y-110950000D01*
X144587500Y-110950000D01*
X144437500Y-110950000D01*
X144434500Y-110950000D01*
X144432500Y-110950000D01*
X144429500Y-110949000D01*
X144427500Y-110949000D01*
X144424500Y-110948000D01*
X144422500Y-110948000D01*
X144419500Y-110947000D01*
X144417500Y-110946000D01*
X144414500Y-110945000D01*
X144412500Y-110943000D01*
X144410500Y-110942000D01*
X144408500Y-110940000D01*
X144406500Y-110939000D01*
X144404500Y-110937000D01*
X144402500Y-110935000D01*
X144400500Y-110933000D01*
X144398500Y-110931000D01*
X144397500Y-110929000D01*
X144395500Y-110927000D01*
X144394500Y-110925000D01*
X144392500Y-110923000D01*
X144391500Y-110920000D01*
X144390500Y-110918000D01*
X144389500Y-110915000D01*
X144389500Y-110913000D01*
X144388500Y-110910000D01*
X144388500Y-110908000D01*
X144387500Y-110905000D01*
X144387500Y-110903000D01*
X144387500Y-110900000D01*
X144387500Y-110400000D01*
X144387500Y-110397000D01*
X144387500Y-110395000D01*
X144388500Y-110392000D01*
X144388500Y-110390000D01*
X144389500Y-110387000D01*
X144389500Y-110385000D01*
X144390500Y-110382000D01*
X144391500Y-110380000D01*
X144392500Y-110377000D01*
X144394500Y-110375000D01*
X144395500Y-110373000D01*
X144397500Y-110371000D01*
X144398500Y-110369000D01*
X144400500Y-110367000D01*
X144402500Y-110365000D01*
X144404500Y-110363000D01*
X144406500Y-110361000D01*
X144408500Y-110360000D01*
X144410500Y-110358000D01*
X144412500Y-110357000D01*
X144414500Y-110355000D01*
X144417500Y-110354000D01*
X144419500Y-110353000D01*
X144422500Y-110352000D01*
X144424500Y-110352000D01*
X144427500Y-110351000D01*
X144429500Y-110351000D01*
X144432500Y-110350000D01*
X144434500Y-110350000D01*
X144437500Y-110350000D01*
X145087500Y-110350000D01*
X145090500Y-110350000D01*
X145092500Y-110350000D01*
X145095500Y-110351000D01*
G37*
%TD*%
D11*
%TO.C,C8*%
X145062500Y-119450000D03*
X143512500Y-119450000D03*
%TD*%
D12*
%TO.C,C9*%
X146712500Y-97900000D03*
X143762500Y-97900000D03*
%TD*%
D13*
%TO.C,R6*%
X162675000Y-115562500D03*
X160850000Y-115562500D03*
%TD*%
D14*
%TO.C,R10*%
X177550000Y-120250000D03*
X177550000Y-122075000D03*
%TD*%
D15*
%TO.C,R5*%
X177125000Y-127750000D03*
X178950000Y-127750000D03*
%TD*%
D16*
%TO.C,C26*%
X97887500Y-109962500D03*
X97887500Y-112037500D03*
%TD*%
D17*
%TO.C,R18*%
X130175000Y-131570000D03*
X130175000Y-129745000D03*
%TD*%
D12*
%TO.C,C10*%
X146712500Y-94025000D03*
X143762500Y-94025000D03*
%TD*%
D18*
%TO.C,C17*%
X121300000Y-117500000D03*
X121300000Y-115600000D03*
%TD*%
D19*
%TO.C,C28*%
X95250000Y-112037500D03*
X95250000Y-109962500D03*
%TD*%
D15*
%TO.C,R25*%
X117687500Y-138220000D03*
X119512500Y-138220000D03*
%TD*%
D14*
%TO.C,R7*%
X163700000Y-107087500D03*
X163700000Y-108912500D03*
%TD*%
%TO.C,R21*%
X127875000Y-129745000D03*
X127875000Y-131570000D03*
%TD*%
D13*
%TO.C,R23*%
X111912500Y-141750000D03*
X110087500Y-141750000D03*
%TD*%
D18*
%TO.C,C3*%
X166350000Y-112512500D03*
X166350000Y-110612500D03*
%TD*%
D13*
%TO.C,R13*%
X150087500Y-103100000D03*
X148262500Y-103100000D03*
%TD*%
D20*
%TO.C,C20*%
X114100000Y-116250000D03*
X116000000Y-116250000D03*
%TD*%
D15*
%TO.C,R26*%
X124937500Y-141750000D03*
X126762500Y-141750000D03*
%TD*%
D21*
%TO.C,C6*%
X145212500Y-114300000D03*
X143312500Y-114300000D03*
%TD*%
D11*
%TO.C,C5*%
X145962500Y-101000000D03*
X144412500Y-101000000D03*
%TD*%
D22*
%TO.C,D2*%
X181200000Y-124100000D03*
X184000000Y-124100000D03*
%TD*%
D13*
%TO.C,R3*%
X173225000Y-111362500D03*
X171400000Y-111362500D03*
%TD*%
D23*
%TO.C,C15*%
X121650000Y-103600000D03*
X118700000Y-103600000D03*
%TD*%
D17*
%TO.C,R12*%
X151662500Y-115300000D03*
X151662500Y-113475000D03*
%TD*%
D13*
%TO.C,R11*%
X144225000Y-135850000D03*
X142400000Y-135850000D03*
%TD*%
D24*
%TO.C,U4*%
X146437500Y-110000000D03*
X146437500Y-109500000D03*
X146437500Y-109000000D03*
X146437500Y-108500000D03*
D25*
X146012500Y-107850000D03*
X145512500Y-107850000D03*
X145512500Y-110650000D03*
X146012500Y-110650000D03*
%TD*%
D26*
%TO.C,L1*%
X138062500Y-110320000D03*
X138062500Y-107950000D03*
%TD*%
D27*
%TO.C,Y1*%
X116000000Y-112525000D03*
X116000000Y-107000000D03*
%TD*%
D28*
%TO.C,U6*%
X119525000Y-127095000D03*
X119525000Y-128365000D03*
X119525000Y-129635000D03*
X119525000Y-130905000D03*
X124475000Y-130905000D03*
X124475000Y-129635000D03*
X124475000Y-128365000D03*
X124475000Y-127095000D03*
%TD*%
D29*
%TO.C,C12*%
X147050000Y-136000000D03*
X150000000Y-136000000D03*
%TD*%
D12*
%TO.C,C11*%
X146662500Y-90150000D03*
X143712500Y-90150000D03*
%TD*%
D15*
%TO.C,R4*%
X160137500Y-104950000D03*
X161962500Y-104950000D03*
%TD*%
D21*
%TO.C,C21*%
X122875000Y-124795000D03*
X120975000Y-124795000D03*
%TD*%
D30*
%TO.C,C23*%
X110525000Y-129687500D03*
X110525000Y-131587500D03*
%TD*%
D31*
%TO.C,C30*%
X98137500Y-118455000D03*
X96062500Y-118455000D03*
%TD*%
D21*
%TO.C,C1*%
X158200000Y-115612500D03*
X156300000Y-115612500D03*
%TD*%
%TO.C,C24*%
X115712500Y-138250000D03*
X113812500Y-138250000D03*
%TD*%
D18*
%TO.C,C13*%
X140000000Y-135950000D03*
X140000000Y-134050000D03*
%TD*%
D15*
%TO.C,R20*%
X133400000Y-94280000D03*
X135225000Y-94280000D03*
%TD*%
%TO.C,R24*%
X113887500Y-141750000D03*
X115712500Y-141750000D03*
%TD*%
D17*
%TO.C,R9*%
X177550000Y-131800000D03*
X177550000Y-129975000D03*
%TD*%
D32*
%TO.C,C4*%
X168950000Y-112812500D03*
X168950000Y-109862500D03*
%TD*%
D20*
%TO.C,C19*%
X114100000Y-103250000D03*
X116000000Y-103250000D03*
%TD*%
D14*
%TO.C,R1*%
X175200000Y-105687500D03*
X175200000Y-107512500D03*
%TD*%
D18*
%TO.C,C2*%
X157550000Y-106812500D03*
X157550000Y-104912500D03*
%TD*%
D15*
%TO.C,R16*%
X148262500Y-105650000D03*
X150087500Y-105650000D03*
%TD*%
D33*
%TO.C,Q1*%
X149960000Y-131350000D03*
X149960000Y-130400000D03*
X149960000Y-129450000D03*
X147450000Y-129450000D03*
X147450000Y-130400000D03*
X147450000Y-131350000D03*
%TD*%
D34*
%TO.C,U7*%
X100662500Y-109955000D03*
X100662500Y-111225000D03*
X100662500Y-112495000D03*
X100662500Y-113765000D03*
X100662500Y-115035000D03*
X100662500Y-116305000D03*
X100662500Y-117575000D03*
X100662500Y-118845000D03*
X106837500Y-118845000D03*
X106837500Y-117575000D03*
X106837500Y-116305000D03*
X106837500Y-115035000D03*
X106837500Y-113765000D03*
X106837500Y-112495000D03*
X106837500Y-111225000D03*
X106837500Y-109955000D03*
%TD*%
D15*
%TO.C,R8*%
X177175000Y-125300000D03*
X179000000Y-125300000D03*
%TD*%
D35*
%TO.C,P1*%
X178300000Y-107000000D03*
X178300000Y-106200000D03*
D36*
X178300000Y-105050000D03*
X178300000Y-104050000D03*
X178300000Y-103550000D03*
X178300000Y-102550000D03*
D35*
X178300000Y-101400000D03*
X178300000Y-100600000D03*
X178300000Y-100600000D03*
X178300000Y-101400000D03*
D36*
X178300000Y-102050000D03*
X178300000Y-103050000D03*
X178300000Y-104550000D03*
X178300000Y-105550000D03*
D35*
X178300000Y-106200000D03*
X178300000Y-107000000D03*
D37*
X178875000Y-108120000D03*
D38*
X183055000Y-108120000D03*
D37*
X178875000Y-99480000D03*
D38*
X183055000Y-99480000D03*
%TD*%
D16*
%TO.C,C27*%
X97887500Y-113980000D03*
X97887500Y-116055000D03*
%TD*%
D14*
%TO.C,R15*%
X147912500Y-113375000D03*
X147912500Y-115200000D03*
%TD*%
D39*
%TO.C,U2*%
X172300000Y-104437500D03*
D40*
X172375000Y-103900000D03*
D39*
X172300000Y-103362500D03*
X170600000Y-103362500D03*
D40*
X170525000Y-103900000D03*
D39*
X170600000Y-104437500D03*
%TD*%
D41*
%TO.C,U5*%
X122075000Y-108250000D03*
X122075000Y-108750000D03*
X122075000Y-109250000D03*
X122075000Y-109750000D03*
X122075000Y-110250000D03*
X122075000Y-110750000D03*
X122075000Y-111250000D03*
X122075000Y-111750000D03*
X122075000Y-112250000D03*
X122075000Y-112750000D03*
X122075000Y-113250000D03*
X122075000Y-113750000D03*
D42*
X123487500Y-115162500D03*
X123987500Y-115162500D03*
X124487500Y-115162500D03*
X124987500Y-115162500D03*
X125487500Y-115162500D03*
X125987500Y-115162500D03*
X126487500Y-115162500D03*
X126987500Y-115162500D03*
X127487500Y-115162500D03*
X127987500Y-115162500D03*
X128487500Y-115162500D03*
X128987500Y-115162500D03*
D41*
X130400000Y-113750000D03*
X130400000Y-113250000D03*
X130400000Y-112750000D03*
X130400000Y-112250000D03*
X130400000Y-111750000D03*
X130400000Y-111250000D03*
X130400000Y-110750000D03*
X130400000Y-110250000D03*
X130400000Y-109750000D03*
X130400000Y-109250000D03*
X130400000Y-108750000D03*
X130400000Y-108250000D03*
D42*
X128987500Y-106837500D03*
X128487500Y-106837500D03*
X127987500Y-106837500D03*
X127487500Y-106837500D03*
X126987500Y-106837500D03*
X126487500Y-106837500D03*
X125987500Y-106837500D03*
X125487500Y-106837500D03*
X124987500Y-106837500D03*
X124487500Y-106837500D03*
X123987500Y-106837500D03*
X123487500Y-106837500D03*
%TD*%
D30*
%TO.C,C22*%
X132475000Y-129687500D03*
X132475000Y-131587500D03*
%TD*%
D43*
%TO.C,U3*%
X144975000Y-131400000D03*
X144975000Y-130450000D03*
X144975000Y-129500000D03*
X142700000Y-129500000D03*
X142700000Y-130450000D03*
X142700000Y-131400000D03*
%TD*%
D17*
%TO.C,R2*%
X175055000Y-101945000D03*
X175055000Y-100120000D03*
%TD*%
D44*
%TO.C,C14*%
X149262500Y-109525000D03*
X149262500Y-111075000D03*
%TD*%
D21*
%TO.C,C18*%
X132750000Y-106000000D03*
X130850000Y-106000000D03*
%TD*%
D17*
%TO.C,R19*%
X113000000Y-131570000D03*
X113000000Y-129745000D03*
%TD*%
D20*
%TO.C,C16*%
X119650000Y-106650000D03*
X121550000Y-106650000D03*
%TD*%
D15*
%TO.C,R14*%
X146950000Y-126150000D03*
X148775000Y-126150000D03*
%TD*%
D21*
%TO.C,C7*%
X145212500Y-116900000D03*
X143312500Y-116900000D03*
%TD*%
D45*
%TO.C,U1*%
X159100000Y-111200000D03*
X158300000Y-111200000D03*
X159100000Y-112000000D03*
X158300000Y-112000000D03*
D46*
X159450000Y-110162500D03*
X158950000Y-110162500D03*
X158450000Y-110162500D03*
X157950000Y-110162500D03*
D47*
X157262500Y-110850000D03*
X157262500Y-111350000D03*
X157262500Y-111850000D03*
X157262500Y-112350000D03*
D46*
X157950000Y-113037500D03*
X158450000Y-113037500D03*
X158950000Y-113037500D03*
X159450000Y-113037500D03*
D47*
X160137500Y-112350000D03*
X160137500Y-111850000D03*
X160137500Y-111350000D03*
X160137500Y-110850000D03*
%TD*%
D22*
%TO.C,D1*%
X181400000Y-128300000D03*
X184200000Y-128300000D03*
%TD*%
D31*
%TO.C,C29*%
X104837500Y-107255000D03*
X102762500Y-107255000D03*
%TD*%
D14*
%TO.C,R17*%
X124250000Y-118450000D03*
X124250000Y-120275000D03*
%TD*%
D21*
%TO.C,C25*%
X120600000Y-94250000D03*
X118700000Y-94250000D03*
%TD*%
D14*
%TO.C,R22*%
X115475000Y-129745000D03*
X115475000Y-131570000D03*
%TD*%
M02*
