M48
; DRILL file KiCad 10.0.4 date 2026-10-07T09:28:51
; FORMAT={-:-/ absolute / metric / decimal}
; #@! TF.CreationDate,2026-10-07T09:28:51+02:00
; #@! TF.GenerationSoftware,Kicad,Pcbnew,10.0.4
; #@! TF.FileFunction,Plated,1,2,PTH
FMAT,2
METRIC
; #@! TA.AperFunction,Plated,PTH,ViaDrill
T1C0.300
; #@! TA.AperFunction,Plated,PTH,ViaDrill
T2C0.350
; #@! TA.AperFunction,Plated,PTH,ViaDrill
T3C0.400
; #@! TA.AperFunction,Plated,PTH,ViaDrill
T4C0.500
; #@! TA.AperFunction,Plated,PTH,ComponentDrill
T5C0.600
; #@! TA.AperFunction,Plated,PTH,ComponentDrill
T6C0.950
; #@! TA.AperFunction,Plated,PTH,ComponentDrill
T7C1.000
; #@! TA.AperFunction,Plated,PTH,ComponentDrill
T8C1.100
; #@! TA.AperFunction,Plated,PTH,ComponentDrill
T9C1.570
; #@! TA.AperFunction,Plated,PTH,ComponentDrill
T10C3.140
; #@! TA.AperFunction,Plated,PTH,ComponentDrill
T11C3.200
%
G90
G05
T1
X110.5Y-121.0
X112.975Y-120.275
X116.8Y-125.5
X118.5Y-115.9
X118.7Y-116.9
X122.0Y-128.4
X122.5Y-140.5
X124.487Y-109.9
X124.5Y-112.6
X126.0Y-111.6
X126.25Y-137.75
X128.0Y-135.2
X129.0Y-112.75
X132.0Y-112.4
X137.65Y-103.675
X137.65Y-104.525
X137.8Y-140.5
X152.45Y-100.875
X152.45Y-101.725
X154.5Y-109.0
X156.2Y-123.6
X170.075Y-122.075
T2
X117.6Y-114.9
X119.9Y-118.8
X154.7Y-111.3
X155.775Y-108.275
X156.8Y-108.25
X159.5Y-117.8
T3
X135.1Y-108.7
X135.1Y-109.8
X140.6Y-114.2
X140.6Y-116.9
X140.6Y-119.6
X141.3Y-90.3
X141.3Y-94.25
X141.3Y-98.2
X145.4Y-84.3
X145.8Y-105.4
X146.9Y-111.8
X151.0Y-109.3
X156.0Y-113.2
X162.0Y-120.2
X173.1Y-101.1
X180.3Y-120.1
T4
X103.75Y-111.5
X103.75Y-112.65
X105.45Y-132.75
X120.2Y-133.7
X122.1Y-133.7
X124.0Y-133.7
X136.25Y-128.0
X140.55Y-132.15
X151.55Y-126.05
X154.15Y-135.5
X154.15Y-137.0
X155.35Y-136.25
T6
X118.45Y-87.0
X120.95Y-87.0
X123.45Y-87.0
X125.95Y-87.0
X128.45Y-87.0
X130.95Y-87.0
X133.45Y-87.0
X135.95Y-87.0
T7
X84.7Y-97.845
X84.7Y-100.615
X84.7Y-103.385
X84.7Y-106.155
X84.7Y-131.385
X84.7Y-134.155
X84.7Y-136.925
X84.7Y-139.695
X87.54Y-96.46
X87.54Y-99.23
X87.54Y-102.0
X87.54Y-104.77
X87.54Y-107.54
X87.54Y-130.0
X87.54Y-132.77
X87.54Y-135.54
X87.54Y-138.31
X87.54Y-141.08
X141.5Y-148.0
X144.0Y-148.0
T8
X115.932Y-146.05
X115.932Y-148.55
X118.472Y-148.55
X121.012Y-146.05
X121.012Y-148.55
T9
X96.945Y-128.0
X169.845Y-128.0
T10
X112.622Y-147.3
X124.322Y-147.3
T11
X86.12Y-89.5
X86.12Y-114.5
X86.12Y-123.04
X86.12Y-148.04
T5
X178.325Y-99.48G85X179.425Y-99.48
G05
X178.325Y-108.12G85X179.425Y-108.12
G05
X182.655Y-99.48G85X183.455Y-99.48
G05
X182.655Y-108.12G85X183.455Y-108.12
G05
M30
