%TF.GenerationSoftware,KiCad,Pcbnew,10.0.4*%
%TF.CreationDate,2026-09-07T13:32:27+02:00*%
%TF.ProjectId,CE006_Config feu recompense,43453030-365f-4436-9f6e-666967206665,rev?*%
%TF.SameCoordinates,Original*%
%TF.FileFunction,Soldermask,Top*%
%TF.FilePolarity,Negative*%
%FSLAX46Y46*%
G04 Gerber Fmt 4.6, Leading zero omitted, Abs format (unit mm)*
G04 Created by KiCad (PCBNEW 10.0.4) date 2026-09-07 13:32:27*
%MOMM*%
%LPD*%
G01*
G04 APERTURE LIST*
G04 Aperture macros list*
%AMRoundRect*
0 Rectangle with rounded corners*
0 $1 Rounding radius*
0 $2 $3 $4 $5 $6 $7 $8 $9 X,Y pos of 4 corners*
0 Add a 4 corners polygon primitive as box body*
4,1,4,$2,$3,$4,$5,$6,$7,$8,$9,$2,$3,0*
0 Add four circle primitives for the rounded corners*
1,1,$1+$1,$2,$3*
1,1,$1+$1,$4,$5*
1,1,$1+$1,$6,$7*
1,1,$1+$1,$8,$9*
0 Add four rect primitives between the rounded corners*
20,1,$1+$1,$2,$3,$4,$5,0*
20,1,$1+$1,$4,$5,$6,$7,0*
20,1,$1+$1,$6,$7,$8,$9,0*
20,1,$1+$1,$8,$9,$2,$3,0*%
G04 Aperture macros list end*
%ADD10C,0.010000*%
%ADD11RoundRect,0.225000X0.225000X0.250000X-0.225000X0.250000X-0.225000X-0.250000X0.225000X-0.250000X0*%
%ADD12C,1.312000*%
%ADD13RoundRect,0.250000X0.325000X1.100000X-0.325000X1.100000X-0.325000X-1.100000X0.325000X-1.100000X0*%
%ADD14RoundRect,0.250000X0.262500X0.450000X-0.262500X0.450000X-0.262500X-0.450000X0.262500X-0.450000X0*%
%ADD15C,3.200000*%
%ADD16RoundRect,0.250000X-0.450000X0.262500X-0.450000X-0.262500X0.450000X-0.262500X0.450000X0.262500X0*%
%ADD17RoundRect,0.250000X-0.262500X-0.450000X0.262500X-0.450000X0.262500X0.450000X-0.262500X0.450000X0*%
%ADD18RoundRect,0.250000X-0.475000X0.337500X-0.475000X-0.337500X0.475000X-0.337500X0.475000X0.337500X0*%
%ADD19RoundRect,0.250000X0.450000X-0.262500X0.450000X0.262500X-0.450000X0.262500X-0.450000X-0.262500X0*%
%ADD20RoundRect,0.250000X0.475000X-0.337500X0.475000X0.337500X-0.475000X0.337500X-0.475000X-0.337500X0*%
%ADD21RoundRect,0.250000X0.475000X-0.250000X0.475000X0.250000X-0.475000X0.250000X-0.475000X-0.250000X0*%
%ADD22RoundRect,0.250000X-0.250000X-0.475000X0.250000X-0.475000X0.250000X0.475000X-0.250000X0.475000X0*%
%ADD23RoundRect,0.250000X0.250000X0.475000X-0.250000X0.475000X-0.250000X-0.475000X0.250000X-0.475000X0*%
%ADD24R,1.600000X1.600000*%
%ADD25C,1.600000*%
%ADD26C,4.000000*%
%ADD27RoundRect,0.102000X1.700000X-0.490000X1.700000X0.490000X-1.700000X0.490000X-1.700000X-0.490000X0*%
%ADD28RoundRect,0.250000X-0.600000X-0.750000X0.600000X-0.750000X0.600000X0.750000X-0.600000X0.750000X0*%
%ADD29O,1.700000X2.000000*%
%ADD30RoundRect,0.250001X0.949999X-1.412499X0.949999X1.412499X-0.949999X1.412499X-0.949999X-1.412499X0*%
%ADD31RoundRect,0.150000X-0.825000X-0.150000X0.825000X-0.150000X0.825000X0.150000X-0.825000X0.150000X0*%
%ADD32RoundRect,0.250000X-0.325000X-1.100000X0.325000X-1.100000X0.325000X1.100000X-0.325000X1.100000X0*%
%ADD33RoundRect,0.250000X-0.475000X0.250000X-0.475000X-0.250000X0.475000X-0.250000X0.475000X0.250000X0*%
%ADD34RoundRect,0.250000X0.337500X0.475000X-0.337500X0.475000X-0.337500X-0.475000X0.337500X-0.475000X0*%
%ADD35RoundRect,0.250000X0.650000X-0.325000X0.650000X0.325000X-0.650000X0.325000X-0.650000X-0.325000X0*%
%ADD36RoundRect,0.249500X0.457500X0.147500X-0.457500X0.147500X-0.457500X-0.147500X0.457500X-0.147500X0*%
%ADD37RoundRect,0.162500X-0.750000X-0.162500X0.750000X-0.162500X0.750000X0.162500X-0.750000X0.162500X0*%
%ADD38C,0.650000*%
%ADD39RoundRect,0.150000X0.425000X-0.150000X0.425000X0.150000X-0.425000X0.150000X-0.425000X-0.150000X0*%
%ADD40RoundRect,0.075000X0.500000X-0.075000X0.500000X0.075000X-0.500000X0.075000X-0.500000X-0.075000X0*%
%ADD41O,2.100000X1.000000*%
%ADD42O,1.800000X1.000000*%
%ADD43RoundRect,0.093750X0.156250X0.093750X-0.156250X0.093750X-0.156250X-0.093750X0.156250X-0.093750X0*%
%ADD44RoundRect,0.075000X0.250000X0.075000X-0.250000X0.075000X-0.250000X-0.075000X0.250000X-0.075000X0*%
%ADD45RoundRect,0.075000X-0.662500X-0.075000X0.662500X-0.075000X0.662500X0.075000X-0.662500X0.075000X0*%
%ADD46RoundRect,0.075000X-0.075000X-0.662500X0.075000X-0.662500X0.075000X0.662500X-0.075000X0.662500X0*%
%ADD47C,1.000000*%
%ADD48R,1.000000X1.000000*%
%ADD49RoundRect,0.150000X0.512500X0.150000X-0.512500X0.150000X-0.512500X-0.150000X0.512500X-0.150000X0*%
%ADD50RoundRect,0.225000X-0.250000X0.225000X-0.250000X-0.225000X0.250000X-0.225000X0.250000X0.225000X0*%
%ADD51RoundRect,0.250000X0.600000X0.725000X-0.600000X0.725000X-0.600000X-0.725000X0.600000X-0.725000X0*%
%ADD52O,1.700000X1.950000*%
%ADD53RoundRect,0.062500X-0.062500X0.375000X-0.062500X-0.375000X0.062500X-0.375000X0.062500X0.375000X0*%
%ADD54RoundRect,0.062500X-0.375000X0.062500X-0.375000X-0.062500X0.375000X-0.062500X0.375000X0.062500X0*%
%ADD55C,1.650000*%
%ADD56C,4.710000*%
%ADD57RoundRect,0.249999X-1.250001X-1.250001X1.250001X-1.250001X1.250001X1.250001X-1.250001X1.250001X0*%
%ADD58C,3.000000*%
G04 APERTURE END LIST*
D10*
%TO.C,U3*%
X145187500Y-108825000D02*
X145187500Y-108675000D01*
X145187500Y-108672000D01*
X145187500Y-108670000D01*
X145186500Y-108667000D01*
X145186500Y-108665000D01*
X145185500Y-108662000D01*
X145185500Y-108660000D01*
X145184500Y-108657000D01*
X145183500Y-108655000D01*
X145182500Y-108652000D01*
X145180500Y-108650000D01*
X145179500Y-108648000D01*
X145177500Y-108646000D01*
X145176500Y-108644000D01*
X145174500Y-108642000D01*
X145172500Y-108640000D01*
X145170500Y-108638000D01*
X145168500Y-108636000D01*
X145166500Y-108635000D01*
X145164500Y-108633000D01*
X145162500Y-108632000D01*
X145160500Y-108630000D01*
X145157500Y-108629000D01*
X145155500Y-108628000D01*
X145152500Y-108627000D01*
X145150500Y-108627000D01*
X145147500Y-108626000D01*
X145145500Y-108626000D01*
X145142500Y-108625000D01*
X145140500Y-108625000D01*
X145137500Y-108625000D01*
X143887500Y-108625000D01*
X143884500Y-108625000D01*
X143882500Y-108625000D01*
X143879500Y-108626000D01*
X143877500Y-108626000D01*
X143874500Y-108627000D01*
X143872500Y-108627000D01*
X143869500Y-108628000D01*
X143867500Y-108629000D01*
X143864500Y-108630000D01*
X143862500Y-108632000D01*
X143860500Y-108633000D01*
X143858500Y-108635000D01*
X143856500Y-108636000D01*
X143854500Y-108638000D01*
X143852500Y-108640000D01*
X143850500Y-108642000D01*
X143848500Y-108644000D01*
X143847500Y-108646000D01*
X143845500Y-108648000D01*
X143844500Y-108650000D01*
X143842500Y-108652000D01*
X143841500Y-108655000D01*
X143840500Y-108657000D01*
X143839500Y-108660000D01*
X143839500Y-108662000D01*
X143838500Y-108665000D01*
X143838500Y-108667000D01*
X143837500Y-108670000D01*
X143837500Y-108672000D01*
X143837500Y-108675000D01*
X143837500Y-108825000D01*
X143837500Y-108828000D01*
X143837500Y-108830000D01*
X143838500Y-108833000D01*
X143838500Y-108835000D01*
X143839500Y-108838000D01*
X143839500Y-108840000D01*
X143840500Y-108843000D01*
X143841500Y-108845000D01*
X143842500Y-108848000D01*
X143844500Y-108850000D01*
X143845500Y-108852000D01*
X143847500Y-108854000D01*
X143848500Y-108856000D01*
X143850500Y-108858000D01*
X143852500Y-108860000D01*
X143854500Y-108862000D01*
X143856500Y-108864000D01*
X143858500Y-108865000D01*
X143860500Y-108867000D01*
X143862500Y-108868000D01*
X143864500Y-108870000D01*
X143867500Y-108871000D01*
X143869500Y-108872000D01*
X143872500Y-108873000D01*
X143874500Y-108873000D01*
X143877500Y-108874000D01*
X143879500Y-108874000D01*
X143882500Y-108875000D01*
X143884500Y-108875000D01*
X143887500Y-108875000D01*
X145137500Y-108875000D01*
X145140500Y-108875000D01*
X145142500Y-108875000D01*
X145145500Y-108874000D01*
X145147500Y-108874000D01*
X145150500Y-108873000D01*
X145152500Y-108873000D01*
X145155500Y-108872000D01*
X145157500Y-108871000D01*
X145160500Y-108870000D01*
X145162500Y-108868000D01*
X145164500Y-108867000D01*
X145166500Y-108865000D01*
X145168500Y-108864000D01*
X145170500Y-108862000D01*
X145172500Y-108860000D01*
X145174500Y-108858000D01*
X145176500Y-108856000D01*
X145177500Y-108854000D01*
X145179500Y-108852000D01*
X145180500Y-108850000D01*
X145182500Y-108848000D01*
X145183500Y-108845000D01*
X145184500Y-108843000D01*
X145185500Y-108840000D01*
X145185500Y-108838000D01*
X145186500Y-108835000D01*
X145186500Y-108833000D01*
X145187500Y-108830000D01*
X145187500Y-108828000D01*
X145187500Y-108825000D01*
G36*
X145145500Y-108626000D02*
G01*
X145147500Y-108626000D01*
X145150500Y-108627000D01*
X145152500Y-108627000D01*
X145155500Y-108628000D01*
X145157500Y-108629000D01*
X145160500Y-108630000D01*
X145162500Y-108632000D01*
X145164500Y-108633000D01*
X145166500Y-108635000D01*
X145168500Y-108636000D01*
X145170500Y-108638000D01*
X145172500Y-108640000D01*
X145174500Y-108642000D01*
X145176500Y-108644000D01*
X145177500Y-108646000D01*
X145179500Y-108648000D01*
X145180500Y-108650000D01*
X145182500Y-108652000D01*
X145183500Y-108655000D01*
X145184500Y-108657000D01*
X145185500Y-108660000D01*
X145185500Y-108662000D01*
X145186500Y-108665000D01*
X145186500Y-108667000D01*
X145187500Y-108670000D01*
X145187500Y-108672000D01*
X145187500Y-108675000D01*
X145187500Y-108825000D01*
X145187500Y-108828000D01*
X145187500Y-108830000D01*
X145186500Y-108833000D01*
X145186500Y-108835000D01*
X145185500Y-108838000D01*
X145185500Y-108840000D01*
X145184500Y-108843000D01*
X145183500Y-108845000D01*
X145182500Y-108848000D01*
X145180500Y-108850000D01*
X145179500Y-108852000D01*
X145177500Y-108854000D01*
X145176500Y-108856000D01*
X145174500Y-108858000D01*
X145172500Y-108860000D01*
X145170500Y-108862000D01*
X145168500Y-108864000D01*
X145166500Y-108865000D01*
X145164500Y-108867000D01*
X145162500Y-108868000D01*
X145160500Y-108870000D01*
X145157500Y-108871000D01*
X145155500Y-108872000D01*
X145152500Y-108873000D01*
X145150500Y-108873000D01*
X145147500Y-108874000D01*
X145145500Y-108874000D01*
X145142500Y-108875000D01*
X145140500Y-108875000D01*
X145137500Y-108875000D01*
X143887500Y-108875000D01*
X143884500Y-108875000D01*
X143882500Y-108875000D01*
X143879500Y-108874000D01*
X143877500Y-108874000D01*
X143874500Y-108873000D01*
X143872500Y-108873000D01*
X143869500Y-108872000D01*
X143867500Y-108871000D01*
X143864500Y-108870000D01*
X143862500Y-108868000D01*
X143860500Y-108867000D01*
X143858500Y-108865000D01*
X143856500Y-108864000D01*
X143854500Y-108862000D01*
X143852500Y-108860000D01*
X143850500Y-108858000D01*
X143848500Y-108856000D01*
X143847500Y-108854000D01*
X143845500Y-108852000D01*
X143844500Y-108850000D01*
X143842500Y-108848000D01*
X143841500Y-108845000D01*
X143840500Y-108843000D01*
X143839500Y-108840000D01*
X143839500Y-108838000D01*
X143838500Y-108835000D01*
X143838500Y-108833000D01*
X143837500Y-108830000D01*
X143837500Y-108828000D01*
X143837500Y-108825000D01*
X143837500Y-108675000D01*
X143837500Y-108672000D01*
X143837500Y-108670000D01*
X143838500Y-108667000D01*
X143838500Y-108665000D01*
X143839500Y-108662000D01*
X143839500Y-108660000D01*
X143840500Y-108657000D01*
X143841500Y-108655000D01*
X143842500Y-108652000D01*
X143844500Y-108650000D01*
X143845500Y-108648000D01*
X143847500Y-108646000D01*
X143848500Y-108644000D01*
X143850500Y-108642000D01*
X143852500Y-108640000D01*
X143854500Y-108638000D01*
X143856500Y-108636000D01*
X143858500Y-108635000D01*
X143860500Y-108633000D01*
X143862500Y-108632000D01*
X143864500Y-108630000D01*
X143867500Y-108629000D01*
X143869500Y-108628000D01*
X143872500Y-108627000D01*
X143874500Y-108627000D01*
X143877500Y-108626000D01*
X143879500Y-108626000D01*
X143882500Y-108625000D01*
X143884500Y-108625000D01*
X143887500Y-108625000D01*
X145137500Y-108625000D01*
X145140500Y-108625000D01*
X145142500Y-108625000D01*
X145145500Y-108626000D01*
G37*
X145187500Y-109825000D02*
X145187500Y-109675000D01*
X145187500Y-109672000D01*
X145187500Y-109670000D01*
X145186500Y-109667000D01*
X145186500Y-109665000D01*
X145185500Y-109662000D01*
X145185500Y-109660000D01*
X145184500Y-109657000D01*
X145183500Y-109655000D01*
X145182500Y-109652000D01*
X145180500Y-109650000D01*
X145179500Y-109648000D01*
X145177500Y-109646000D01*
X145176500Y-109644000D01*
X145174500Y-109642000D01*
X145172500Y-109640000D01*
X145170500Y-109638000D01*
X145168500Y-109636000D01*
X145166500Y-109635000D01*
X145164500Y-109633000D01*
X145162500Y-109632000D01*
X145160500Y-109630000D01*
X145157500Y-109629000D01*
X145155500Y-109628000D01*
X145152500Y-109627000D01*
X145150500Y-109627000D01*
X145147500Y-109626000D01*
X145145500Y-109626000D01*
X145142500Y-109625000D01*
X145140500Y-109625000D01*
X145137500Y-109625000D01*
X143887500Y-109625000D01*
X143884500Y-109625000D01*
X143882500Y-109625000D01*
X143879500Y-109626000D01*
X143877500Y-109626000D01*
X143874500Y-109627000D01*
X143872500Y-109627000D01*
X143869500Y-109628000D01*
X143867500Y-109629000D01*
X143864500Y-109630000D01*
X143862500Y-109632000D01*
X143860500Y-109633000D01*
X143858500Y-109635000D01*
X143856500Y-109636000D01*
X143854500Y-109638000D01*
X143852500Y-109640000D01*
X143850500Y-109642000D01*
X143848500Y-109644000D01*
X143847500Y-109646000D01*
X143845500Y-109648000D01*
X143844500Y-109650000D01*
X143842500Y-109652000D01*
X143841500Y-109655000D01*
X143840500Y-109657000D01*
X143839500Y-109660000D01*
X143839500Y-109662000D01*
X143838500Y-109665000D01*
X143838500Y-109667000D01*
X143837500Y-109670000D01*
X143837500Y-109672000D01*
X143837500Y-109675000D01*
X143837500Y-109825000D01*
X143837500Y-109828000D01*
X143837500Y-109830000D01*
X143838500Y-109833000D01*
X143838500Y-109835000D01*
X143839500Y-109838000D01*
X143839500Y-109840000D01*
X143840500Y-109843000D01*
X143841500Y-109845000D01*
X143842500Y-109848000D01*
X143844500Y-109850000D01*
X143845500Y-109852000D01*
X143847500Y-109854000D01*
X143848500Y-109856000D01*
X143850500Y-109858000D01*
X143852500Y-109860000D01*
X143854500Y-109862000D01*
X143856500Y-109864000D01*
X143858500Y-109865000D01*
X143860500Y-109867000D01*
X143862500Y-109868000D01*
X143864500Y-109870000D01*
X143867500Y-109871000D01*
X143869500Y-109872000D01*
X143872500Y-109873000D01*
X143874500Y-109873000D01*
X143877500Y-109874000D01*
X143879500Y-109874000D01*
X143882500Y-109875000D01*
X143884500Y-109875000D01*
X143887500Y-109875000D01*
X145137500Y-109875000D01*
X145140500Y-109875000D01*
X145142500Y-109875000D01*
X145145500Y-109874000D01*
X145147500Y-109874000D01*
X145150500Y-109873000D01*
X145152500Y-109873000D01*
X145155500Y-109872000D01*
X145157500Y-109871000D01*
X145160500Y-109870000D01*
X145162500Y-109868000D01*
X145164500Y-109867000D01*
X145166500Y-109865000D01*
X145168500Y-109864000D01*
X145170500Y-109862000D01*
X145172500Y-109860000D01*
X145174500Y-109858000D01*
X145176500Y-109856000D01*
X145177500Y-109854000D01*
X145179500Y-109852000D01*
X145180500Y-109850000D01*
X145182500Y-109848000D01*
X145183500Y-109845000D01*
X145184500Y-109843000D01*
X145185500Y-109840000D01*
X145185500Y-109838000D01*
X145186500Y-109835000D01*
X145186500Y-109833000D01*
X145187500Y-109830000D01*
X145187500Y-109828000D01*
X145187500Y-109825000D01*
G36*
X145145500Y-109626000D02*
G01*
X145147500Y-109626000D01*
X145150500Y-109627000D01*
X145152500Y-109627000D01*
X145155500Y-109628000D01*
X145157500Y-109629000D01*
X145160500Y-109630000D01*
X145162500Y-109632000D01*
X145164500Y-109633000D01*
X145166500Y-109635000D01*
X145168500Y-109636000D01*
X145170500Y-109638000D01*
X145172500Y-109640000D01*
X145174500Y-109642000D01*
X145176500Y-109644000D01*
X145177500Y-109646000D01*
X145179500Y-109648000D01*
X145180500Y-109650000D01*
X145182500Y-109652000D01*
X145183500Y-109655000D01*
X145184500Y-109657000D01*
X145185500Y-109660000D01*
X145185500Y-109662000D01*
X145186500Y-109665000D01*
X145186500Y-109667000D01*
X145187500Y-109670000D01*
X145187500Y-109672000D01*
X145187500Y-109675000D01*
X145187500Y-109825000D01*
X145187500Y-109828000D01*
X145187500Y-109830000D01*
X145186500Y-109833000D01*
X145186500Y-109835000D01*
X145185500Y-109838000D01*
X145185500Y-109840000D01*
X145184500Y-109843000D01*
X145183500Y-109845000D01*
X145182500Y-109848000D01*
X145180500Y-109850000D01*
X145179500Y-109852000D01*
X145177500Y-109854000D01*
X145176500Y-109856000D01*
X145174500Y-109858000D01*
X145172500Y-109860000D01*
X145170500Y-109862000D01*
X145168500Y-109864000D01*
X145166500Y-109865000D01*
X145164500Y-109867000D01*
X145162500Y-109868000D01*
X145160500Y-109870000D01*
X145157500Y-109871000D01*
X145155500Y-109872000D01*
X145152500Y-109873000D01*
X145150500Y-109873000D01*
X145147500Y-109874000D01*
X145145500Y-109874000D01*
X145142500Y-109875000D01*
X145140500Y-109875000D01*
X145137500Y-109875000D01*
X143887500Y-109875000D01*
X143884500Y-109875000D01*
X143882500Y-109875000D01*
X143879500Y-109874000D01*
X143877500Y-109874000D01*
X143874500Y-109873000D01*
X143872500Y-109873000D01*
X143869500Y-109872000D01*
X143867500Y-109871000D01*
X143864500Y-109870000D01*
X143862500Y-109868000D01*
X143860500Y-109867000D01*
X143858500Y-109865000D01*
X143856500Y-109864000D01*
X143854500Y-109862000D01*
X143852500Y-109860000D01*
X143850500Y-109858000D01*
X143848500Y-109856000D01*
X143847500Y-109854000D01*
X143845500Y-109852000D01*
X143844500Y-109850000D01*
X143842500Y-109848000D01*
X143841500Y-109845000D01*
X143840500Y-109843000D01*
X143839500Y-109840000D01*
X143839500Y-109838000D01*
X143838500Y-109835000D01*
X143838500Y-109833000D01*
X143837500Y-109830000D01*
X143837500Y-109828000D01*
X143837500Y-109825000D01*
X143837500Y-109675000D01*
X143837500Y-109672000D01*
X143837500Y-109670000D01*
X143838500Y-109667000D01*
X143838500Y-109665000D01*
X143839500Y-109662000D01*
X143839500Y-109660000D01*
X143840500Y-109657000D01*
X143841500Y-109655000D01*
X143842500Y-109652000D01*
X143844500Y-109650000D01*
X143845500Y-109648000D01*
X143847500Y-109646000D01*
X143848500Y-109644000D01*
X143850500Y-109642000D01*
X143852500Y-109640000D01*
X143854500Y-109638000D01*
X143856500Y-109636000D01*
X143858500Y-109635000D01*
X143860500Y-109633000D01*
X143862500Y-109632000D01*
X143864500Y-109630000D01*
X143867500Y-109629000D01*
X143869500Y-109628000D01*
X143872500Y-109627000D01*
X143874500Y-109627000D01*
X143877500Y-109626000D01*
X143879500Y-109626000D01*
X143882500Y-109625000D01*
X143884500Y-109625000D01*
X143887500Y-109625000D01*
X145137500Y-109625000D01*
X145140500Y-109625000D01*
X145142500Y-109625000D01*
X145145500Y-109626000D01*
G37*
X145537500Y-109325000D02*
X145537500Y-109175000D01*
X145537500Y-109172000D01*
X145537500Y-109170000D01*
X145536500Y-109167000D01*
X145536500Y-109165000D01*
X145535500Y-109162000D01*
X145535500Y-109160000D01*
X145534500Y-109157000D01*
X145533500Y-109155000D01*
X145532500Y-109152000D01*
X145530500Y-109150000D01*
X145529500Y-109148000D01*
X145527500Y-109146000D01*
X145526500Y-109144000D01*
X145524500Y-109142000D01*
X145522500Y-109140000D01*
X145520500Y-109138000D01*
X145518500Y-109136000D01*
X145516500Y-109135000D01*
X145514500Y-109133000D01*
X145512500Y-109132000D01*
X145510500Y-109130000D01*
X145507500Y-109129000D01*
X145505500Y-109128000D01*
X145502500Y-109127000D01*
X145500500Y-109127000D01*
X145497500Y-109126000D01*
X145495500Y-109126000D01*
X145492500Y-109125000D01*
X145490500Y-109125000D01*
X145487500Y-109125000D01*
X143887500Y-109125000D01*
X143884500Y-109125000D01*
X143882500Y-109125000D01*
X143879500Y-109126000D01*
X143877500Y-109126000D01*
X143874500Y-109127000D01*
X143872500Y-109127000D01*
X143869500Y-109128000D01*
X143867500Y-109129000D01*
X143864500Y-109130000D01*
X143862500Y-109132000D01*
X143860500Y-109133000D01*
X143858500Y-109135000D01*
X143856500Y-109136000D01*
X143854500Y-109138000D01*
X143852500Y-109140000D01*
X143850500Y-109142000D01*
X143848500Y-109144000D01*
X143847500Y-109146000D01*
X143845500Y-109148000D01*
X143844500Y-109150000D01*
X143842500Y-109152000D01*
X143841500Y-109155000D01*
X143840500Y-109157000D01*
X143839500Y-109160000D01*
X143839500Y-109162000D01*
X143838500Y-109165000D01*
X143838500Y-109167000D01*
X143837500Y-109170000D01*
X143837500Y-109172000D01*
X143837500Y-109175000D01*
X143837500Y-109325000D01*
X143837500Y-109328000D01*
X143837500Y-109330000D01*
X143838500Y-109333000D01*
X143838500Y-109335000D01*
X143839500Y-109338000D01*
X143839500Y-109340000D01*
X143840500Y-109343000D01*
X143841500Y-109345000D01*
X143842500Y-109348000D01*
X143844500Y-109350000D01*
X143845500Y-109352000D01*
X143847500Y-109354000D01*
X143848500Y-109356000D01*
X143850500Y-109358000D01*
X143852500Y-109360000D01*
X143854500Y-109362000D01*
X143856500Y-109364000D01*
X143858500Y-109365000D01*
X143860500Y-109367000D01*
X143862500Y-109368000D01*
X143864500Y-109370000D01*
X143867500Y-109371000D01*
X143869500Y-109372000D01*
X143872500Y-109373000D01*
X143874500Y-109373000D01*
X143877500Y-109374000D01*
X143879500Y-109374000D01*
X143882500Y-109375000D01*
X143884500Y-109375000D01*
X143887500Y-109375000D01*
X145487500Y-109375000D01*
X145490500Y-109375000D01*
X145492500Y-109375000D01*
X145495500Y-109374000D01*
X145497500Y-109374000D01*
X145500500Y-109373000D01*
X145502500Y-109373000D01*
X145505500Y-109372000D01*
X145507500Y-109371000D01*
X145510500Y-109370000D01*
X145512500Y-109368000D01*
X145514500Y-109367000D01*
X145516500Y-109365000D01*
X145518500Y-109364000D01*
X145520500Y-109362000D01*
X145522500Y-109360000D01*
X145524500Y-109358000D01*
X145526500Y-109356000D01*
X145527500Y-109354000D01*
X145529500Y-109352000D01*
X145530500Y-109350000D01*
X145532500Y-109348000D01*
X145533500Y-109345000D01*
X145534500Y-109343000D01*
X145535500Y-109340000D01*
X145535500Y-109338000D01*
X145536500Y-109335000D01*
X145536500Y-109333000D01*
X145537500Y-109330000D01*
X145537500Y-109328000D01*
X145537500Y-109325000D01*
G36*
X145495500Y-109126000D02*
G01*
X145497500Y-109126000D01*
X145500500Y-109127000D01*
X145502500Y-109127000D01*
X145505500Y-109128000D01*
X145507500Y-109129000D01*
X145510500Y-109130000D01*
X145512500Y-109132000D01*
X145514500Y-109133000D01*
X145516500Y-109135000D01*
X145518500Y-109136000D01*
X145520500Y-109138000D01*
X145522500Y-109140000D01*
X145524500Y-109142000D01*
X145526500Y-109144000D01*
X145527500Y-109146000D01*
X145529500Y-109148000D01*
X145530500Y-109150000D01*
X145532500Y-109152000D01*
X145533500Y-109155000D01*
X145534500Y-109157000D01*
X145535500Y-109160000D01*
X145535500Y-109162000D01*
X145536500Y-109165000D01*
X145536500Y-109167000D01*
X145537500Y-109170000D01*
X145537500Y-109172000D01*
X145537500Y-109175000D01*
X145537500Y-109325000D01*
X145537500Y-109328000D01*
X145537500Y-109330000D01*
X145536500Y-109333000D01*
X145536500Y-109335000D01*
X145535500Y-109338000D01*
X145535500Y-109340000D01*
X145534500Y-109343000D01*
X145533500Y-109345000D01*
X145532500Y-109348000D01*
X145530500Y-109350000D01*
X145529500Y-109352000D01*
X145527500Y-109354000D01*
X145526500Y-109356000D01*
X145524500Y-109358000D01*
X145522500Y-109360000D01*
X145520500Y-109362000D01*
X145518500Y-109364000D01*
X145516500Y-109365000D01*
X145514500Y-109367000D01*
X145512500Y-109368000D01*
X145510500Y-109370000D01*
X145507500Y-109371000D01*
X145505500Y-109372000D01*
X145502500Y-109373000D01*
X145500500Y-109373000D01*
X145497500Y-109374000D01*
X145495500Y-109374000D01*
X145492500Y-109375000D01*
X145490500Y-109375000D01*
X145487500Y-109375000D01*
X143887500Y-109375000D01*
X143884500Y-109375000D01*
X143882500Y-109375000D01*
X143879500Y-109374000D01*
X143877500Y-109374000D01*
X143874500Y-109373000D01*
X143872500Y-109373000D01*
X143869500Y-109372000D01*
X143867500Y-109371000D01*
X143864500Y-109370000D01*
X143862500Y-109368000D01*
X143860500Y-109367000D01*
X143858500Y-109365000D01*
X143856500Y-109364000D01*
X143854500Y-109362000D01*
X143852500Y-109360000D01*
X143850500Y-109358000D01*
X143848500Y-109356000D01*
X143847500Y-109354000D01*
X143845500Y-109352000D01*
X143844500Y-109350000D01*
X143842500Y-109348000D01*
X143841500Y-109345000D01*
X143840500Y-109343000D01*
X143839500Y-109340000D01*
X143839500Y-109338000D01*
X143838500Y-109335000D01*
X143838500Y-109333000D01*
X143837500Y-109330000D01*
X143837500Y-109328000D01*
X143837500Y-109325000D01*
X143837500Y-109175000D01*
X143837500Y-109172000D01*
X143837500Y-109170000D01*
X143838500Y-109167000D01*
X143838500Y-109165000D01*
X143839500Y-109162000D01*
X143839500Y-109160000D01*
X143840500Y-109157000D01*
X143841500Y-109155000D01*
X143842500Y-109152000D01*
X143844500Y-109150000D01*
X143845500Y-109148000D01*
X143847500Y-109146000D01*
X143848500Y-109144000D01*
X143850500Y-109142000D01*
X143852500Y-109140000D01*
X143854500Y-109138000D01*
X143856500Y-109136000D01*
X143858500Y-109135000D01*
X143860500Y-109133000D01*
X143862500Y-109132000D01*
X143864500Y-109130000D01*
X143867500Y-109129000D01*
X143869500Y-109128000D01*
X143872500Y-109127000D01*
X143874500Y-109127000D01*
X143877500Y-109126000D01*
X143879500Y-109126000D01*
X143882500Y-109125000D01*
X143884500Y-109125000D01*
X143887500Y-109125000D01*
X145487500Y-109125000D01*
X145490500Y-109125000D01*
X145492500Y-109125000D01*
X145495500Y-109126000D01*
G37*
X145687500Y-108100000D02*
X145687500Y-107600000D01*
X145687500Y-107595000D01*
X145686500Y-107590000D01*
X145686500Y-107584000D01*
X145685500Y-107579000D01*
X145684500Y-107574000D01*
X145682500Y-107569000D01*
X145680500Y-107564000D01*
X145678500Y-107559000D01*
X145676500Y-107555000D01*
X145674500Y-107550000D01*
X145671500Y-107546000D01*
X145668500Y-107541000D01*
X145665500Y-107537000D01*
X145661500Y-107533000D01*
X145658500Y-107529000D01*
X145654500Y-107526000D01*
X145650500Y-107522000D01*
X145646500Y-107519000D01*
X145641500Y-107516000D01*
X145637500Y-107513000D01*
X145632500Y-107511000D01*
X145628500Y-107509000D01*
X145623500Y-107507000D01*
X145618500Y-107505000D01*
X145613500Y-107503000D01*
X145608500Y-107502000D01*
X145603500Y-107501000D01*
X145597500Y-107501000D01*
X145592500Y-107500000D01*
X145587500Y-107500000D01*
X145437500Y-107500000D01*
X145432500Y-107500000D01*
X145427500Y-107501000D01*
X145421500Y-107501000D01*
X145416500Y-107502000D01*
X145411500Y-107503000D01*
X145406500Y-107505000D01*
X145401500Y-107507000D01*
X145396500Y-107509000D01*
X145392500Y-107511000D01*
X145387500Y-107513000D01*
X145383500Y-107516000D01*
X145378500Y-107519000D01*
X145374500Y-107522000D01*
X145370500Y-107526000D01*
X145366500Y-107529000D01*
X145363500Y-107533000D01*
X145359500Y-107537000D01*
X145356500Y-107541000D01*
X145353500Y-107546000D01*
X145350500Y-107550000D01*
X145348500Y-107555000D01*
X145346500Y-107559000D01*
X145344500Y-107564000D01*
X145342500Y-107569000D01*
X145340500Y-107574000D01*
X145339500Y-107579000D01*
X145338500Y-107584000D01*
X145338500Y-107590000D01*
X145337500Y-107595000D01*
X145337500Y-107600000D01*
X145337500Y-108100000D01*
X145337500Y-108105000D01*
X145338500Y-108110000D01*
X145338500Y-108116000D01*
X145339500Y-108121000D01*
X145340500Y-108126000D01*
X145342500Y-108131000D01*
X145344500Y-108136000D01*
X145346500Y-108141000D01*
X145348500Y-108145000D01*
X145350500Y-108150000D01*
X145353500Y-108154000D01*
X145356500Y-108159000D01*
X145359500Y-108163000D01*
X145363500Y-108167000D01*
X145366500Y-108171000D01*
X145370500Y-108174000D01*
X145374500Y-108178000D01*
X145378500Y-108181000D01*
X145383500Y-108184000D01*
X145387500Y-108187000D01*
X145392500Y-108189000D01*
X145396500Y-108191000D01*
X145401500Y-108193000D01*
X145406500Y-108195000D01*
X145411500Y-108197000D01*
X145416500Y-108198000D01*
X145421500Y-108199000D01*
X145427500Y-108199000D01*
X145432500Y-108200000D01*
X145437500Y-108200000D01*
X145587500Y-108200000D01*
X145592500Y-108200000D01*
X145597500Y-108199000D01*
X145603500Y-108199000D01*
X145608500Y-108198000D01*
X145613500Y-108197000D01*
X145618500Y-108195000D01*
X145623500Y-108193000D01*
X145628500Y-108191000D01*
X145632500Y-108189000D01*
X145637500Y-108187000D01*
X145641500Y-108184000D01*
X145646500Y-108181000D01*
X145650500Y-108178000D01*
X145654500Y-108174000D01*
X145658500Y-108171000D01*
X145661500Y-108167000D01*
X145665500Y-108163000D01*
X145668500Y-108159000D01*
X145671500Y-108154000D01*
X145674500Y-108150000D01*
X145676500Y-108145000D01*
X145678500Y-108141000D01*
X145680500Y-108136000D01*
X145682500Y-108131000D01*
X145684500Y-108126000D01*
X145685500Y-108121000D01*
X145686500Y-108116000D01*
X145686500Y-108110000D01*
X145687500Y-108105000D01*
X145687500Y-108100000D01*
G36*
X145597500Y-107501000D02*
G01*
X145603500Y-107501000D01*
X145608500Y-107502000D01*
X145613500Y-107503000D01*
X145618500Y-107505000D01*
X145623500Y-107507000D01*
X145628500Y-107509000D01*
X145632500Y-107511000D01*
X145637500Y-107513000D01*
X145641500Y-107516000D01*
X145646500Y-107519000D01*
X145650500Y-107522000D01*
X145654500Y-107526000D01*
X145658500Y-107529000D01*
X145661500Y-107533000D01*
X145665500Y-107537000D01*
X145668500Y-107541000D01*
X145671500Y-107546000D01*
X145674500Y-107550000D01*
X145676500Y-107555000D01*
X145678500Y-107559000D01*
X145680500Y-107564000D01*
X145682500Y-107569000D01*
X145684500Y-107574000D01*
X145685500Y-107579000D01*
X145686500Y-107584000D01*
X145686500Y-107590000D01*
X145687500Y-107595000D01*
X145687500Y-107600000D01*
X145687500Y-108100000D01*
X145687500Y-108105000D01*
X145686500Y-108110000D01*
X145686500Y-108116000D01*
X145685500Y-108121000D01*
X145684500Y-108126000D01*
X145682500Y-108131000D01*
X145680500Y-108136000D01*
X145678500Y-108141000D01*
X145676500Y-108145000D01*
X145674500Y-108150000D01*
X145671500Y-108154000D01*
X145668500Y-108159000D01*
X145665500Y-108163000D01*
X145661500Y-108167000D01*
X145658500Y-108171000D01*
X145654500Y-108174000D01*
X145650500Y-108178000D01*
X145646500Y-108181000D01*
X145641500Y-108184000D01*
X145637500Y-108187000D01*
X145632500Y-108189000D01*
X145628500Y-108191000D01*
X145623500Y-108193000D01*
X145618500Y-108195000D01*
X145613500Y-108197000D01*
X145608500Y-108198000D01*
X145603500Y-108199000D01*
X145597500Y-108199000D01*
X145592500Y-108200000D01*
X145587500Y-108200000D01*
X145437500Y-108200000D01*
X145432500Y-108200000D01*
X145427500Y-108199000D01*
X145421500Y-108199000D01*
X145416500Y-108198000D01*
X145411500Y-108197000D01*
X145406500Y-108195000D01*
X145401500Y-108193000D01*
X145396500Y-108191000D01*
X145392500Y-108189000D01*
X145387500Y-108187000D01*
X145383500Y-108184000D01*
X145378500Y-108181000D01*
X145374500Y-108178000D01*
X145370500Y-108174000D01*
X145366500Y-108171000D01*
X145363500Y-108167000D01*
X145359500Y-108163000D01*
X145356500Y-108159000D01*
X145353500Y-108154000D01*
X145350500Y-108150000D01*
X145348500Y-108145000D01*
X145346500Y-108141000D01*
X145344500Y-108136000D01*
X145342500Y-108131000D01*
X145340500Y-108126000D01*
X145339500Y-108121000D01*
X145338500Y-108116000D01*
X145338500Y-108110000D01*
X145337500Y-108105000D01*
X145337500Y-108100000D01*
X145337500Y-107600000D01*
X145337500Y-107595000D01*
X145338500Y-107590000D01*
X145338500Y-107584000D01*
X145339500Y-107579000D01*
X145340500Y-107574000D01*
X145342500Y-107569000D01*
X145344500Y-107564000D01*
X145346500Y-107559000D01*
X145348500Y-107555000D01*
X145350500Y-107550000D01*
X145353500Y-107546000D01*
X145356500Y-107541000D01*
X145359500Y-107537000D01*
X145363500Y-107533000D01*
X145366500Y-107529000D01*
X145370500Y-107526000D01*
X145374500Y-107522000D01*
X145378500Y-107519000D01*
X145383500Y-107516000D01*
X145387500Y-107513000D01*
X145392500Y-107511000D01*
X145396500Y-107509000D01*
X145401500Y-107507000D01*
X145406500Y-107505000D01*
X145411500Y-107503000D01*
X145416500Y-107502000D01*
X145421500Y-107501000D01*
X145427500Y-107501000D01*
X145432500Y-107500000D01*
X145437500Y-107500000D01*
X145587500Y-107500000D01*
X145592500Y-107500000D01*
X145597500Y-107501000D01*
G37*
X145687500Y-110900000D02*
X145687500Y-110400000D01*
X145687500Y-110395000D01*
X145686500Y-110390000D01*
X145686500Y-110384000D01*
X145685500Y-110379000D01*
X145684500Y-110374000D01*
X145682500Y-110369000D01*
X145680500Y-110364000D01*
X145678500Y-110359000D01*
X145676500Y-110355000D01*
X145674500Y-110350000D01*
X145671500Y-110346000D01*
X145668500Y-110341000D01*
X145665500Y-110337000D01*
X145661500Y-110333000D01*
X145658500Y-110329000D01*
X145654500Y-110326000D01*
X145650500Y-110322000D01*
X145646500Y-110319000D01*
X145641500Y-110316000D01*
X145637500Y-110313000D01*
X145632500Y-110311000D01*
X145628500Y-110309000D01*
X145623500Y-110307000D01*
X145618500Y-110305000D01*
X145613500Y-110303000D01*
X145608500Y-110302000D01*
X145603500Y-110301000D01*
X145597500Y-110301000D01*
X145592500Y-110300000D01*
X145587500Y-110300000D01*
X145437500Y-110300000D01*
X145432500Y-110300000D01*
X145427500Y-110301000D01*
X145421500Y-110301000D01*
X145416500Y-110302000D01*
X145411500Y-110303000D01*
X145406500Y-110305000D01*
X145401500Y-110307000D01*
X145396500Y-110309000D01*
X145392500Y-110311000D01*
X145387500Y-110313000D01*
X145383500Y-110316000D01*
X145378500Y-110319000D01*
X145374500Y-110322000D01*
X145370500Y-110326000D01*
X145366500Y-110329000D01*
X145363500Y-110333000D01*
X145359500Y-110337000D01*
X145356500Y-110341000D01*
X145353500Y-110346000D01*
X145350500Y-110350000D01*
X145348500Y-110355000D01*
X145346500Y-110359000D01*
X145344500Y-110364000D01*
X145342500Y-110369000D01*
X145340500Y-110374000D01*
X145339500Y-110379000D01*
X145338500Y-110384000D01*
X145338500Y-110390000D01*
X145337500Y-110395000D01*
X145337500Y-110400000D01*
X145337500Y-110900000D01*
X145337500Y-110905000D01*
X145338500Y-110910000D01*
X145338500Y-110916000D01*
X145339500Y-110921000D01*
X145340500Y-110926000D01*
X145342500Y-110931000D01*
X145344500Y-110936000D01*
X145346500Y-110941000D01*
X145348500Y-110945000D01*
X145350500Y-110950000D01*
X145353500Y-110954000D01*
X145356500Y-110959000D01*
X145359500Y-110963000D01*
X145363500Y-110967000D01*
X145366500Y-110971000D01*
X145370500Y-110974000D01*
X145374500Y-110978000D01*
X145378500Y-110981000D01*
X145383500Y-110984000D01*
X145387500Y-110987000D01*
X145392500Y-110989000D01*
X145396500Y-110991000D01*
X145401500Y-110993000D01*
X145406500Y-110995000D01*
X145411500Y-110997000D01*
X145416500Y-110998000D01*
X145421500Y-110999000D01*
X145427500Y-110999000D01*
X145432500Y-111000000D01*
X145437500Y-111000000D01*
X145587500Y-111000000D01*
X145592500Y-111000000D01*
X145597500Y-110999000D01*
X145603500Y-110999000D01*
X145608500Y-110998000D01*
X145613500Y-110997000D01*
X145618500Y-110995000D01*
X145623500Y-110993000D01*
X145628500Y-110991000D01*
X145632500Y-110989000D01*
X145637500Y-110987000D01*
X145641500Y-110984000D01*
X145646500Y-110981000D01*
X145650500Y-110978000D01*
X145654500Y-110974000D01*
X145658500Y-110971000D01*
X145661500Y-110967000D01*
X145665500Y-110963000D01*
X145668500Y-110959000D01*
X145671500Y-110954000D01*
X145674500Y-110950000D01*
X145676500Y-110945000D01*
X145678500Y-110941000D01*
X145680500Y-110936000D01*
X145682500Y-110931000D01*
X145684500Y-110926000D01*
X145685500Y-110921000D01*
X145686500Y-110916000D01*
X145686500Y-110910000D01*
X145687500Y-110905000D01*
X145687500Y-110900000D01*
G36*
X145597500Y-110301000D02*
G01*
X145603500Y-110301000D01*
X145608500Y-110302000D01*
X145613500Y-110303000D01*
X145618500Y-110305000D01*
X145623500Y-110307000D01*
X145628500Y-110309000D01*
X145632500Y-110311000D01*
X145637500Y-110313000D01*
X145641500Y-110316000D01*
X145646500Y-110319000D01*
X145650500Y-110322000D01*
X145654500Y-110326000D01*
X145658500Y-110329000D01*
X145661500Y-110333000D01*
X145665500Y-110337000D01*
X145668500Y-110341000D01*
X145671500Y-110346000D01*
X145674500Y-110350000D01*
X145676500Y-110355000D01*
X145678500Y-110359000D01*
X145680500Y-110364000D01*
X145682500Y-110369000D01*
X145684500Y-110374000D01*
X145685500Y-110379000D01*
X145686500Y-110384000D01*
X145686500Y-110390000D01*
X145687500Y-110395000D01*
X145687500Y-110400000D01*
X145687500Y-110900000D01*
X145687500Y-110905000D01*
X145686500Y-110910000D01*
X145686500Y-110916000D01*
X145685500Y-110921000D01*
X145684500Y-110926000D01*
X145682500Y-110931000D01*
X145680500Y-110936000D01*
X145678500Y-110941000D01*
X145676500Y-110945000D01*
X145674500Y-110950000D01*
X145671500Y-110954000D01*
X145668500Y-110959000D01*
X145665500Y-110963000D01*
X145661500Y-110967000D01*
X145658500Y-110971000D01*
X145654500Y-110974000D01*
X145650500Y-110978000D01*
X145646500Y-110981000D01*
X145641500Y-110984000D01*
X145637500Y-110987000D01*
X145632500Y-110989000D01*
X145628500Y-110991000D01*
X145623500Y-110993000D01*
X145618500Y-110995000D01*
X145613500Y-110997000D01*
X145608500Y-110998000D01*
X145603500Y-110999000D01*
X145597500Y-110999000D01*
X145592500Y-111000000D01*
X145587500Y-111000000D01*
X145437500Y-111000000D01*
X145432500Y-111000000D01*
X145427500Y-110999000D01*
X145421500Y-110999000D01*
X145416500Y-110998000D01*
X145411500Y-110997000D01*
X145406500Y-110995000D01*
X145401500Y-110993000D01*
X145396500Y-110991000D01*
X145392500Y-110989000D01*
X145387500Y-110987000D01*
X145383500Y-110984000D01*
X145378500Y-110981000D01*
X145374500Y-110978000D01*
X145370500Y-110974000D01*
X145366500Y-110971000D01*
X145363500Y-110967000D01*
X145359500Y-110963000D01*
X145356500Y-110959000D01*
X145353500Y-110954000D01*
X145350500Y-110950000D01*
X145348500Y-110945000D01*
X145346500Y-110941000D01*
X145344500Y-110936000D01*
X145342500Y-110931000D01*
X145340500Y-110926000D01*
X145339500Y-110921000D01*
X145338500Y-110916000D01*
X145338500Y-110910000D01*
X145337500Y-110905000D01*
X145337500Y-110900000D01*
X145337500Y-110400000D01*
X145337500Y-110395000D01*
X145338500Y-110390000D01*
X145338500Y-110384000D01*
X145339500Y-110379000D01*
X145340500Y-110374000D01*
X145342500Y-110369000D01*
X145344500Y-110364000D01*
X145346500Y-110359000D01*
X145348500Y-110355000D01*
X145350500Y-110350000D01*
X145353500Y-110346000D01*
X145356500Y-110341000D01*
X145359500Y-110337000D01*
X145363500Y-110333000D01*
X145366500Y-110329000D01*
X145370500Y-110326000D01*
X145374500Y-110322000D01*
X145378500Y-110319000D01*
X145383500Y-110316000D01*
X145387500Y-110313000D01*
X145392500Y-110311000D01*
X145396500Y-110309000D01*
X145401500Y-110307000D01*
X145406500Y-110305000D01*
X145411500Y-110303000D01*
X145416500Y-110302000D01*
X145421500Y-110301000D01*
X145427500Y-110301000D01*
X145432500Y-110300000D01*
X145437500Y-110300000D01*
X145587500Y-110300000D01*
X145592500Y-110300000D01*
X145597500Y-110301000D01*
G37*
X146187500Y-108100000D02*
X146187500Y-107600000D01*
X146187500Y-107595000D01*
X146186500Y-107590000D01*
X146186500Y-107584000D01*
X146185500Y-107579000D01*
X146184500Y-107574000D01*
X146182500Y-107569000D01*
X146180500Y-107564000D01*
X146178500Y-107559000D01*
X146176500Y-107555000D01*
X146174500Y-107550000D01*
X146171500Y-107546000D01*
X146168500Y-107541000D01*
X146165500Y-107537000D01*
X146161500Y-107533000D01*
X146158500Y-107529000D01*
X146154500Y-107526000D01*
X146150500Y-107522000D01*
X146146500Y-107519000D01*
X146141500Y-107516000D01*
X146137500Y-107513000D01*
X146132500Y-107511000D01*
X146128500Y-107509000D01*
X146123500Y-107507000D01*
X146118500Y-107505000D01*
X146113500Y-107503000D01*
X146108500Y-107502000D01*
X146103500Y-107501000D01*
X146097500Y-107501000D01*
X146092500Y-107500000D01*
X146087500Y-107500000D01*
X145937500Y-107500000D01*
X145932500Y-107500000D01*
X145927500Y-107501000D01*
X145921500Y-107501000D01*
X145916500Y-107502000D01*
X145911500Y-107503000D01*
X145906500Y-107505000D01*
X145901500Y-107507000D01*
X145896500Y-107509000D01*
X145892500Y-107511000D01*
X145887500Y-107513000D01*
X145883500Y-107516000D01*
X145878500Y-107519000D01*
X145874500Y-107522000D01*
X145870500Y-107526000D01*
X145866500Y-107529000D01*
X145863500Y-107533000D01*
X145859500Y-107537000D01*
X145856500Y-107541000D01*
X145853500Y-107546000D01*
X145850500Y-107550000D01*
X145848500Y-107555000D01*
X145846500Y-107559000D01*
X145844500Y-107564000D01*
X145842500Y-107569000D01*
X145840500Y-107574000D01*
X145839500Y-107579000D01*
X145838500Y-107584000D01*
X145838500Y-107590000D01*
X145837500Y-107595000D01*
X145837500Y-107600000D01*
X145837500Y-108100000D01*
X145837500Y-108105000D01*
X145838500Y-108110000D01*
X145838500Y-108116000D01*
X145839500Y-108121000D01*
X145840500Y-108126000D01*
X145842500Y-108131000D01*
X145844500Y-108136000D01*
X145846500Y-108141000D01*
X145848500Y-108145000D01*
X145850500Y-108150000D01*
X145853500Y-108154000D01*
X145856500Y-108159000D01*
X145859500Y-108163000D01*
X145863500Y-108167000D01*
X145866500Y-108171000D01*
X145870500Y-108174000D01*
X145874500Y-108178000D01*
X145878500Y-108181000D01*
X145883500Y-108184000D01*
X145887500Y-108187000D01*
X145892500Y-108189000D01*
X145896500Y-108191000D01*
X145901500Y-108193000D01*
X145906500Y-108195000D01*
X145911500Y-108197000D01*
X145916500Y-108198000D01*
X145921500Y-108199000D01*
X145927500Y-108199000D01*
X145932500Y-108200000D01*
X145937500Y-108200000D01*
X146087500Y-108200000D01*
X146092500Y-108200000D01*
X146097500Y-108199000D01*
X146103500Y-108199000D01*
X146108500Y-108198000D01*
X146113500Y-108197000D01*
X146118500Y-108195000D01*
X146123500Y-108193000D01*
X146128500Y-108191000D01*
X146132500Y-108189000D01*
X146137500Y-108187000D01*
X146141500Y-108184000D01*
X146146500Y-108181000D01*
X146150500Y-108178000D01*
X146154500Y-108174000D01*
X146158500Y-108171000D01*
X146161500Y-108167000D01*
X146165500Y-108163000D01*
X146168500Y-108159000D01*
X146171500Y-108154000D01*
X146174500Y-108150000D01*
X146176500Y-108145000D01*
X146178500Y-108141000D01*
X146180500Y-108136000D01*
X146182500Y-108131000D01*
X146184500Y-108126000D01*
X146185500Y-108121000D01*
X146186500Y-108116000D01*
X146186500Y-108110000D01*
X146187500Y-108105000D01*
X146187500Y-108100000D01*
G36*
X146097500Y-107501000D02*
G01*
X146103500Y-107501000D01*
X146108500Y-107502000D01*
X146113500Y-107503000D01*
X146118500Y-107505000D01*
X146123500Y-107507000D01*
X146128500Y-107509000D01*
X146132500Y-107511000D01*
X146137500Y-107513000D01*
X146141500Y-107516000D01*
X146146500Y-107519000D01*
X146150500Y-107522000D01*
X146154500Y-107526000D01*
X146158500Y-107529000D01*
X146161500Y-107533000D01*
X146165500Y-107537000D01*
X146168500Y-107541000D01*
X146171500Y-107546000D01*
X146174500Y-107550000D01*
X146176500Y-107555000D01*
X146178500Y-107559000D01*
X146180500Y-107564000D01*
X146182500Y-107569000D01*
X146184500Y-107574000D01*
X146185500Y-107579000D01*
X146186500Y-107584000D01*
X146186500Y-107590000D01*
X146187500Y-107595000D01*
X146187500Y-107600000D01*
X146187500Y-108100000D01*
X146187500Y-108105000D01*
X146186500Y-108110000D01*
X146186500Y-108116000D01*
X146185500Y-108121000D01*
X146184500Y-108126000D01*
X146182500Y-108131000D01*
X146180500Y-108136000D01*
X146178500Y-108141000D01*
X146176500Y-108145000D01*
X146174500Y-108150000D01*
X146171500Y-108154000D01*
X146168500Y-108159000D01*
X146165500Y-108163000D01*
X146161500Y-108167000D01*
X146158500Y-108171000D01*
X146154500Y-108174000D01*
X146150500Y-108178000D01*
X146146500Y-108181000D01*
X146141500Y-108184000D01*
X146137500Y-108187000D01*
X146132500Y-108189000D01*
X146128500Y-108191000D01*
X146123500Y-108193000D01*
X146118500Y-108195000D01*
X146113500Y-108197000D01*
X146108500Y-108198000D01*
X146103500Y-108199000D01*
X146097500Y-108199000D01*
X146092500Y-108200000D01*
X146087500Y-108200000D01*
X145937500Y-108200000D01*
X145932500Y-108200000D01*
X145927500Y-108199000D01*
X145921500Y-108199000D01*
X145916500Y-108198000D01*
X145911500Y-108197000D01*
X145906500Y-108195000D01*
X145901500Y-108193000D01*
X145896500Y-108191000D01*
X145892500Y-108189000D01*
X145887500Y-108187000D01*
X145883500Y-108184000D01*
X145878500Y-108181000D01*
X145874500Y-108178000D01*
X145870500Y-108174000D01*
X145866500Y-108171000D01*
X145863500Y-108167000D01*
X145859500Y-108163000D01*
X145856500Y-108159000D01*
X145853500Y-108154000D01*
X145850500Y-108150000D01*
X145848500Y-108145000D01*
X145846500Y-108141000D01*
X145844500Y-108136000D01*
X145842500Y-108131000D01*
X145840500Y-108126000D01*
X145839500Y-108121000D01*
X145838500Y-108116000D01*
X145838500Y-108110000D01*
X145837500Y-108105000D01*
X145837500Y-108100000D01*
X145837500Y-107600000D01*
X145837500Y-107595000D01*
X145838500Y-107590000D01*
X145838500Y-107584000D01*
X145839500Y-107579000D01*
X145840500Y-107574000D01*
X145842500Y-107569000D01*
X145844500Y-107564000D01*
X145846500Y-107559000D01*
X145848500Y-107555000D01*
X145850500Y-107550000D01*
X145853500Y-107546000D01*
X145856500Y-107541000D01*
X145859500Y-107537000D01*
X145863500Y-107533000D01*
X145866500Y-107529000D01*
X145870500Y-107526000D01*
X145874500Y-107522000D01*
X145878500Y-107519000D01*
X145883500Y-107516000D01*
X145887500Y-107513000D01*
X145892500Y-107511000D01*
X145896500Y-107509000D01*
X145901500Y-107507000D01*
X145906500Y-107505000D01*
X145911500Y-107503000D01*
X145916500Y-107502000D01*
X145921500Y-107501000D01*
X145927500Y-107501000D01*
X145932500Y-107500000D01*
X145937500Y-107500000D01*
X146087500Y-107500000D01*
X146092500Y-107500000D01*
X146097500Y-107501000D01*
G37*
X146187500Y-108675000D02*
X146687500Y-108675000D01*
X146692500Y-108675000D01*
X146697500Y-108674000D01*
X146703500Y-108674000D01*
X146708500Y-108673000D01*
X146713500Y-108672000D01*
X146718500Y-108670000D01*
X146723500Y-108668000D01*
X146728500Y-108666000D01*
X146732500Y-108664000D01*
X146737500Y-108662000D01*
X146741500Y-108659000D01*
X146746500Y-108656000D01*
X146750500Y-108653000D01*
X146754500Y-108649000D01*
X146758500Y-108646000D01*
X146761500Y-108642000D01*
X146765500Y-108638000D01*
X146768500Y-108634000D01*
X146771500Y-108629000D01*
X146774500Y-108625000D01*
X146776500Y-108620000D01*
X146778500Y-108616000D01*
X146780500Y-108611000D01*
X146782500Y-108606000D01*
X146784500Y-108601000D01*
X146785500Y-108596000D01*
X146786500Y-108591000D01*
X146786500Y-108585000D01*
X146787500Y-108580000D01*
X146787500Y-108575000D01*
X146787500Y-108425000D01*
X146787500Y-108420000D01*
X146786500Y-108415000D01*
X146786500Y-108409000D01*
X146785500Y-108404000D01*
X146784500Y-108399000D01*
X146782500Y-108394000D01*
X146780500Y-108389000D01*
X146778500Y-108384000D01*
X146776500Y-108380000D01*
X146774500Y-108375000D01*
X146771500Y-108371000D01*
X146768500Y-108366000D01*
X146765500Y-108362000D01*
X146761500Y-108358000D01*
X146758500Y-108354000D01*
X146754500Y-108351000D01*
X146750500Y-108347000D01*
X146746500Y-108344000D01*
X146741500Y-108341000D01*
X146737500Y-108338000D01*
X146732500Y-108336000D01*
X146728500Y-108334000D01*
X146723500Y-108332000D01*
X146718500Y-108330000D01*
X146713500Y-108328000D01*
X146708500Y-108327000D01*
X146703500Y-108326000D01*
X146697500Y-108326000D01*
X146692500Y-108325000D01*
X146687500Y-108325000D01*
X146187500Y-108325000D01*
X146182500Y-108325000D01*
X146177500Y-108326000D01*
X146171500Y-108326000D01*
X146166500Y-108327000D01*
X146161500Y-108328000D01*
X146156500Y-108330000D01*
X146151500Y-108332000D01*
X146146500Y-108334000D01*
X146142500Y-108336000D01*
X146137500Y-108338000D01*
X146133500Y-108341000D01*
X146128500Y-108344000D01*
X146124500Y-108347000D01*
X146120500Y-108351000D01*
X146116500Y-108354000D01*
X146113500Y-108358000D01*
X146109500Y-108362000D01*
X146106500Y-108366000D01*
X146103500Y-108371000D01*
X146100500Y-108375000D01*
X146098500Y-108380000D01*
X146096500Y-108384000D01*
X146094500Y-108389000D01*
X146092500Y-108394000D01*
X146090500Y-108399000D01*
X146089500Y-108404000D01*
X146088500Y-108409000D01*
X146088500Y-108415000D01*
X146087500Y-108420000D01*
X146087500Y-108425000D01*
X146087500Y-108575000D01*
X146087500Y-108580000D01*
X146088500Y-108585000D01*
X146088500Y-108591000D01*
X146089500Y-108596000D01*
X146090500Y-108601000D01*
X146092500Y-108606000D01*
X146094500Y-108611000D01*
X146096500Y-108616000D01*
X146098500Y-108620000D01*
X146100500Y-108625000D01*
X146103500Y-108629000D01*
X146106500Y-108634000D01*
X146109500Y-108638000D01*
X146113500Y-108642000D01*
X146116500Y-108646000D01*
X146120500Y-108649000D01*
X146124500Y-108653000D01*
X146128500Y-108656000D01*
X146133500Y-108659000D01*
X146137500Y-108662000D01*
X146142500Y-108664000D01*
X146146500Y-108666000D01*
X146151500Y-108668000D01*
X146156500Y-108670000D01*
X146161500Y-108672000D01*
X146166500Y-108673000D01*
X146171500Y-108674000D01*
X146177500Y-108674000D01*
X146182500Y-108675000D01*
X146187500Y-108675000D01*
G36*
X146697500Y-108326000D02*
G01*
X146703500Y-108326000D01*
X146708500Y-108327000D01*
X146713500Y-108328000D01*
X146718500Y-108330000D01*
X146723500Y-108332000D01*
X146728500Y-108334000D01*
X146732500Y-108336000D01*
X146737500Y-108338000D01*
X146741500Y-108341000D01*
X146746500Y-108344000D01*
X146750500Y-108347000D01*
X146754500Y-108351000D01*
X146758500Y-108354000D01*
X146761500Y-108358000D01*
X146765500Y-108362000D01*
X146768500Y-108366000D01*
X146771500Y-108371000D01*
X146774500Y-108375000D01*
X146776500Y-108380000D01*
X146778500Y-108384000D01*
X146780500Y-108389000D01*
X146782500Y-108394000D01*
X146784500Y-108399000D01*
X146785500Y-108404000D01*
X146786500Y-108409000D01*
X146786500Y-108415000D01*
X146787500Y-108420000D01*
X146787500Y-108425000D01*
X146787500Y-108575000D01*
X146787500Y-108580000D01*
X146786500Y-108585000D01*
X146786500Y-108591000D01*
X146785500Y-108596000D01*
X146784500Y-108601000D01*
X146782500Y-108606000D01*
X146780500Y-108611000D01*
X146778500Y-108616000D01*
X146776500Y-108620000D01*
X146774500Y-108625000D01*
X146771500Y-108629000D01*
X146768500Y-108634000D01*
X146765500Y-108638000D01*
X146761500Y-108642000D01*
X146758500Y-108646000D01*
X146754500Y-108649000D01*
X146750500Y-108653000D01*
X146746500Y-108656000D01*
X146741500Y-108659000D01*
X146737500Y-108662000D01*
X146732500Y-108664000D01*
X146728500Y-108666000D01*
X146723500Y-108668000D01*
X146718500Y-108670000D01*
X146713500Y-108672000D01*
X146708500Y-108673000D01*
X146703500Y-108674000D01*
X146697500Y-108674000D01*
X146692500Y-108675000D01*
X146687500Y-108675000D01*
X146187500Y-108675000D01*
X146182500Y-108675000D01*
X146177500Y-108674000D01*
X146171500Y-108674000D01*
X146166500Y-108673000D01*
X146161500Y-108672000D01*
X146156500Y-108670000D01*
X146151500Y-108668000D01*
X146146500Y-108666000D01*
X146142500Y-108664000D01*
X146137500Y-108662000D01*
X146133500Y-108659000D01*
X146128500Y-108656000D01*
X146124500Y-108653000D01*
X146120500Y-108649000D01*
X146116500Y-108646000D01*
X146113500Y-108642000D01*
X146109500Y-108638000D01*
X146106500Y-108634000D01*
X146103500Y-108629000D01*
X146100500Y-108625000D01*
X146098500Y-108620000D01*
X146096500Y-108616000D01*
X146094500Y-108611000D01*
X146092500Y-108606000D01*
X146090500Y-108601000D01*
X146089500Y-108596000D01*
X146088500Y-108591000D01*
X146088500Y-108585000D01*
X146087500Y-108580000D01*
X146087500Y-108575000D01*
X146087500Y-108425000D01*
X146087500Y-108420000D01*
X146088500Y-108415000D01*
X146088500Y-108409000D01*
X146089500Y-108404000D01*
X146090500Y-108399000D01*
X146092500Y-108394000D01*
X146094500Y-108389000D01*
X146096500Y-108384000D01*
X146098500Y-108380000D01*
X146100500Y-108375000D01*
X146103500Y-108371000D01*
X146106500Y-108366000D01*
X146109500Y-108362000D01*
X146113500Y-108358000D01*
X146116500Y-108354000D01*
X146120500Y-108351000D01*
X146124500Y-108347000D01*
X146128500Y-108344000D01*
X146133500Y-108341000D01*
X146137500Y-108338000D01*
X146142500Y-108336000D01*
X146146500Y-108334000D01*
X146151500Y-108332000D01*
X146156500Y-108330000D01*
X146161500Y-108328000D01*
X146166500Y-108327000D01*
X146171500Y-108326000D01*
X146177500Y-108326000D01*
X146182500Y-108325000D01*
X146187500Y-108325000D01*
X146687500Y-108325000D01*
X146692500Y-108325000D01*
X146697500Y-108326000D01*
G37*
X146187500Y-109175000D02*
X146687500Y-109175000D01*
X146692500Y-109175000D01*
X146697500Y-109174000D01*
X146703500Y-109174000D01*
X146708500Y-109173000D01*
X146713500Y-109172000D01*
X146718500Y-109170000D01*
X146723500Y-109168000D01*
X146728500Y-109166000D01*
X146732500Y-109164000D01*
X146737500Y-109162000D01*
X146741500Y-109159000D01*
X146746500Y-109156000D01*
X146750500Y-109153000D01*
X146754500Y-109149000D01*
X146758500Y-109146000D01*
X146761500Y-109142000D01*
X146765500Y-109138000D01*
X146768500Y-109134000D01*
X146771500Y-109129000D01*
X146774500Y-109125000D01*
X146776500Y-109120000D01*
X146778500Y-109116000D01*
X146780500Y-109111000D01*
X146782500Y-109106000D01*
X146784500Y-109101000D01*
X146785500Y-109096000D01*
X146786500Y-109091000D01*
X146786500Y-109085000D01*
X146787500Y-109080000D01*
X146787500Y-109075000D01*
X146787500Y-108925000D01*
X146787500Y-108920000D01*
X146786500Y-108915000D01*
X146786500Y-108909000D01*
X146785500Y-108904000D01*
X146784500Y-108899000D01*
X146782500Y-108894000D01*
X146780500Y-108889000D01*
X146778500Y-108884000D01*
X146776500Y-108880000D01*
X146774500Y-108875000D01*
X146771500Y-108871000D01*
X146768500Y-108866000D01*
X146765500Y-108862000D01*
X146761500Y-108858000D01*
X146758500Y-108854000D01*
X146754500Y-108851000D01*
X146750500Y-108847000D01*
X146746500Y-108844000D01*
X146741500Y-108841000D01*
X146737500Y-108838000D01*
X146732500Y-108836000D01*
X146728500Y-108834000D01*
X146723500Y-108832000D01*
X146718500Y-108830000D01*
X146713500Y-108828000D01*
X146708500Y-108827000D01*
X146703500Y-108826000D01*
X146697500Y-108826000D01*
X146692500Y-108825000D01*
X146687500Y-108825000D01*
X146187500Y-108825000D01*
X146182500Y-108825000D01*
X146177500Y-108826000D01*
X146171500Y-108826000D01*
X146166500Y-108827000D01*
X146161500Y-108828000D01*
X146156500Y-108830000D01*
X146151500Y-108832000D01*
X146146500Y-108834000D01*
X146142500Y-108836000D01*
X146137500Y-108838000D01*
X146133500Y-108841000D01*
X146128500Y-108844000D01*
X146124500Y-108847000D01*
X146120500Y-108851000D01*
X146116500Y-108854000D01*
X146113500Y-108858000D01*
X146109500Y-108862000D01*
X146106500Y-108866000D01*
X146103500Y-108871000D01*
X146100500Y-108875000D01*
X146098500Y-108880000D01*
X146096500Y-108884000D01*
X146094500Y-108889000D01*
X146092500Y-108894000D01*
X146090500Y-108899000D01*
X146089500Y-108904000D01*
X146088500Y-108909000D01*
X146088500Y-108915000D01*
X146087500Y-108920000D01*
X146087500Y-108925000D01*
X146087500Y-109075000D01*
X146087500Y-109080000D01*
X146088500Y-109085000D01*
X146088500Y-109091000D01*
X146089500Y-109096000D01*
X146090500Y-109101000D01*
X146092500Y-109106000D01*
X146094500Y-109111000D01*
X146096500Y-109116000D01*
X146098500Y-109120000D01*
X146100500Y-109125000D01*
X146103500Y-109129000D01*
X146106500Y-109134000D01*
X146109500Y-109138000D01*
X146113500Y-109142000D01*
X146116500Y-109146000D01*
X146120500Y-109149000D01*
X146124500Y-109153000D01*
X146128500Y-109156000D01*
X146133500Y-109159000D01*
X146137500Y-109162000D01*
X146142500Y-109164000D01*
X146146500Y-109166000D01*
X146151500Y-109168000D01*
X146156500Y-109170000D01*
X146161500Y-109172000D01*
X146166500Y-109173000D01*
X146171500Y-109174000D01*
X146177500Y-109174000D01*
X146182500Y-109175000D01*
X146187500Y-109175000D01*
G36*
X146697500Y-108826000D02*
G01*
X146703500Y-108826000D01*
X146708500Y-108827000D01*
X146713500Y-108828000D01*
X146718500Y-108830000D01*
X146723500Y-108832000D01*
X146728500Y-108834000D01*
X146732500Y-108836000D01*
X146737500Y-108838000D01*
X146741500Y-108841000D01*
X146746500Y-108844000D01*
X146750500Y-108847000D01*
X146754500Y-108851000D01*
X146758500Y-108854000D01*
X146761500Y-108858000D01*
X146765500Y-108862000D01*
X146768500Y-108866000D01*
X146771500Y-108871000D01*
X146774500Y-108875000D01*
X146776500Y-108880000D01*
X146778500Y-108884000D01*
X146780500Y-108889000D01*
X146782500Y-108894000D01*
X146784500Y-108899000D01*
X146785500Y-108904000D01*
X146786500Y-108909000D01*
X146786500Y-108915000D01*
X146787500Y-108920000D01*
X146787500Y-108925000D01*
X146787500Y-109075000D01*
X146787500Y-109080000D01*
X146786500Y-109085000D01*
X146786500Y-109091000D01*
X146785500Y-109096000D01*
X146784500Y-109101000D01*
X146782500Y-109106000D01*
X146780500Y-109111000D01*
X146778500Y-109116000D01*
X146776500Y-109120000D01*
X146774500Y-109125000D01*
X146771500Y-109129000D01*
X146768500Y-109134000D01*
X146765500Y-109138000D01*
X146761500Y-109142000D01*
X146758500Y-109146000D01*
X146754500Y-109149000D01*
X146750500Y-109153000D01*
X146746500Y-109156000D01*
X146741500Y-109159000D01*
X146737500Y-109162000D01*
X146732500Y-109164000D01*
X146728500Y-109166000D01*
X146723500Y-109168000D01*
X146718500Y-109170000D01*
X146713500Y-109172000D01*
X146708500Y-109173000D01*
X146703500Y-109174000D01*
X146697500Y-109174000D01*
X146692500Y-109175000D01*
X146687500Y-109175000D01*
X146187500Y-109175000D01*
X146182500Y-109175000D01*
X146177500Y-109174000D01*
X146171500Y-109174000D01*
X146166500Y-109173000D01*
X146161500Y-109172000D01*
X146156500Y-109170000D01*
X146151500Y-109168000D01*
X146146500Y-109166000D01*
X146142500Y-109164000D01*
X146137500Y-109162000D01*
X146133500Y-109159000D01*
X146128500Y-109156000D01*
X146124500Y-109153000D01*
X146120500Y-109149000D01*
X146116500Y-109146000D01*
X146113500Y-109142000D01*
X146109500Y-109138000D01*
X146106500Y-109134000D01*
X146103500Y-109129000D01*
X146100500Y-109125000D01*
X146098500Y-109120000D01*
X146096500Y-109116000D01*
X146094500Y-109111000D01*
X146092500Y-109106000D01*
X146090500Y-109101000D01*
X146089500Y-109096000D01*
X146088500Y-109091000D01*
X146088500Y-109085000D01*
X146087500Y-109080000D01*
X146087500Y-109075000D01*
X146087500Y-108925000D01*
X146087500Y-108920000D01*
X146088500Y-108915000D01*
X146088500Y-108909000D01*
X146089500Y-108904000D01*
X146090500Y-108899000D01*
X146092500Y-108894000D01*
X146094500Y-108889000D01*
X146096500Y-108884000D01*
X146098500Y-108880000D01*
X146100500Y-108875000D01*
X146103500Y-108871000D01*
X146106500Y-108866000D01*
X146109500Y-108862000D01*
X146113500Y-108858000D01*
X146116500Y-108854000D01*
X146120500Y-108851000D01*
X146124500Y-108847000D01*
X146128500Y-108844000D01*
X146133500Y-108841000D01*
X146137500Y-108838000D01*
X146142500Y-108836000D01*
X146146500Y-108834000D01*
X146151500Y-108832000D01*
X146156500Y-108830000D01*
X146161500Y-108828000D01*
X146166500Y-108827000D01*
X146171500Y-108826000D01*
X146177500Y-108826000D01*
X146182500Y-108825000D01*
X146187500Y-108825000D01*
X146687500Y-108825000D01*
X146692500Y-108825000D01*
X146697500Y-108826000D01*
G37*
X146187500Y-109675000D02*
X146687500Y-109675000D01*
X146692500Y-109675000D01*
X146697500Y-109674000D01*
X146703500Y-109674000D01*
X146708500Y-109673000D01*
X146713500Y-109672000D01*
X146718500Y-109670000D01*
X146723500Y-109668000D01*
X146728500Y-109666000D01*
X146732500Y-109664000D01*
X146737500Y-109662000D01*
X146741500Y-109659000D01*
X146746500Y-109656000D01*
X146750500Y-109653000D01*
X146754500Y-109649000D01*
X146758500Y-109646000D01*
X146761500Y-109642000D01*
X146765500Y-109638000D01*
X146768500Y-109634000D01*
X146771500Y-109629000D01*
X146774500Y-109625000D01*
X146776500Y-109620000D01*
X146778500Y-109616000D01*
X146780500Y-109611000D01*
X146782500Y-109606000D01*
X146784500Y-109601000D01*
X146785500Y-109596000D01*
X146786500Y-109591000D01*
X146786500Y-109585000D01*
X146787500Y-109580000D01*
X146787500Y-109575000D01*
X146787500Y-109425000D01*
X146787500Y-109420000D01*
X146786500Y-109415000D01*
X146786500Y-109409000D01*
X146785500Y-109404000D01*
X146784500Y-109399000D01*
X146782500Y-109394000D01*
X146780500Y-109389000D01*
X146778500Y-109384000D01*
X146776500Y-109380000D01*
X146774500Y-109375000D01*
X146771500Y-109371000D01*
X146768500Y-109366000D01*
X146765500Y-109362000D01*
X146761500Y-109358000D01*
X146758500Y-109354000D01*
X146754500Y-109351000D01*
X146750500Y-109347000D01*
X146746500Y-109344000D01*
X146741500Y-109341000D01*
X146737500Y-109338000D01*
X146732500Y-109336000D01*
X146728500Y-109334000D01*
X146723500Y-109332000D01*
X146718500Y-109330000D01*
X146713500Y-109328000D01*
X146708500Y-109327000D01*
X146703500Y-109326000D01*
X146697500Y-109326000D01*
X146692500Y-109325000D01*
X146687500Y-109325000D01*
X146187500Y-109325000D01*
X146182500Y-109325000D01*
X146177500Y-109326000D01*
X146171500Y-109326000D01*
X146166500Y-109327000D01*
X146161500Y-109328000D01*
X146156500Y-109330000D01*
X146151500Y-109332000D01*
X146146500Y-109334000D01*
X146142500Y-109336000D01*
X146137500Y-109338000D01*
X146133500Y-109341000D01*
X146128500Y-109344000D01*
X146124500Y-109347000D01*
X146120500Y-109351000D01*
X146116500Y-109354000D01*
X146113500Y-109358000D01*
X146109500Y-109362000D01*
X146106500Y-109366000D01*
X146103500Y-109371000D01*
X146100500Y-109375000D01*
X146098500Y-109380000D01*
X146096500Y-109384000D01*
X146094500Y-109389000D01*
X146092500Y-109394000D01*
X146090500Y-109399000D01*
X146089500Y-109404000D01*
X146088500Y-109409000D01*
X146088500Y-109415000D01*
X146087500Y-109420000D01*
X146087500Y-109425000D01*
X146087500Y-109575000D01*
X146087500Y-109580000D01*
X146088500Y-109585000D01*
X146088500Y-109591000D01*
X146089500Y-109596000D01*
X146090500Y-109601000D01*
X146092500Y-109606000D01*
X146094500Y-109611000D01*
X146096500Y-109616000D01*
X146098500Y-109620000D01*
X146100500Y-109625000D01*
X146103500Y-109629000D01*
X146106500Y-109634000D01*
X146109500Y-109638000D01*
X146113500Y-109642000D01*
X146116500Y-109646000D01*
X146120500Y-109649000D01*
X146124500Y-109653000D01*
X146128500Y-109656000D01*
X146133500Y-109659000D01*
X146137500Y-109662000D01*
X146142500Y-109664000D01*
X146146500Y-109666000D01*
X146151500Y-109668000D01*
X146156500Y-109670000D01*
X146161500Y-109672000D01*
X146166500Y-109673000D01*
X146171500Y-109674000D01*
X146177500Y-109674000D01*
X146182500Y-109675000D01*
X146187500Y-109675000D01*
G36*
X146697500Y-109326000D02*
G01*
X146703500Y-109326000D01*
X146708500Y-109327000D01*
X146713500Y-109328000D01*
X146718500Y-109330000D01*
X146723500Y-109332000D01*
X146728500Y-109334000D01*
X146732500Y-109336000D01*
X146737500Y-109338000D01*
X146741500Y-109341000D01*
X146746500Y-109344000D01*
X146750500Y-109347000D01*
X146754500Y-109351000D01*
X146758500Y-109354000D01*
X146761500Y-109358000D01*
X146765500Y-109362000D01*
X146768500Y-109366000D01*
X146771500Y-109371000D01*
X146774500Y-109375000D01*
X146776500Y-109380000D01*
X146778500Y-109384000D01*
X146780500Y-109389000D01*
X146782500Y-109394000D01*
X146784500Y-109399000D01*
X146785500Y-109404000D01*
X146786500Y-109409000D01*
X146786500Y-109415000D01*
X146787500Y-109420000D01*
X146787500Y-109425000D01*
X146787500Y-109575000D01*
X146787500Y-109580000D01*
X146786500Y-109585000D01*
X146786500Y-109591000D01*
X146785500Y-109596000D01*
X146784500Y-109601000D01*
X146782500Y-109606000D01*
X146780500Y-109611000D01*
X146778500Y-109616000D01*
X146776500Y-109620000D01*
X146774500Y-109625000D01*
X146771500Y-109629000D01*
X146768500Y-109634000D01*
X146765500Y-109638000D01*
X146761500Y-109642000D01*
X146758500Y-109646000D01*
X146754500Y-109649000D01*
X146750500Y-109653000D01*
X146746500Y-109656000D01*
X146741500Y-109659000D01*
X146737500Y-109662000D01*
X146732500Y-109664000D01*
X146728500Y-109666000D01*
X146723500Y-109668000D01*
X146718500Y-109670000D01*
X146713500Y-109672000D01*
X146708500Y-109673000D01*
X146703500Y-109674000D01*
X146697500Y-109674000D01*
X146692500Y-109675000D01*
X146687500Y-109675000D01*
X146187500Y-109675000D01*
X146182500Y-109675000D01*
X146177500Y-109674000D01*
X146171500Y-109674000D01*
X146166500Y-109673000D01*
X146161500Y-109672000D01*
X146156500Y-109670000D01*
X146151500Y-109668000D01*
X146146500Y-109666000D01*
X146142500Y-109664000D01*
X146137500Y-109662000D01*
X146133500Y-109659000D01*
X146128500Y-109656000D01*
X146124500Y-109653000D01*
X146120500Y-109649000D01*
X146116500Y-109646000D01*
X146113500Y-109642000D01*
X146109500Y-109638000D01*
X146106500Y-109634000D01*
X146103500Y-109629000D01*
X146100500Y-109625000D01*
X146098500Y-109620000D01*
X146096500Y-109616000D01*
X146094500Y-109611000D01*
X146092500Y-109606000D01*
X146090500Y-109601000D01*
X146089500Y-109596000D01*
X146088500Y-109591000D01*
X146088500Y-109585000D01*
X146087500Y-109580000D01*
X146087500Y-109575000D01*
X146087500Y-109425000D01*
X146087500Y-109420000D01*
X146088500Y-109415000D01*
X146088500Y-109409000D01*
X146089500Y-109404000D01*
X146090500Y-109399000D01*
X146092500Y-109394000D01*
X146094500Y-109389000D01*
X146096500Y-109384000D01*
X146098500Y-109380000D01*
X146100500Y-109375000D01*
X146103500Y-109371000D01*
X146106500Y-109366000D01*
X146109500Y-109362000D01*
X146113500Y-109358000D01*
X146116500Y-109354000D01*
X146120500Y-109351000D01*
X146124500Y-109347000D01*
X146128500Y-109344000D01*
X146133500Y-109341000D01*
X146137500Y-109338000D01*
X146142500Y-109336000D01*
X146146500Y-109334000D01*
X146151500Y-109332000D01*
X146156500Y-109330000D01*
X146161500Y-109328000D01*
X146166500Y-109327000D01*
X146171500Y-109326000D01*
X146177500Y-109326000D01*
X146182500Y-109325000D01*
X146187500Y-109325000D01*
X146687500Y-109325000D01*
X146692500Y-109325000D01*
X146697500Y-109326000D01*
G37*
X146187500Y-110175000D02*
X146687500Y-110175000D01*
X146692500Y-110175000D01*
X146697500Y-110174000D01*
X146703500Y-110174000D01*
X146708500Y-110173000D01*
X146713500Y-110172000D01*
X146718500Y-110170000D01*
X146723500Y-110168000D01*
X146728500Y-110166000D01*
X146732500Y-110164000D01*
X146737500Y-110162000D01*
X146741500Y-110159000D01*
X146746500Y-110156000D01*
X146750500Y-110153000D01*
X146754500Y-110149000D01*
X146758500Y-110146000D01*
X146761500Y-110142000D01*
X146765500Y-110138000D01*
X146768500Y-110134000D01*
X146771500Y-110129000D01*
X146774500Y-110125000D01*
X146776500Y-110120000D01*
X146778500Y-110116000D01*
X146780500Y-110111000D01*
X146782500Y-110106000D01*
X146784500Y-110101000D01*
X146785500Y-110096000D01*
X146786500Y-110091000D01*
X146786500Y-110085000D01*
X146787500Y-110080000D01*
X146787500Y-110075000D01*
X146787500Y-109925000D01*
X146787500Y-109920000D01*
X146786500Y-109915000D01*
X146786500Y-109909000D01*
X146785500Y-109904000D01*
X146784500Y-109899000D01*
X146782500Y-109894000D01*
X146780500Y-109889000D01*
X146778500Y-109884000D01*
X146776500Y-109880000D01*
X146774500Y-109875000D01*
X146771500Y-109871000D01*
X146768500Y-109866000D01*
X146765500Y-109862000D01*
X146761500Y-109858000D01*
X146758500Y-109854000D01*
X146754500Y-109851000D01*
X146750500Y-109847000D01*
X146746500Y-109844000D01*
X146741500Y-109841000D01*
X146737500Y-109838000D01*
X146732500Y-109836000D01*
X146728500Y-109834000D01*
X146723500Y-109832000D01*
X146718500Y-109830000D01*
X146713500Y-109828000D01*
X146708500Y-109827000D01*
X146703500Y-109826000D01*
X146697500Y-109826000D01*
X146692500Y-109825000D01*
X146687500Y-109825000D01*
X146187500Y-109825000D01*
X146182500Y-109825000D01*
X146177500Y-109826000D01*
X146171500Y-109826000D01*
X146166500Y-109827000D01*
X146161500Y-109828000D01*
X146156500Y-109830000D01*
X146151500Y-109832000D01*
X146146500Y-109834000D01*
X146142500Y-109836000D01*
X146137500Y-109838000D01*
X146133500Y-109841000D01*
X146128500Y-109844000D01*
X146124500Y-109847000D01*
X146120500Y-109851000D01*
X146116500Y-109854000D01*
X146113500Y-109858000D01*
X146109500Y-109862000D01*
X146106500Y-109866000D01*
X146103500Y-109871000D01*
X146100500Y-109875000D01*
X146098500Y-109880000D01*
X146096500Y-109884000D01*
X146094500Y-109889000D01*
X146092500Y-109894000D01*
X146090500Y-109899000D01*
X146089500Y-109904000D01*
X146088500Y-109909000D01*
X146088500Y-109915000D01*
X146087500Y-109920000D01*
X146087500Y-109925000D01*
X146087500Y-110075000D01*
X146087500Y-110080000D01*
X146088500Y-110085000D01*
X146088500Y-110091000D01*
X146089500Y-110096000D01*
X146090500Y-110101000D01*
X146092500Y-110106000D01*
X146094500Y-110111000D01*
X146096500Y-110116000D01*
X146098500Y-110120000D01*
X146100500Y-110125000D01*
X146103500Y-110129000D01*
X146106500Y-110134000D01*
X146109500Y-110138000D01*
X146113500Y-110142000D01*
X146116500Y-110146000D01*
X146120500Y-110149000D01*
X146124500Y-110153000D01*
X146128500Y-110156000D01*
X146133500Y-110159000D01*
X146137500Y-110162000D01*
X146142500Y-110164000D01*
X146146500Y-110166000D01*
X146151500Y-110168000D01*
X146156500Y-110170000D01*
X146161500Y-110172000D01*
X146166500Y-110173000D01*
X146171500Y-110174000D01*
X146177500Y-110174000D01*
X146182500Y-110175000D01*
X146187500Y-110175000D01*
G36*
X146697500Y-109826000D02*
G01*
X146703500Y-109826000D01*
X146708500Y-109827000D01*
X146713500Y-109828000D01*
X146718500Y-109830000D01*
X146723500Y-109832000D01*
X146728500Y-109834000D01*
X146732500Y-109836000D01*
X146737500Y-109838000D01*
X146741500Y-109841000D01*
X146746500Y-109844000D01*
X146750500Y-109847000D01*
X146754500Y-109851000D01*
X146758500Y-109854000D01*
X146761500Y-109858000D01*
X146765500Y-109862000D01*
X146768500Y-109866000D01*
X146771500Y-109871000D01*
X146774500Y-109875000D01*
X146776500Y-109880000D01*
X146778500Y-109884000D01*
X146780500Y-109889000D01*
X146782500Y-109894000D01*
X146784500Y-109899000D01*
X146785500Y-109904000D01*
X146786500Y-109909000D01*
X146786500Y-109915000D01*
X146787500Y-109920000D01*
X146787500Y-109925000D01*
X146787500Y-110075000D01*
X146787500Y-110080000D01*
X146786500Y-110085000D01*
X146786500Y-110091000D01*
X146785500Y-110096000D01*
X146784500Y-110101000D01*
X146782500Y-110106000D01*
X146780500Y-110111000D01*
X146778500Y-110116000D01*
X146776500Y-110120000D01*
X146774500Y-110125000D01*
X146771500Y-110129000D01*
X146768500Y-110134000D01*
X146765500Y-110138000D01*
X146761500Y-110142000D01*
X146758500Y-110146000D01*
X146754500Y-110149000D01*
X146750500Y-110153000D01*
X146746500Y-110156000D01*
X146741500Y-110159000D01*
X146737500Y-110162000D01*
X146732500Y-110164000D01*
X146728500Y-110166000D01*
X146723500Y-110168000D01*
X146718500Y-110170000D01*
X146713500Y-110172000D01*
X146708500Y-110173000D01*
X146703500Y-110174000D01*
X146697500Y-110174000D01*
X146692500Y-110175000D01*
X146687500Y-110175000D01*
X146187500Y-110175000D01*
X146182500Y-110175000D01*
X146177500Y-110174000D01*
X146171500Y-110174000D01*
X146166500Y-110173000D01*
X146161500Y-110172000D01*
X146156500Y-110170000D01*
X146151500Y-110168000D01*
X146146500Y-110166000D01*
X146142500Y-110164000D01*
X146137500Y-110162000D01*
X146133500Y-110159000D01*
X146128500Y-110156000D01*
X146124500Y-110153000D01*
X146120500Y-110149000D01*
X146116500Y-110146000D01*
X146113500Y-110142000D01*
X146109500Y-110138000D01*
X146106500Y-110134000D01*
X146103500Y-110129000D01*
X146100500Y-110125000D01*
X146098500Y-110120000D01*
X146096500Y-110116000D01*
X146094500Y-110111000D01*
X146092500Y-110106000D01*
X146090500Y-110101000D01*
X146089500Y-110096000D01*
X146088500Y-110091000D01*
X146088500Y-110085000D01*
X146087500Y-110080000D01*
X146087500Y-110075000D01*
X146087500Y-109925000D01*
X146087500Y-109920000D01*
X146088500Y-109915000D01*
X146088500Y-109909000D01*
X146089500Y-109904000D01*
X146090500Y-109899000D01*
X146092500Y-109894000D01*
X146094500Y-109889000D01*
X146096500Y-109884000D01*
X146098500Y-109880000D01*
X146100500Y-109875000D01*
X146103500Y-109871000D01*
X146106500Y-109866000D01*
X146109500Y-109862000D01*
X146113500Y-109858000D01*
X146116500Y-109854000D01*
X146120500Y-109851000D01*
X146124500Y-109847000D01*
X146128500Y-109844000D01*
X146133500Y-109841000D01*
X146137500Y-109838000D01*
X146142500Y-109836000D01*
X146146500Y-109834000D01*
X146151500Y-109832000D01*
X146156500Y-109830000D01*
X146161500Y-109828000D01*
X146166500Y-109827000D01*
X146171500Y-109826000D01*
X146177500Y-109826000D01*
X146182500Y-109825000D01*
X146187500Y-109825000D01*
X146687500Y-109825000D01*
X146692500Y-109825000D01*
X146697500Y-109826000D01*
G37*
X146187500Y-110900000D02*
X146187500Y-110400000D01*
X146187500Y-110395000D01*
X146186500Y-110390000D01*
X146186500Y-110384000D01*
X146185500Y-110379000D01*
X146184500Y-110374000D01*
X146182500Y-110369000D01*
X146180500Y-110364000D01*
X146178500Y-110359000D01*
X146176500Y-110355000D01*
X146174500Y-110350000D01*
X146171500Y-110346000D01*
X146168500Y-110341000D01*
X146165500Y-110337000D01*
X146161500Y-110333000D01*
X146158500Y-110329000D01*
X146154500Y-110326000D01*
X146150500Y-110322000D01*
X146146500Y-110319000D01*
X146141500Y-110316000D01*
X146137500Y-110313000D01*
X146132500Y-110311000D01*
X146128500Y-110309000D01*
X146123500Y-110307000D01*
X146118500Y-110305000D01*
X146113500Y-110303000D01*
X146108500Y-110302000D01*
X146103500Y-110301000D01*
X146097500Y-110301000D01*
X146092500Y-110300000D01*
X146087500Y-110300000D01*
X145937500Y-110300000D01*
X145932500Y-110300000D01*
X145927500Y-110301000D01*
X145921500Y-110301000D01*
X145916500Y-110302000D01*
X145911500Y-110303000D01*
X145906500Y-110305000D01*
X145901500Y-110307000D01*
X145896500Y-110309000D01*
X145892500Y-110311000D01*
X145887500Y-110313000D01*
X145883500Y-110316000D01*
X145878500Y-110319000D01*
X145874500Y-110322000D01*
X145870500Y-110326000D01*
X145866500Y-110329000D01*
X145863500Y-110333000D01*
X145859500Y-110337000D01*
X145856500Y-110341000D01*
X145853500Y-110346000D01*
X145850500Y-110350000D01*
X145848500Y-110355000D01*
X145846500Y-110359000D01*
X145844500Y-110364000D01*
X145842500Y-110369000D01*
X145840500Y-110374000D01*
X145839500Y-110379000D01*
X145838500Y-110384000D01*
X145838500Y-110390000D01*
X145837500Y-110395000D01*
X145837500Y-110400000D01*
X145837500Y-110900000D01*
X145837500Y-110905000D01*
X145838500Y-110910000D01*
X145838500Y-110916000D01*
X145839500Y-110921000D01*
X145840500Y-110926000D01*
X145842500Y-110931000D01*
X145844500Y-110936000D01*
X145846500Y-110941000D01*
X145848500Y-110945000D01*
X145850500Y-110950000D01*
X145853500Y-110954000D01*
X145856500Y-110959000D01*
X145859500Y-110963000D01*
X145863500Y-110967000D01*
X145866500Y-110971000D01*
X145870500Y-110974000D01*
X145874500Y-110978000D01*
X145878500Y-110981000D01*
X145883500Y-110984000D01*
X145887500Y-110987000D01*
X145892500Y-110989000D01*
X145896500Y-110991000D01*
X145901500Y-110993000D01*
X145906500Y-110995000D01*
X145911500Y-110997000D01*
X145916500Y-110998000D01*
X145921500Y-110999000D01*
X145927500Y-110999000D01*
X145932500Y-111000000D01*
X145937500Y-111000000D01*
X146087500Y-111000000D01*
X146092500Y-111000000D01*
X146097500Y-110999000D01*
X146103500Y-110999000D01*
X146108500Y-110998000D01*
X146113500Y-110997000D01*
X146118500Y-110995000D01*
X146123500Y-110993000D01*
X146128500Y-110991000D01*
X146132500Y-110989000D01*
X146137500Y-110987000D01*
X146141500Y-110984000D01*
X146146500Y-110981000D01*
X146150500Y-110978000D01*
X146154500Y-110974000D01*
X146158500Y-110971000D01*
X146161500Y-110967000D01*
X146165500Y-110963000D01*
X146168500Y-110959000D01*
X146171500Y-110954000D01*
X146174500Y-110950000D01*
X146176500Y-110945000D01*
X146178500Y-110941000D01*
X146180500Y-110936000D01*
X146182500Y-110931000D01*
X146184500Y-110926000D01*
X146185500Y-110921000D01*
X146186500Y-110916000D01*
X146186500Y-110910000D01*
X146187500Y-110905000D01*
X146187500Y-110900000D01*
G36*
X146097500Y-110301000D02*
G01*
X146103500Y-110301000D01*
X146108500Y-110302000D01*
X146113500Y-110303000D01*
X146118500Y-110305000D01*
X146123500Y-110307000D01*
X146128500Y-110309000D01*
X146132500Y-110311000D01*
X146137500Y-110313000D01*
X146141500Y-110316000D01*
X146146500Y-110319000D01*
X146150500Y-110322000D01*
X146154500Y-110326000D01*
X146158500Y-110329000D01*
X146161500Y-110333000D01*
X146165500Y-110337000D01*
X146168500Y-110341000D01*
X146171500Y-110346000D01*
X146174500Y-110350000D01*
X146176500Y-110355000D01*
X146178500Y-110359000D01*
X146180500Y-110364000D01*
X146182500Y-110369000D01*
X146184500Y-110374000D01*
X146185500Y-110379000D01*
X146186500Y-110384000D01*
X146186500Y-110390000D01*
X146187500Y-110395000D01*
X146187500Y-110400000D01*
X146187500Y-110900000D01*
X146187500Y-110905000D01*
X146186500Y-110910000D01*
X146186500Y-110916000D01*
X146185500Y-110921000D01*
X146184500Y-110926000D01*
X146182500Y-110931000D01*
X146180500Y-110936000D01*
X146178500Y-110941000D01*
X146176500Y-110945000D01*
X146174500Y-110950000D01*
X146171500Y-110954000D01*
X146168500Y-110959000D01*
X146165500Y-110963000D01*
X146161500Y-110967000D01*
X146158500Y-110971000D01*
X146154500Y-110974000D01*
X146150500Y-110978000D01*
X146146500Y-110981000D01*
X146141500Y-110984000D01*
X146137500Y-110987000D01*
X146132500Y-110989000D01*
X146128500Y-110991000D01*
X146123500Y-110993000D01*
X146118500Y-110995000D01*
X146113500Y-110997000D01*
X146108500Y-110998000D01*
X146103500Y-110999000D01*
X146097500Y-110999000D01*
X146092500Y-111000000D01*
X146087500Y-111000000D01*
X145937500Y-111000000D01*
X145932500Y-111000000D01*
X145927500Y-110999000D01*
X145921500Y-110999000D01*
X145916500Y-110998000D01*
X145911500Y-110997000D01*
X145906500Y-110995000D01*
X145901500Y-110993000D01*
X145896500Y-110991000D01*
X145892500Y-110989000D01*
X145887500Y-110987000D01*
X145883500Y-110984000D01*
X145878500Y-110981000D01*
X145874500Y-110978000D01*
X145870500Y-110974000D01*
X145866500Y-110971000D01*
X145863500Y-110967000D01*
X145859500Y-110963000D01*
X145856500Y-110959000D01*
X145853500Y-110954000D01*
X145850500Y-110950000D01*
X145848500Y-110945000D01*
X145846500Y-110941000D01*
X145844500Y-110936000D01*
X145842500Y-110931000D01*
X145840500Y-110926000D01*
X145839500Y-110921000D01*
X145838500Y-110916000D01*
X145838500Y-110910000D01*
X145837500Y-110905000D01*
X145837500Y-110900000D01*
X145837500Y-110400000D01*
X145837500Y-110395000D01*
X145838500Y-110390000D01*
X145838500Y-110384000D01*
X145839500Y-110379000D01*
X145840500Y-110374000D01*
X145842500Y-110369000D01*
X145844500Y-110364000D01*
X145846500Y-110359000D01*
X145848500Y-110355000D01*
X145850500Y-110350000D01*
X145853500Y-110346000D01*
X145856500Y-110341000D01*
X145859500Y-110337000D01*
X145863500Y-110333000D01*
X145866500Y-110329000D01*
X145870500Y-110326000D01*
X145874500Y-110322000D01*
X145878500Y-110319000D01*
X145883500Y-110316000D01*
X145887500Y-110313000D01*
X145892500Y-110311000D01*
X145896500Y-110309000D01*
X145901500Y-110307000D01*
X145906500Y-110305000D01*
X145911500Y-110303000D01*
X145916500Y-110302000D01*
X145921500Y-110301000D01*
X145927500Y-110301000D01*
X145932500Y-110300000D01*
X145937500Y-110300000D01*
X146087500Y-110300000D01*
X146092500Y-110300000D01*
X146097500Y-110301000D01*
G37*
X144437500Y-107550000D02*
X144587500Y-107550000D01*
X144590500Y-107550000D01*
X144592500Y-107550000D01*
X144595500Y-107551000D01*
X144597500Y-107551000D01*
X144600500Y-107552000D01*
X144602500Y-107552000D01*
X144605500Y-107553000D01*
X144607500Y-107554000D01*
X144610500Y-107555000D01*
X144612500Y-107557000D01*
X144614500Y-107558000D01*
X144616500Y-107560000D01*
X144618500Y-107561000D01*
X144620500Y-107563000D01*
X144622500Y-107565000D01*
X144624500Y-107567000D01*
X144626500Y-107569000D01*
X144627500Y-107571000D01*
X144629500Y-107573000D01*
X144630500Y-107575000D01*
X144632500Y-107577000D01*
X144633500Y-107580000D01*
X144634500Y-107582000D01*
X144635500Y-107585000D01*
X144635500Y-107587000D01*
X144636500Y-107590000D01*
X144636500Y-107592000D01*
X144637500Y-107595000D01*
X144637500Y-107597000D01*
X144637500Y-107600000D01*
X144637500Y-107900000D01*
X144887500Y-107900000D01*
X144887500Y-107600000D01*
X144887500Y-107597000D01*
X144887500Y-107595000D01*
X144888500Y-107592000D01*
X144888500Y-107590000D01*
X144889500Y-107587000D01*
X144889500Y-107585000D01*
X144890500Y-107582000D01*
X144891500Y-107580000D01*
X144892500Y-107577000D01*
X144894500Y-107575000D01*
X144895500Y-107573000D01*
X144897500Y-107571000D01*
X144898500Y-107569000D01*
X144900500Y-107567000D01*
X144902500Y-107565000D01*
X144904500Y-107563000D01*
X144906500Y-107561000D01*
X144908500Y-107560000D01*
X144910500Y-107558000D01*
X144912500Y-107557000D01*
X144914500Y-107555000D01*
X144917500Y-107554000D01*
X144919500Y-107553000D01*
X144922500Y-107552000D01*
X144924500Y-107552000D01*
X144927500Y-107551000D01*
X144929500Y-107551000D01*
X144932500Y-107550000D01*
X144934500Y-107550000D01*
X144937500Y-107550000D01*
X145087500Y-107550000D01*
X145090500Y-107550000D01*
X145092500Y-107550000D01*
X145095500Y-107551000D01*
X145097500Y-107551000D01*
X145100500Y-107552000D01*
X145102500Y-107552000D01*
X145105500Y-107553000D01*
X145107500Y-107554000D01*
X145110500Y-107555000D01*
X145112500Y-107557000D01*
X145114500Y-107558000D01*
X145116500Y-107560000D01*
X145118500Y-107561000D01*
X145120500Y-107563000D01*
X145122500Y-107565000D01*
X145124500Y-107567000D01*
X145126500Y-107569000D01*
X145127500Y-107571000D01*
X145129500Y-107573000D01*
X145130500Y-107575000D01*
X145132500Y-107577000D01*
X145133500Y-107580000D01*
X145134500Y-107582000D01*
X145135500Y-107585000D01*
X145135500Y-107587000D01*
X145136500Y-107590000D01*
X145136500Y-107592000D01*
X145137500Y-107595000D01*
X145137500Y-107597000D01*
X145137500Y-107600000D01*
X145137500Y-108100000D01*
X145137500Y-108103000D01*
X145137500Y-108105000D01*
X145136500Y-108108000D01*
X145136500Y-108110000D01*
X145135500Y-108113000D01*
X145135500Y-108115000D01*
X145134500Y-108118000D01*
X145133500Y-108120000D01*
X145132500Y-108123000D01*
X145130500Y-108125000D01*
X145129500Y-108127000D01*
X145127500Y-108129000D01*
X145126500Y-108131000D01*
X145124500Y-108133000D01*
X145122500Y-108135000D01*
X145120500Y-108137000D01*
X145118500Y-108139000D01*
X145116500Y-108140000D01*
X145114500Y-108142000D01*
X145112500Y-108143000D01*
X145110500Y-108145000D01*
X145107500Y-108146000D01*
X145105500Y-108147000D01*
X145102500Y-108148000D01*
X145100500Y-108148000D01*
X145097500Y-108149000D01*
X145095500Y-108149000D01*
X145092500Y-108150000D01*
X145090500Y-108150000D01*
X145087500Y-108150000D01*
X144437500Y-108150000D01*
X144434500Y-108150000D01*
X144432500Y-108150000D01*
X144429500Y-108149000D01*
X144427500Y-108149000D01*
X144424500Y-108148000D01*
X144422500Y-108148000D01*
X144419500Y-108147000D01*
X144417500Y-108146000D01*
X144414500Y-108145000D01*
X144412500Y-108143000D01*
X144410500Y-108142000D01*
X144408500Y-108140000D01*
X144406500Y-108139000D01*
X144404500Y-108137000D01*
X144402500Y-108135000D01*
X144400500Y-108133000D01*
X144398500Y-108131000D01*
X144397500Y-108129000D01*
X144395500Y-108127000D01*
X144394500Y-108125000D01*
X144392500Y-108123000D01*
X144391500Y-108120000D01*
X144390500Y-108118000D01*
X144389500Y-108115000D01*
X144389500Y-108113000D01*
X144388500Y-108110000D01*
X144388500Y-108108000D01*
X144387500Y-108105000D01*
X144387500Y-108103000D01*
X144387500Y-108100000D01*
X144387500Y-107600000D01*
X144387500Y-107597000D01*
X144387500Y-107595000D01*
X144388500Y-107592000D01*
X144388500Y-107590000D01*
X144389500Y-107587000D01*
X144389500Y-107585000D01*
X144390500Y-107582000D01*
X144391500Y-107580000D01*
X144392500Y-107577000D01*
X144394500Y-107575000D01*
X144395500Y-107573000D01*
X144397500Y-107571000D01*
X144398500Y-107569000D01*
X144400500Y-107567000D01*
X144402500Y-107565000D01*
X144404500Y-107563000D01*
X144406500Y-107561000D01*
X144408500Y-107560000D01*
X144410500Y-107558000D01*
X144412500Y-107557000D01*
X144414500Y-107555000D01*
X144417500Y-107554000D01*
X144419500Y-107553000D01*
X144422500Y-107552000D01*
X144424500Y-107552000D01*
X144427500Y-107551000D01*
X144429500Y-107551000D01*
X144432500Y-107550000D01*
X144434500Y-107550000D01*
X144437500Y-107550000D01*
G36*
X144595500Y-107551000D02*
G01*
X144597500Y-107551000D01*
X144600500Y-107552000D01*
X144602500Y-107552000D01*
X144605500Y-107553000D01*
X144607500Y-107554000D01*
X144610500Y-107555000D01*
X144612500Y-107557000D01*
X144614500Y-107558000D01*
X144616500Y-107560000D01*
X144618500Y-107561000D01*
X144620500Y-107563000D01*
X144622500Y-107565000D01*
X144624500Y-107567000D01*
X144626500Y-107569000D01*
X144627500Y-107571000D01*
X144629500Y-107573000D01*
X144630500Y-107575000D01*
X144632500Y-107577000D01*
X144633500Y-107580000D01*
X144634500Y-107582000D01*
X144635500Y-107585000D01*
X144635500Y-107587000D01*
X144636500Y-107590000D01*
X144636500Y-107592000D01*
X144637500Y-107595000D01*
X144637500Y-107597000D01*
X144637500Y-107600000D01*
X144637500Y-107900000D01*
X144887500Y-107900000D01*
X144887500Y-107600000D01*
X144887500Y-107597000D01*
X144887500Y-107595000D01*
X144888500Y-107592000D01*
X144888500Y-107590000D01*
X144889500Y-107587000D01*
X144889500Y-107585000D01*
X144890500Y-107582000D01*
X144891500Y-107580000D01*
X144892500Y-107577000D01*
X144894500Y-107575000D01*
X144895500Y-107573000D01*
X144897500Y-107571000D01*
X144898500Y-107569000D01*
X144900500Y-107567000D01*
X144902500Y-107565000D01*
X144904500Y-107563000D01*
X144906500Y-107561000D01*
X144908500Y-107560000D01*
X144910500Y-107558000D01*
X144912500Y-107557000D01*
X144914500Y-107555000D01*
X144917500Y-107554000D01*
X144919500Y-107553000D01*
X144922500Y-107552000D01*
X144924500Y-107552000D01*
X144927500Y-107551000D01*
X144929500Y-107551000D01*
X144932500Y-107550000D01*
X144934500Y-107550000D01*
X144937500Y-107550000D01*
X145087500Y-107550000D01*
X145090500Y-107550000D01*
X145092500Y-107550000D01*
X145095500Y-107551000D01*
X145097500Y-107551000D01*
X145100500Y-107552000D01*
X145102500Y-107552000D01*
X145105500Y-107553000D01*
X145107500Y-107554000D01*
X145110500Y-107555000D01*
X145112500Y-107557000D01*
X145114500Y-107558000D01*
X145116500Y-107560000D01*
X145118500Y-107561000D01*
X145120500Y-107563000D01*
X145122500Y-107565000D01*
X145124500Y-107567000D01*
X145126500Y-107569000D01*
X145127500Y-107571000D01*
X145129500Y-107573000D01*
X145130500Y-107575000D01*
X145132500Y-107577000D01*
X145133500Y-107580000D01*
X145134500Y-107582000D01*
X145135500Y-107585000D01*
X145135500Y-107587000D01*
X145136500Y-107590000D01*
X145136500Y-107592000D01*
X145137500Y-107595000D01*
X145137500Y-107597000D01*
X145137500Y-107600000D01*
X145137500Y-108100000D01*
X145137500Y-108103000D01*
X145137500Y-108105000D01*
X145136500Y-108108000D01*
X145136500Y-108110000D01*
X145135500Y-108113000D01*
X145135500Y-108115000D01*
X145134500Y-108118000D01*
X145133500Y-108120000D01*
X145132500Y-108123000D01*
X145130500Y-108125000D01*
X145129500Y-108127000D01*
X145127500Y-108129000D01*
X145126500Y-108131000D01*
X145124500Y-108133000D01*
X145122500Y-108135000D01*
X145120500Y-108137000D01*
X145118500Y-108139000D01*
X145116500Y-108140000D01*
X145114500Y-108142000D01*
X145112500Y-108143000D01*
X145110500Y-108145000D01*
X145107500Y-108146000D01*
X145105500Y-108147000D01*
X145102500Y-108148000D01*
X145100500Y-108148000D01*
X145097500Y-108149000D01*
X145095500Y-108149000D01*
X145092500Y-108150000D01*
X145090500Y-108150000D01*
X145087500Y-108150000D01*
X144437500Y-108150000D01*
X144434500Y-108150000D01*
X144432500Y-108150000D01*
X144429500Y-108149000D01*
X144427500Y-108149000D01*
X144424500Y-108148000D01*
X144422500Y-108148000D01*
X144419500Y-108147000D01*
X144417500Y-108146000D01*
X144414500Y-108145000D01*
X144412500Y-108143000D01*
X144410500Y-108142000D01*
X144408500Y-108140000D01*
X144406500Y-108139000D01*
X144404500Y-108137000D01*
X144402500Y-108135000D01*
X144400500Y-108133000D01*
X144398500Y-108131000D01*
X144397500Y-108129000D01*
X144395500Y-108127000D01*
X144394500Y-108125000D01*
X144392500Y-108123000D01*
X144391500Y-108120000D01*
X144390500Y-108118000D01*
X144389500Y-108115000D01*
X144389500Y-108113000D01*
X144388500Y-108110000D01*
X144388500Y-108108000D01*
X144387500Y-108105000D01*
X144387500Y-108103000D01*
X144387500Y-108100000D01*
X144387500Y-107600000D01*
X144387500Y-107597000D01*
X144387500Y-107595000D01*
X144388500Y-107592000D01*
X144388500Y-107590000D01*
X144389500Y-107587000D01*
X144389500Y-107585000D01*
X144390500Y-107582000D01*
X144391500Y-107580000D01*
X144392500Y-107577000D01*
X144394500Y-107575000D01*
X144395500Y-107573000D01*
X144397500Y-107571000D01*
X144398500Y-107569000D01*
X144400500Y-107567000D01*
X144402500Y-107565000D01*
X144404500Y-107563000D01*
X144406500Y-107561000D01*
X144408500Y-107560000D01*
X144410500Y-107558000D01*
X144412500Y-107557000D01*
X144414500Y-107555000D01*
X144417500Y-107554000D01*
X144419500Y-107553000D01*
X144422500Y-107552000D01*
X144424500Y-107552000D01*
X144427500Y-107551000D01*
X144429500Y-107551000D01*
X144432500Y-107550000D01*
X144434500Y-107550000D01*
X144437500Y-107550000D01*
X144587500Y-107550000D01*
X144590500Y-107550000D01*
X144592500Y-107550000D01*
X144595500Y-107551000D01*
G37*
X145087500Y-110950000D02*
X144937500Y-110950000D01*
X144934500Y-110950000D01*
X144932500Y-110950000D01*
X144929500Y-110949000D01*
X144927500Y-110949000D01*
X144924500Y-110948000D01*
X144922500Y-110948000D01*
X144919500Y-110947000D01*
X144917500Y-110946000D01*
X144914500Y-110945000D01*
X144912500Y-110943000D01*
X144910500Y-110942000D01*
X144908500Y-110940000D01*
X144906500Y-110939000D01*
X144904500Y-110937000D01*
X144902500Y-110935000D01*
X144900500Y-110933000D01*
X144898500Y-110931000D01*
X144897500Y-110929000D01*
X144895500Y-110927000D01*
X144894500Y-110925000D01*
X144892500Y-110923000D01*
X144891500Y-110920000D01*
X144890500Y-110918000D01*
X144889500Y-110915000D01*
X144889500Y-110913000D01*
X144888500Y-110910000D01*
X144888500Y-110908000D01*
X144887500Y-110905000D01*
X144887500Y-110903000D01*
X144887500Y-110900000D01*
X144887500Y-110600000D01*
X144637500Y-110600000D01*
X144637500Y-110900000D01*
X144637500Y-110903000D01*
X144637500Y-110905000D01*
X144636500Y-110908000D01*
X144636500Y-110910000D01*
X144635500Y-110913000D01*
X144635500Y-110915000D01*
X144634500Y-110918000D01*
X144633500Y-110920000D01*
X144632500Y-110923000D01*
X144630500Y-110925000D01*
X144629500Y-110927000D01*
X144627500Y-110929000D01*
X144626500Y-110931000D01*
X144624500Y-110933000D01*
X144622500Y-110935000D01*
X144620500Y-110937000D01*
X144618500Y-110939000D01*
X144616500Y-110940000D01*
X144614500Y-110942000D01*
X144612500Y-110943000D01*
X144610500Y-110945000D01*
X144607500Y-110946000D01*
X144605500Y-110947000D01*
X144602500Y-110948000D01*
X144600500Y-110948000D01*
X144597500Y-110949000D01*
X144595500Y-110949000D01*
X144592500Y-110950000D01*
X144590500Y-110950000D01*
X144587500Y-110950000D01*
X144437500Y-110950000D01*
X144434500Y-110950000D01*
X144432500Y-110950000D01*
X144429500Y-110949000D01*
X144427500Y-110949000D01*
X144424500Y-110948000D01*
X144422500Y-110948000D01*
X144419500Y-110947000D01*
X144417500Y-110946000D01*
X144414500Y-110945000D01*
X144412500Y-110943000D01*
X144410500Y-110942000D01*
X144408500Y-110940000D01*
X144406500Y-110939000D01*
X144404500Y-110937000D01*
X144402500Y-110935000D01*
X144400500Y-110933000D01*
X144398500Y-110931000D01*
X144397500Y-110929000D01*
X144395500Y-110927000D01*
X144394500Y-110925000D01*
X144392500Y-110923000D01*
X144391500Y-110920000D01*
X144390500Y-110918000D01*
X144389500Y-110915000D01*
X144389500Y-110913000D01*
X144388500Y-110910000D01*
X144388500Y-110908000D01*
X144387500Y-110905000D01*
X144387500Y-110903000D01*
X144387500Y-110900000D01*
X144387500Y-110400000D01*
X144387500Y-110397000D01*
X144387500Y-110395000D01*
X144388500Y-110392000D01*
X144388500Y-110390000D01*
X144389500Y-110387000D01*
X144389500Y-110385000D01*
X144390500Y-110382000D01*
X144391500Y-110380000D01*
X144392500Y-110377000D01*
X144394500Y-110375000D01*
X144395500Y-110373000D01*
X144397500Y-110371000D01*
X144398500Y-110369000D01*
X144400500Y-110367000D01*
X144402500Y-110365000D01*
X144404500Y-110363000D01*
X144406500Y-110361000D01*
X144408500Y-110360000D01*
X144410500Y-110358000D01*
X144412500Y-110357000D01*
X144414500Y-110355000D01*
X144417500Y-110354000D01*
X144419500Y-110353000D01*
X144422500Y-110352000D01*
X144424500Y-110352000D01*
X144427500Y-110351000D01*
X144429500Y-110351000D01*
X144432500Y-110350000D01*
X144434500Y-110350000D01*
X144437500Y-110350000D01*
X145087500Y-110350000D01*
X145090500Y-110350000D01*
X145092500Y-110350000D01*
X145095500Y-110351000D01*
X145097500Y-110351000D01*
X145100500Y-110352000D01*
X145102500Y-110352000D01*
X145105500Y-110353000D01*
X145107500Y-110354000D01*
X145110500Y-110355000D01*
X145112500Y-110357000D01*
X145114500Y-110358000D01*
X145116500Y-110360000D01*
X145118500Y-110361000D01*
X145120500Y-110363000D01*
X145122500Y-110365000D01*
X145124500Y-110367000D01*
X145126500Y-110369000D01*
X145127500Y-110371000D01*
X145129500Y-110373000D01*
X145130500Y-110375000D01*
X145132500Y-110377000D01*
X145133500Y-110380000D01*
X145134500Y-110382000D01*
X145135500Y-110385000D01*
X145135500Y-110387000D01*
X145136500Y-110390000D01*
X145136500Y-110392000D01*
X145137500Y-110395000D01*
X145137500Y-110397000D01*
X145137500Y-110400000D01*
X145137500Y-110900000D01*
X145137500Y-110903000D01*
X145137500Y-110905000D01*
X145136500Y-110908000D01*
X145136500Y-110910000D01*
X145135500Y-110913000D01*
X145135500Y-110915000D01*
X145134500Y-110918000D01*
X145133500Y-110920000D01*
X145132500Y-110923000D01*
X145130500Y-110925000D01*
X145129500Y-110927000D01*
X145127500Y-110929000D01*
X145126500Y-110931000D01*
X145124500Y-110933000D01*
X145122500Y-110935000D01*
X145120500Y-110937000D01*
X145118500Y-110939000D01*
X145116500Y-110940000D01*
X145114500Y-110942000D01*
X145112500Y-110943000D01*
X145110500Y-110945000D01*
X145107500Y-110946000D01*
X145105500Y-110947000D01*
X145102500Y-110948000D01*
X145100500Y-110948000D01*
X145097500Y-110949000D01*
X145095500Y-110949000D01*
X145092500Y-110950000D01*
X145090500Y-110950000D01*
X145087500Y-110950000D01*
G36*
X145095500Y-110351000D02*
G01*
X145097500Y-110351000D01*
X145100500Y-110352000D01*
X145102500Y-110352000D01*
X145105500Y-110353000D01*
X145107500Y-110354000D01*
X145110500Y-110355000D01*
X145112500Y-110357000D01*
X145114500Y-110358000D01*
X145116500Y-110360000D01*
X145118500Y-110361000D01*
X145120500Y-110363000D01*
X145122500Y-110365000D01*
X145124500Y-110367000D01*
X145126500Y-110369000D01*
X145127500Y-110371000D01*
X145129500Y-110373000D01*
X145130500Y-110375000D01*
X145132500Y-110377000D01*
X145133500Y-110380000D01*
X145134500Y-110382000D01*
X145135500Y-110385000D01*
X145135500Y-110387000D01*
X145136500Y-110390000D01*
X145136500Y-110392000D01*
X145137500Y-110395000D01*
X145137500Y-110397000D01*
X145137500Y-110400000D01*
X145137500Y-110900000D01*
X145137500Y-110903000D01*
X145137500Y-110905000D01*
X145136500Y-110908000D01*
X145136500Y-110910000D01*
X145135500Y-110913000D01*
X145135500Y-110915000D01*
X145134500Y-110918000D01*
X145133500Y-110920000D01*
X145132500Y-110923000D01*
X145130500Y-110925000D01*
X145129500Y-110927000D01*
X145127500Y-110929000D01*
X145126500Y-110931000D01*
X145124500Y-110933000D01*
X145122500Y-110935000D01*
X145120500Y-110937000D01*
X145118500Y-110939000D01*
X145116500Y-110940000D01*
X145114500Y-110942000D01*
X145112500Y-110943000D01*
X145110500Y-110945000D01*
X145107500Y-110946000D01*
X145105500Y-110947000D01*
X145102500Y-110948000D01*
X145100500Y-110948000D01*
X145097500Y-110949000D01*
X145095500Y-110949000D01*
X145092500Y-110950000D01*
X145090500Y-110950000D01*
X145087500Y-110950000D01*
X144937500Y-110950000D01*
X144934500Y-110950000D01*
X144932500Y-110950000D01*
X144929500Y-110949000D01*
X144927500Y-110949000D01*
X144924500Y-110948000D01*
X144922500Y-110948000D01*
X144919500Y-110947000D01*
X144917500Y-110946000D01*
X144914500Y-110945000D01*
X144912500Y-110943000D01*
X144910500Y-110942000D01*
X144908500Y-110940000D01*
X144906500Y-110939000D01*
X144904500Y-110937000D01*
X144902500Y-110935000D01*
X144900500Y-110933000D01*
X144898500Y-110931000D01*
X144897500Y-110929000D01*
X144895500Y-110927000D01*
X144894500Y-110925000D01*
X144892500Y-110923000D01*
X144891500Y-110920000D01*
X144890500Y-110918000D01*
X144889500Y-110915000D01*
X144889500Y-110913000D01*
X144888500Y-110910000D01*
X144888500Y-110908000D01*
X144887500Y-110905000D01*
X144887500Y-110903000D01*
X144887500Y-110900000D01*
X144887500Y-110600000D01*
X144637500Y-110600000D01*
X144637500Y-110900000D01*
X144637500Y-110903000D01*
X144637500Y-110905000D01*
X144636500Y-110908000D01*
X144636500Y-110910000D01*
X144635500Y-110913000D01*
X144635500Y-110915000D01*
X144634500Y-110918000D01*
X144633500Y-110920000D01*
X144632500Y-110923000D01*
X144630500Y-110925000D01*
X144629500Y-110927000D01*
X144627500Y-110929000D01*
X144626500Y-110931000D01*
X144624500Y-110933000D01*
X144622500Y-110935000D01*
X144620500Y-110937000D01*
X144618500Y-110939000D01*
X144616500Y-110940000D01*
X144614500Y-110942000D01*
X144612500Y-110943000D01*
X144610500Y-110945000D01*
X144607500Y-110946000D01*
X144605500Y-110947000D01*
X144602500Y-110948000D01*
X144600500Y-110948000D01*
X144597500Y-110949000D01*
X144595500Y-110949000D01*
X144592500Y-110950000D01*
X144590500Y-110950000D01*
X144587500Y-110950000D01*
X144437500Y-110950000D01*
X144434500Y-110950000D01*
X144432500Y-110950000D01*
X144429500Y-110949000D01*
X144427500Y-110949000D01*
X144424500Y-110948000D01*
X144422500Y-110948000D01*
X144419500Y-110947000D01*
X144417500Y-110946000D01*
X144414500Y-110945000D01*
X144412500Y-110943000D01*
X144410500Y-110942000D01*
X144408500Y-110940000D01*
X144406500Y-110939000D01*
X144404500Y-110937000D01*
X144402500Y-110935000D01*
X144400500Y-110933000D01*
X144398500Y-110931000D01*
X144397500Y-110929000D01*
X144395500Y-110927000D01*
X144394500Y-110925000D01*
X144392500Y-110923000D01*
X144391500Y-110920000D01*
X144390500Y-110918000D01*
X144389500Y-110915000D01*
X144389500Y-110913000D01*
X144388500Y-110910000D01*
X144388500Y-110908000D01*
X144387500Y-110905000D01*
X144387500Y-110903000D01*
X144387500Y-110900000D01*
X144387500Y-110400000D01*
X144387500Y-110397000D01*
X144387500Y-110395000D01*
X144388500Y-110392000D01*
X144388500Y-110390000D01*
X144389500Y-110387000D01*
X144389500Y-110385000D01*
X144390500Y-110382000D01*
X144391500Y-110380000D01*
X144392500Y-110377000D01*
X144394500Y-110375000D01*
X144395500Y-110373000D01*
X144397500Y-110371000D01*
X144398500Y-110369000D01*
X144400500Y-110367000D01*
X144402500Y-110365000D01*
X144404500Y-110363000D01*
X144406500Y-110361000D01*
X144408500Y-110360000D01*
X144410500Y-110358000D01*
X144412500Y-110357000D01*
X144414500Y-110355000D01*
X144417500Y-110354000D01*
X144419500Y-110353000D01*
X144422500Y-110352000D01*
X144424500Y-110352000D01*
X144427500Y-110351000D01*
X144429500Y-110351000D01*
X144432500Y-110350000D01*
X144434500Y-110350000D01*
X144437500Y-110350000D01*
X145087500Y-110350000D01*
X145090500Y-110350000D01*
X145092500Y-110350000D01*
X145095500Y-110351000D01*
G37*
%TD*%
D11*
%TO.C,C5*%
X145062500Y-119450000D03*
X143512500Y-119450000D03*
%TD*%
D12*
%TO.C,D1*%
X181900000Y-123560000D03*
X181900000Y-128640000D03*
X181900000Y-126100000D03*
%TD*%
D13*
%TO.C,C11*%
X146712500Y-97900000D03*
X143762500Y-97900000D03*
%TD*%
D14*
%TO.C,R6*%
X162675000Y-115562500D03*
X160850000Y-115562500D03*
%TD*%
D15*
%TO.C,H1*%
X96250000Y-87100000D03*
%TD*%
D16*
%TO.C,R12*%
X177550000Y-120250000D03*
X177550000Y-122075000D03*
%TD*%
D17*
%TO.C,R15*%
X177125000Y-127750000D03*
X178950000Y-127750000D03*
%TD*%
D18*
%TO.C,C23*%
X97887500Y-109962500D03*
X97887500Y-112037500D03*
%TD*%
D19*
%TO.C,R21*%
X130175000Y-131570000D03*
X130175000Y-129745000D03*
%TD*%
D13*
%TO.C,C12*%
X146712500Y-94025000D03*
X143762500Y-94025000D03*
%TD*%
D20*
%TO.C,C26*%
X95250000Y-112037500D03*
X95250000Y-109962500D03*
%TD*%
D17*
%TO.C,R24*%
X117687500Y-138220000D03*
X119512500Y-138220000D03*
%TD*%
D16*
%TO.C,R8*%
X163700000Y-107087500D03*
X163700000Y-108912500D03*
%TD*%
D15*
%TO.C,H3*%
X96300000Y-150100000D03*
%TD*%
D16*
%TO.C,R22*%
X127875000Y-129745000D03*
X127875000Y-131570000D03*
%TD*%
D14*
%TO.C,R19*%
X111912500Y-141750000D03*
X110087500Y-141750000D03*
%TD*%
D21*
%TO.C,C6*%
X166350000Y-112512500D03*
X166350000Y-110612500D03*
%TD*%
D14*
%TO.C,R13*%
X150087500Y-103100000D03*
X148262500Y-103100000D03*
%TD*%
D22*
%TO.C,C21*%
X114100000Y-116250000D03*
X116000000Y-116250000D03*
%TD*%
D17*
%TO.C,R20*%
X124937500Y-141750000D03*
X126762500Y-141750000D03*
%TD*%
D23*
%TO.C,C3*%
X145212500Y-114300000D03*
X143312500Y-114300000D03*
%TD*%
D11*
%TO.C,C10*%
X145962500Y-101000000D03*
X144412500Y-101000000D03*
%TD*%
D14*
%TO.C,R7*%
X173225000Y-111362500D03*
X171400000Y-111362500D03*
%TD*%
D19*
%TO.C,R10*%
X151662500Y-115300000D03*
X151662500Y-113475000D03*
%TD*%
D24*
%TO.C,J3*%
X87540000Y-141080000D03*
D25*
X87540000Y-138310000D03*
X87540000Y-135540000D03*
X87540000Y-132770000D03*
X87540000Y-130000000D03*
X84700000Y-139695000D03*
X84700000Y-136925000D03*
X84700000Y-134155000D03*
X84700000Y-131385000D03*
D26*
X86120000Y-123040000D03*
X86120000Y-148040000D03*
%TD*%
D14*
%TO.C,R1*%
X144225000Y-135850000D03*
X142400000Y-135850000D03*
%TD*%
D27*
%TO.C,L1*%
X138062500Y-110320000D03*
X138062500Y-107950000D03*
%TD*%
D28*
%TO.C,SW1*%
X141500000Y-148000000D03*
D29*
X144000000Y-148000000D03*
%TD*%
D30*
%TO.C,Y1*%
X116000000Y-112525000D03*
X116000000Y-107000000D03*
%TD*%
D31*
%TO.C,U5*%
X119525000Y-127095000D03*
X119525000Y-128365000D03*
X119525000Y-129635000D03*
X119525000Y-130905000D03*
X124475000Y-130905000D03*
X124475000Y-129635000D03*
X124475000Y-128365000D03*
X124475000Y-127095000D03*
%TD*%
D32*
%TO.C,C2*%
X147050000Y-136000000D03*
X150000000Y-136000000D03*
%TD*%
D13*
%TO.C,C14*%
X146662500Y-90150000D03*
X143712500Y-90150000D03*
%TD*%
D17*
%TO.C,R11*%
X160137500Y-104950000D03*
X161962500Y-104950000D03*
%TD*%
D23*
%TO.C,C15*%
X122875000Y-124795000D03*
X120975000Y-124795000D03*
%TD*%
D33*
%TO.C,C16*%
X110525000Y-129687500D03*
X110525000Y-131587500D03*
%TD*%
D34*
%TO.C,C24*%
X98137500Y-118455000D03*
X96062500Y-118455000D03*
%TD*%
D23*
%TO.C,C13*%
X158200000Y-115612500D03*
X156300000Y-115612500D03*
%TD*%
%TO.C,C19*%
X115712500Y-138250000D03*
X113812500Y-138250000D03*
%TD*%
D21*
%TO.C,C1*%
X140000000Y-135950000D03*
X140000000Y-134050000D03*
%TD*%
D17*
%TO.C,R25*%
X133400000Y-94280000D03*
X135225000Y-94280000D03*
%TD*%
%TO.C,R23*%
X113887500Y-141750000D03*
X115712500Y-141750000D03*
%TD*%
D19*
%TO.C,R9*%
X177550000Y-131800000D03*
X177550000Y-129975000D03*
%TD*%
D35*
%TO.C,C7*%
X168950000Y-112812500D03*
X168950000Y-109862500D03*
%TD*%
D22*
%TO.C,C20*%
X114100000Y-103250000D03*
X116000000Y-103250000D03*
%TD*%
D24*
%TO.C,J2*%
X87540000Y-107540000D03*
D25*
X87540000Y-104770000D03*
X87540000Y-102000000D03*
X87540000Y-99230000D03*
X87540000Y-96460000D03*
X84700000Y-106155000D03*
X84700000Y-103385000D03*
X84700000Y-100615000D03*
X84700000Y-97845000D03*
D26*
X86120000Y-89500000D03*
X86120000Y-114500000D03*
%TD*%
D16*
%TO.C,R2*%
X175200000Y-105687500D03*
X175200000Y-107512500D03*
%TD*%
D21*
%TO.C,C9*%
X157550000Y-106812500D03*
X157550000Y-104912500D03*
%TD*%
D17*
%TO.C,R14*%
X148262500Y-105650000D03*
X150087500Y-105650000D03*
%TD*%
D36*
%TO.C,Q1*%
X149960000Y-131350000D03*
X149960000Y-130400000D03*
X149960000Y-129450000D03*
X147450000Y-129450000D03*
X147450000Y-130400000D03*
X147450000Y-131350000D03*
%TD*%
D37*
%TO.C,U7*%
X100662500Y-109955000D03*
X100662500Y-111225000D03*
X100662500Y-112495000D03*
X100662500Y-113765000D03*
X100662500Y-115035000D03*
X100662500Y-116305000D03*
X100662500Y-117575000D03*
X100662500Y-118845000D03*
X106837500Y-118845000D03*
X106837500Y-117575000D03*
X106837500Y-116305000D03*
X106837500Y-115035000D03*
X106837500Y-113765000D03*
X106837500Y-112495000D03*
X106837500Y-111225000D03*
X106837500Y-109955000D03*
%TD*%
D15*
%TO.C,H2*%
X177900000Y-150100000D03*
%TD*%
D17*
%TO.C,R16*%
X177175000Y-125300000D03*
X179000000Y-125300000D03*
%TD*%
D38*
%TO.C,P1*%
X179375000Y-106690000D03*
X179375000Y-100910000D03*
D39*
X178300000Y-107000000D03*
X178300000Y-106200000D03*
D40*
X178300000Y-105050000D03*
X178300000Y-104050000D03*
X178300000Y-103550000D03*
X178300000Y-102550000D03*
D39*
X178300000Y-101400000D03*
X178300000Y-100600000D03*
X178300000Y-100600000D03*
X178300000Y-101400000D03*
D40*
X178300000Y-102050000D03*
X178300000Y-103050000D03*
X178300000Y-104550000D03*
X178300000Y-105550000D03*
D39*
X178300000Y-106200000D03*
X178300000Y-107000000D03*
D41*
X178875000Y-108120000D03*
D42*
X183055000Y-108120000D03*
D41*
X178875000Y-99480000D03*
D42*
X183055000Y-99480000D03*
%TD*%
D18*
%TO.C,C25*%
X97887500Y-113980000D03*
X97887500Y-116055000D03*
%TD*%
D16*
%TO.C,R5*%
X147912500Y-113375000D03*
X147912500Y-115200000D03*
%TD*%
D43*
%TO.C,U2*%
X172300000Y-104437500D03*
D44*
X172375000Y-103900000D03*
D43*
X172300000Y-103362500D03*
X170600000Y-103362500D03*
D44*
X170525000Y-103900000D03*
D43*
X170600000Y-104437500D03*
%TD*%
D45*
%TO.C,U6*%
X122075000Y-108250000D03*
X122075000Y-108750000D03*
X122075000Y-109250000D03*
X122075000Y-109750000D03*
X122075000Y-110250000D03*
X122075000Y-110750000D03*
X122075000Y-111250000D03*
X122075000Y-111750000D03*
X122075000Y-112250000D03*
X122075000Y-112750000D03*
X122075000Y-113250000D03*
X122075000Y-113750000D03*
D46*
X123487500Y-115162500D03*
X123987500Y-115162500D03*
X124487500Y-115162500D03*
X124987500Y-115162500D03*
X125487500Y-115162500D03*
X125987500Y-115162500D03*
X126487500Y-115162500D03*
X126987500Y-115162500D03*
X127487500Y-115162500D03*
X127987500Y-115162500D03*
X128487500Y-115162500D03*
X128987500Y-115162500D03*
D45*
X130400000Y-113750000D03*
X130400000Y-113250000D03*
X130400000Y-112750000D03*
X130400000Y-112250000D03*
X130400000Y-111750000D03*
X130400000Y-111250000D03*
X130400000Y-110750000D03*
X130400000Y-110250000D03*
X130400000Y-109750000D03*
X130400000Y-109250000D03*
X130400000Y-108750000D03*
X130400000Y-108250000D03*
D46*
X128987500Y-106837500D03*
X128487500Y-106837500D03*
X127987500Y-106837500D03*
X127487500Y-106837500D03*
X126987500Y-106837500D03*
X126487500Y-106837500D03*
X125987500Y-106837500D03*
X125487500Y-106837500D03*
X124987500Y-106837500D03*
X124487500Y-106837500D03*
X123987500Y-106837500D03*
X123487500Y-106837500D03*
%TD*%
D47*
%TO.C,TP1*%
X147000000Y-142000000D03*
%TD*%
D33*
%TO.C,C18*%
X132475000Y-129687500D03*
X132475000Y-131587500D03*
%TD*%
D48*
%TO.C,TP2*%
X109500000Y-96300000D03*
%TD*%
D49*
%TO.C,U1*%
X144975000Y-131400000D03*
X144975000Y-130450000D03*
X144975000Y-129500000D03*
X142700000Y-129500000D03*
X142700000Y-130450000D03*
X142700000Y-131400000D03*
%TD*%
D19*
%TO.C,R3*%
X175055000Y-101945000D03*
X175055000Y-100120000D03*
%TD*%
D50*
%TO.C,C8*%
X149262500Y-109525000D03*
X149262500Y-111075000D03*
%TD*%
D19*
%TO.C,R17*%
X113000000Y-131570000D03*
X113000000Y-129745000D03*
%TD*%
D51*
%TO.C,J1*%
X135950000Y-87000000D03*
D52*
X133450000Y-87000000D03*
X130950000Y-87000000D03*
X128450000Y-87000000D03*
X125950000Y-87000000D03*
X123450000Y-87000000D03*
X120950000Y-87000000D03*
X118450000Y-87000000D03*
%TD*%
D17*
%TO.C,R4*%
X146950000Y-126150000D03*
X148775000Y-126150000D03*
%TD*%
D23*
%TO.C,C4*%
X145212500Y-116900000D03*
X143312500Y-116900000D03*
%TD*%
D15*
%TO.C,H4*%
X177900000Y-87100000D03*
%TD*%
D53*
%TO.C,U4*%
X159450000Y-110162500D03*
X158950000Y-110162500D03*
X158450000Y-110162500D03*
X157950000Y-110162500D03*
D54*
X157262500Y-110850000D03*
X157262500Y-111350000D03*
X157262500Y-111850000D03*
X157262500Y-112350000D03*
D53*
X157950000Y-113037500D03*
X158450000Y-113037500D03*
X158950000Y-113037500D03*
X159450000Y-113037500D03*
D54*
X160137500Y-112350000D03*
X160137500Y-111850000D03*
X160137500Y-111350000D03*
X160137500Y-110850000D03*
D24*
X158700000Y-111600000D03*
%TD*%
D34*
%TO.C,C22*%
X104837500Y-107255000D03*
X102762500Y-107255000D03*
%TD*%
D55*
%TO.C,S1*%
X115932500Y-148550000D03*
X118472500Y-148550000D03*
X121012500Y-148550000D03*
X121012500Y-146050000D03*
X115932500Y-146050000D03*
D56*
X124322500Y-147300000D03*
X112622500Y-147300000D03*
%TD*%
D16*
%TO.C,R26*%
X124250000Y-118450000D03*
X124250000Y-120275000D03*
%TD*%
D47*
%TO.C,TP3*%
X152000000Y-120000000D03*
%TD*%
D23*
%TO.C,C17*%
X120600000Y-94250000D03*
X118700000Y-94250000D03*
%TD*%
D16*
%TO.C,R18*%
X115475000Y-129745000D03*
X115475000Y-131570000D03*
%TD*%
D15*
%TO.C,BT1*%
X105390000Y-128000000D03*
X161000000Y-128000000D03*
D57*
X96945000Y-128000000D03*
D58*
X169845000Y-128000000D03*
%TD*%
M02*
